<svg xmlns="http://www.w3.org/2000/svg" viewBox="0 0 987.72 323.16"><defs><style>.a{fill:#fff;}</style></defs><path class="a" d="M277.25,55.83C275.92,40.56,272.88,18.09,258.9,9,231.43-8.9,194.5,24.93,181.19,46.45c-9.41,15.22-16.57,31.48-22.42,48.26-3.94-18.79-9.89-37-19.82-53.57C120.82,10.93,89.16-9.62,54,4.61,17.88,19.28-2,51.23.16,90.05c2.17,38.42,20.31,73.88,42.49,104.55,26.27,36.32,59,67.38,86.43,102.72l-.43.56c-2.54,3.34.32,3.6,3.28,3.17,1,1.32,2,2.62,3,3.95,4,5.43,29.5-11.12,26.43-15.26-1.45-2-2.93-3.9-4.41-5.83,43.58-56.14,99.64-107.27,116.48-178.9A155.66,155.66,0,0,0,277.25,55.83ZM250,100.59c-9,69.49-58.33,120.56-101.56,172.59C109.09,225,60.64,182.4,37.64,123.43,25.88,93.26,18,50.38,40.65,23.14c10.28-12.33,29.4-6.21,41.36,1C96,32.55,106.5,45.58,114.39,59.63c18.09,32.25,22,70.19,25.62,106.33.39,3.92,25.25-8.57,26.51-14,9-39.34,18-80.32,39.58-115,5.38-8.67,10.06-17.9,21.82-14.35,9.69,2.92,14,11.47,17.08,20.31C251.42,61.29,252.48,81.31,250,100.59Z"/><path class="a" d="M351.31,123.73h18.58a15.46,15.46,0,0,0-1.77-4,14,14,0,0,0-3-3.49,15.88,15.88,0,0,0-4.17-2.44,13.35,13.35,0,0,0-5.08-1,11.62,11.62,0,0,0-7.61,2.32,14.44,14.44,0,0,0-4.17,5.39l-13.6-.91a26.78,26.78,0,0,1,3.17-7.43,24.57,24.57,0,0,1,5.44-6.21,26.38,26.38,0,0,1,7.48-4.26,26.1,26.1,0,0,1,9.29-1.59,27.21,27.21,0,0,1,10.93,2.22,27.53,27.53,0,0,1,8.92,6.17,29.6,29.6,0,0,1,6,9.25,30.38,30.38,0,0,1,0,22.8,29.83,29.83,0,0,1-6,9.2,28.27,28.27,0,0,1-29.41,6.8,26.32,26.32,0,0,1-7.57-4.22A25.75,25.75,0,0,1,330,139.15l13.6-.91a14.93,14.93,0,0,0,4.26,5c1.94,1.51,4.59,2.26,8,2.26a13.87,13.87,0,0,0,5-.86,14.27,14.27,0,0,0,4.08-2.36,13.86,13.86,0,0,0,3-3.49,19.75,19.75,0,0,0,1.95-4.17H351.31Z"/><path class="a" d="M438.79,100.62v57.11H425.65V113.31H410.24L408,140.51q-.74,8.52-5.17,13.1a15.44,15.44,0,0,1-11.6,4.57c-.73,0-1.42,0-2.09,0s-1.24-.08-1.72-.14a11.29,11.29,0,0,1-1.63-.27V146.4h1.81a6.89,6.89,0,0,0,5.21-2.27,10.33,10.33,0,0,0,2.5-6.34l3.17-37.17Z"/><path class="a" d="M449.67,100.62h40.8v12.69H462.82v9.06H488.2v12.7H462.82v10h28.55v12.69h-41.7Z"/><path class="a" d="M532.17,157.73l-18.58-25.38v25.38H500.44V100.62h13.15v24.47l17.22-24.47h15l-20.13,28.1,21.49,29Z"/><path class="a" d="M576.59,157.73H563.45V113.31H547.13V100.62h45.78v12.69H576.59Z"/><path class="a" d="M621.47,100.62a21.62,21.62,0,0,1,8.16,1.49,19.4,19.4,0,0,1,10.69,10.38,19.6,19.6,0,0,1,0,15.23,19.4,19.4,0,0,1-10.69,10.38,21.62,21.62,0,0,1-8.16,1.5H612.4v18.13H599.26V100.62Zm0,26.29a7.09,7.09,0,0,0,5.16-2,6.47,6.47,0,0,0,0-9.52,7.09,7.09,0,0,0-5.16-2H612.4v13.6Z"/><path class="a" d="M703.51,129.17a29.12,29.12,0,0,1-2.22,11.43,29.83,29.83,0,0,1-6,9.2,27.64,27.64,0,0,1-39.71,0,30.2,30.2,0,0,1-6-9.2,30.38,30.38,0,0,1,0-22.8,30,30,0,0,1,6-9.25,27.68,27.68,0,0,1,8.93-6.17,28,28,0,0,1,21.85,0,27.58,27.58,0,0,1,8.93,6.17,29.6,29.6,0,0,1,6,9.25A29.11,29.11,0,0,1,703.51,129.17Zm-13.14,0a17.74,17.74,0,0,0-1.18-6.52,16.1,16.1,0,0,0-3.22-5.17,14.73,14.73,0,0,0-4.76-3.4,14.29,14.29,0,0,0-11.6,0,14.62,14.62,0,0,0-4.76,3.4,15.93,15.93,0,0,0-3.22,5.17,18.63,18.63,0,0,0,0,13,15.93,15.93,0,0,0,3.22,5.17,14.77,14.77,0,0,0,4.76,3.4,14.4,14.4,0,0,0,11.6,0,14.88,14.88,0,0,0,4.76-3.4,16.1,16.1,0,0,0,3.22-5.17A17.76,17.76,0,0,0,690.37,129.17Z"/><path class="a" d="M759.72,100.62v57.11H746.57V135.07H724.82v22.66H711.67V100.62h13.15v21.75h21.75V100.62Z"/><path class="a" d="M818.65,100.62v57.11H805.5V135.07H783.74v22.66H770.6V100.62h13.14v21.75H805.5V100.62Z"/><path class="a" d="M883,129.17a29.12,29.12,0,0,1-2.23,11.43,30,30,0,0,1-6,9.2,27.5,27.5,0,0,1-8.93,6.16,27.64,27.64,0,0,1-30.78-6.16,29.83,29.83,0,0,1-6-9.2,30.38,30.38,0,0,1,0-22.8,29.6,29.6,0,0,1,6-9.25,27.58,27.58,0,0,1,8.93-6.17,28,28,0,0,1,21.85,0,27.68,27.68,0,0,1,8.93,6.17,29.75,29.75,0,0,1,6,9.25A29.11,29.11,0,0,1,883,129.17Zm-13.15,0a17.54,17.54,0,0,0-1.18-6.52,16.1,16.1,0,0,0-3.22-5.17,14.62,14.62,0,0,0-4.76-3.4,14.29,14.29,0,0,0-11.6,0,14.73,14.73,0,0,0-4.76,3.4,16.1,16.1,0,0,0-3.22,5.17,18.63,18.63,0,0,0,0,13,16.1,16.1,0,0,0,3.22,5.17,14.88,14.88,0,0,0,4.76,3.4,14.4,14.4,0,0,0,11.6,0,14.77,14.77,0,0,0,4.76-3.4,16.1,16.1,0,0,0,3.22-5.17A17.55,17.55,0,0,0,869.87,129.17Z"/><path class="a" d="M891.17,100.62H932v12.69H904.32v9.06H929.7v12.7H904.32v10h28.56v12.69H891.17Z"/><path class="a" d="M369,219.62a16.8,16.8,0,0,1,4.53,3.08,17.21,17.21,0,0,1,3.13,4.17,13.05,13.05,0,0,1,1.4,6.35A15.75,15.75,0,0,1,372.84,245a19.47,19.47,0,0,1-5.89,3.63,19.91,19.91,0,0,1-7.48,1.36H333.63V192.87h24.48a19.77,19.77,0,0,1,7.16,1.27,17.15,17.15,0,0,1,5.57,3.45,16.05,16.05,0,0,1,3.63,5,14.38,14.38,0,0,1,1.32,6.12,10.74,10.74,0,0,1-1.09,5,13.7,13.7,0,0,1-2.36,3.35A15.19,15.19,0,0,1,369,219.62Zm-22.22-4.08h10a6.23,6.23,0,0,0,4.53-1.77,5.61,5.61,0,0,0,0-8.25,6.23,6.23,0,0,0-4.53-1.77h-10Zm11.34,23.57a7.09,7.09,0,0,0,5.16-2,6.47,6.47,0,0,0,0-9.52,7.09,7.09,0,0,0-5.16-2H346.77v13.6Z"/><path class="a" d="M439.7,221.43a29,29,0,0,1-2.22,11.42,29.76,29.76,0,0,1-6,9.21,27.5,27.5,0,0,1-8.93,6.16,27.64,27.64,0,0,1-30.78-6.16,29.76,29.76,0,0,1-6-9.21,30.38,30.38,0,0,1,0-22.8,29.67,29.67,0,0,1,6-9.24,27.61,27.61,0,0,1,39.71,0,29.67,29.67,0,0,1,6,9.24A29.19,29.19,0,0,1,439.7,221.43Zm-13.15,0a17.59,17.59,0,0,0-1.18-6.53,16,16,0,0,0-3.21-5.16,14.73,14.73,0,0,0-4.76-3.4,14.31,14.31,0,0,0-11.61,0,14.73,14.73,0,0,0-4.76,3.4,16.16,16.16,0,0,0-3.22,5.16,18.81,18.81,0,0,0,0,13.06,16.21,16.21,0,0,0,3.22,5.17,14.88,14.88,0,0,0,4.76,3.4,14.42,14.42,0,0,0,11.61,0,14.88,14.88,0,0,0,4.76-3.4,16,16,0,0,0,3.21-5.17A17.59,17.59,0,0,0,426.55,221.43Z"/><path class="a" d="M494.55,192.87V250H481.4V205.57H466l-2.27,27.19q-.72,8.53-5.16,13.1A15.43,15.43,0,0,1,447,250.44c-.72,0-1.42,0-2.08,0s-1.24-.08-1.73-.14a11.53,11.53,0,0,1-1.63-.27V238.66h1.81a6.89,6.89,0,0,0,5.22-2.27A10.3,10.3,0,0,0,451,230l3.17-37.17Z"/><path class="a" d="M558.91,221.43a29,29,0,0,1-2.22,11.42,29.76,29.76,0,0,1-6,9.21,27.63,27.63,0,0,1-39.7,0,29.76,29.76,0,0,1-6-9.21,30.38,30.38,0,0,1,0-22.8,29.67,29.67,0,0,1,6-9.24,27.6,27.6,0,0,1,39.7,0,29.67,29.67,0,0,1,6,9.24A29.19,29.19,0,0,1,558.91,221.43Zm-13.14,0a17.8,17.8,0,0,0-1.18-6.53,16.16,16.16,0,0,0-3.22-5.16,14.62,14.62,0,0,0-4.76-3.4,14.29,14.29,0,0,0-11.6,0,14.62,14.62,0,0,0-4.76,3.4A16,16,0,0,0,517,214.9,18.66,18.66,0,0,0,517,228a16,16,0,0,0,3.22,5.17,14.77,14.77,0,0,0,4.76,3.4,14.4,14.4,0,0,0,11.6,0,14.77,14.77,0,0,0,4.76-3.4,16.21,16.21,0,0,0,3.22-5.17A17.8,17.8,0,0,0,545.77,221.43Z"/><path class="a" d="M615.12,192.87V250H602V227.32H580.22V250H567.07V192.87h13.15v21.76H602V192.87Z"/><path class="a" d="M650.93,250H637.79V205.57H621.47v-12.7h45.78v12.7H650.93Z"/><path class="a" d="M673.6,192.87h40.79v12.7H686.74v9.06h25.39v12.69H686.74v10H715.3V250H673.6Zm18.85-11.24a6.19,6.19,0,1,1-1.81-4.53A6.15,6.15,0,0,1,692.45,181.63Zm16.77,0a6.19,6.19,0,1,1-1.81-4.53A6.15,6.15,0,0,1,709.22,181.63Z"/><path class="a" d="M746.57,192.87a21.55,21.55,0,0,1,8.16,1.5,19.44,19.44,0,0,1,6.44,4.17,19.64,19.64,0,0,1,4.26,6.21,19.6,19.6,0,0,1,0,15.23,19.64,19.64,0,0,1-4.26,6.21,19.44,19.44,0,0,1-6.44,4.17,21.55,21.55,0,0,1-8.16,1.5h-9.06V250H724.36V192.87Zm0,26.29a7.09,7.09,0,0,0,5.17-2,6.47,6.47,0,0,0,0-9.52,7.1,7.1,0,0,0-5.17-2h-9.06v13.59Z"/><path class="a" d="M800.52,237.75c3.62,0,6.48-.86,8.56-2.58a12.19,12.19,0,0,0,4.13-6l13.6.9a27.65,27.65,0,0,1-3.27,7.8,25.44,25.44,0,0,1-5.62,6.48,27.66,27.66,0,0,1-37.26-2.26,29.76,29.76,0,0,1-6-9.21,30.38,30.38,0,0,1,0-22.8,29.67,29.67,0,0,1,6-9.24,27.53,27.53,0,0,1,8.93-6.17,27.21,27.21,0,0,1,10.93-2.22,25.59,25.59,0,0,1,9.38,1.68,27.34,27.34,0,0,1,7.62,4.44,26.06,26.06,0,0,1,5.57,6.48,27.33,27.33,0,0,1,3.26,7.8l-13.59.91a13.6,13.6,0,0,0-1.55-3.27,11,11,0,0,0-2.53-2.72,13.26,13.26,0,0,0-3.58-1.9,13.75,13.75,0,0,0-4.58-.73,14,14,0,0,0-5.81,1.23,14.73,14.73,0,0,0-4.76,3.4,16.14,16.14,0,0,0-3.21,5.16,18.66,18.66,0,0,0,0,13.06,16.19,16.19,0,0,0,3.21,5.17,14.88,14.88,0,0,0,4.76,3.4A14.11,14.11,0,0,0,800.52,237.75Z"/><path class="a" d="M859,250H845.85V205.57H829.53v-12.7h45.78v12.7H859Z"/><path class="a" d="M917,219.62a16.8,16.8,0,0,1,4.53,3.08,17.21,17.21,0,0,1,3.13,4.17,12.94,12.94,0,0,1,1.41,6.35A15.71,15.71,0,0,1,920.86,245a19.35,19.35,0,0,1-5.89,3.63,19.88,19.88,0,0,1-7.48,1.36H881.65V192.87h24.48a19.69,19.69,0,0,1,7.16,1.27,17.09,17.09,0,0,1,5.58,3.45,16.21,16.21,0,0,1,3.63,5,14.53,14.53,0,0,1,1.31,6.12,10.62,10.62,0,0,1-1.09,5,13.68,13.68,0,0,1-2.35,3.35A15,15,0,0,1,917,219.62Zm-22.21-4.08h10a6.24,6.24,0,0,0,4.54-1.77,5.61,5.61,0,0,0,0-8.25,6.24,6.24,0,0,0-4.54-1.77h-10Zm11.33,23.57a7.1,7.1,0,0,0,5.17-2,6.47,6.47,0,0,0,0-9.52,7.1,7.1,0,0,0-5.17-2H894.8v13.6Z"/><path class="a" d="M987.72,221.43a29,29,0,0,1-2.22,11.42,29.76,29.76,0,0,1-6,9.21,27.63,27.63,0,0,1-39.7,0,29.76,29.76,0,0,1-6-9.21,30.38,30.38,0,0,1,0-22.8,29.67,29.67,0,0,1,6-9.24,27.6,27.6,0,0,1,39.7,0,29.67,29.67,0,0,1,6,9.24A29.19,29.19,0,0,1,987.72,221.43Zm-13.14,0a17.8,17.8,0,0,0-1.18-6.53,16.16,16.16,0,0,0-3.22-5.16,14.62,14.62,0,0,0-4.76-3.4,14.29,14.29,0,0,0-11.6,0,14.73,14.73,0,0,0-4.76,3.4,16,16,0,0,0-3.22,5.16,18.66,18.66,0,0,0,0,13.06,16,16,0,0,0,3.22,5.17,14.88,14.88,0,0,0,4.76,3.4,14.4,14.4,0,0,0,11.6,0,14.77,14.77,0,0,0,4.76-3.4A16.21,16.21,0,0,0,973.4,228,17.8,17.8,0,0,0,974.58,221.43Z"/><path class="a" d="M338.93,316.29h-4.24V283h4.24Z"/><path class="a" d="M368.27,286.66h-10v29.63H354V286.66H343.94V283h24.33Z"/><path class="a" d="M385.45,300.69H370.91v-3.43h14.54Z"/><path class="a" d="M415.85,283v33.32h-4.23V286.66H399.45l-1.58,19.84a11.89,11.89,0,0,1-2.9,7.43,8.09,8.09,0,0,1-6.11,2.62l-.74,0-.58-.08a3.84,3.84,0,0,1-.52-.16v-3.43h.52a5.63,5.63,0,0,0,4.21-1.67,7.33,7.33,0,0,0,1.89-4.69L395.47,283Z"/><path class="a" d="M444.65,316.29V290.64L428,316.29H424.3V283h4.24v25.65L445.2,283h3.69v33.32Z"/><path class="a" d="M484.87,312.6v10.56h-4v-6.87H457.36V283h4.24V312.6h15.34V283h4.21V312.6Z"/><path class="a" d="M511.84,312.6v3.69h-21.7V283H511.3v3.69H494.38v10.6H510V301h-15.6V312.6Z"/><path class="a" d="M521.06,316.29h-4.75l8.45-14a11.88,11.88,0,0,1-3.7-1.89,11.38,11.38,0,0,1-2.53-2.89,8.74,8.74,0,0,1-1.16-4.73,9.19,9.19,0,0,1,.79-3.76,9.85,9.85,0,0,1,2.14-3.12,10.1,10.1,0,0,1,3.2-2.12,9.81,9.81,0,0,1,3.92-.79h12.42v33.32H535.6V302.55h-6.3Zm14.54-29.63h-8.18a5.48,5.48,0,0,0-2.28.48,6.33,6.33,0,0,0-1.86,1.29,6,6,0,0,0-1.25,1.93,6.57,6.57,0,0,0,0,4.78,5.85,5.85,0,0,0,1.25,1.92,6.15,6.15,0,0,0,1.86,1.29,5.48,5.48,0,0,0,2.28.48h8.18Z"/><path class="a" d="M564.18,316.29h-4.24V283h4.24Zm0-16.92L577.12,283h5l-13.22,16.4,14.28,16.92h-5Z"/><path class="a" d="M584,299.09a12.3,12.3,0,0,1,1-5,11.43,11.43,0,0,1,2.85-4,14,14,0,0,1,4.63-2.75,21.49,21.49,0,0,1,6.34-1.24V283H603v3.18a21.75,21.75,0,0,1,6.32,1.24,14,14,0,0,1,4.66,2.75,11.36,11.36,0,0,1,2.87,4,13.07,13.07,0,0,1,0,9.93,11.44,11.44,0,0,1-2.87,4,14.2,14.2,0,0,1-4.66,2.75,21.75,21.75,0,0,1-6.32,1.24v4.49h-4.23v-4.49a21.49,21.49,0,0,1-6.34-1.24,14.15,14.15,0,0,1-4.63-2.75,11.51,11.51,0,0,1-2.85-4A12.35,12.35,0,0,1,584,299.09Zm14.8-9.25a14.24,14.24,0,0,0-4.43.84,10.21,10.21,0,0,0-3.33,2,8.42,8.42,0,0,0-2.1,2.89,9.18,9.18,0,0,0,0,7.08,8.2,8.2,0,0,0,2.1,2.88,10.57,10.57,0,0,0,3.33,2,14,14,0,0,0,4.43.85ZM603,308.36a14.08,14.08,0,0,0,4.45-.85,10.51,10.51,0,0,0,3.34-2,8.33,8.33,0,0,0,2.1-2.88,9.21,9.21,0,0,0,0-7.09,8.61,8.61,0,0,0-2.1-2.88,10.16,10.16,0,0,0-3.34-2,14.37,14.37,0,0,0-4.45-.84Z"/><path class="a" d="M645.34,283l-11.65,26.45a18.67,18.67,0,0,1-3.52,5.59,6,6,0,0,1-4.41,1.8,7.27,7.27,0,0,1-2-.26,5.69,5.69,0,0,1-.93-.26v-3.43a2.74,2.74,0,0,0,.52.15,4.52,4.52,0,0,0,.58.08c.22,0,.46,0,.74,0a3.91,3.91,0,0,0,2.67-1,7.1,7.1,0,0,0,1.82-2.74l1.06-2.38L619.4,283h4.78l8.45,19,8.21-19Z"/></svg>