<svg xmlns="http://www.w3.org/2000/svg" viewBox="0 0 117.3 75.97"><defs><style>.a,.b{fill:#b3b3b3;}.a{fill-rule:evenodd;}</style></defs><path class="a" d="M19.65.3c6,4.69,7.56,4.11,14.51,11.59C41.47,19.76,44.36,28.08,54,35.45c-4-.89-5.26-3.21-7.69-4.65-1.77,5.51-7.38,12.83-11,14.5C38.76,47.71,53,42.13,57,39.46c4.3-2.87,8.7-1.14,13.69-4.72,9.22-6.63,4-13.13,13.9-14-4.73-4.33-6.16-3.71-7.86-5.08C82.87,7.46,90.63,5.07,97.65.34c-12.09-1-25.14,1.62-32.13,8C57.22,16,63.35,20.67,65.31,21c4.65.84,7.53-7.26,15.1-1.54-4.71,4.17-2.81,2.74-5.34,7.9-6.53,13.33-13-5.52-17.76-12.2C49.05,3.65,34.52-1.33,19.65.3Z"/><path class="b" d="M10.58,75.58v-2.2C3.94,72.82,0,69.7,0,64.64s3.94-8.15,10.58-8.74V53.67h4.66V55.9c6.64.59,10.58,3.68,10.58,8.74s-3.94,8.18-10.58,8.74v2.2Zm0-6.37V60.07c-3.78.46-5.78,2.11-5.78,4.57S6.8,68.75,10.58,69.21Zm4.66-9.14v9.14c3.78-.43,5.82-2.07,5.82-4.57S19,60.53,15.24,60.07Z"/><path class="b" d="M29.14,75.58V53.67H39.38c4.77,0,7.36,3.22,7.36,7.06s-2.62,7.06-7.36,7.06H33.8v7.79ZM42,60.73a2.94,2.94,0,0,0-3.22-3h-5v5.92h5A3,3,0,0,0,42,60.73Z"/><path class="b" d="M49.63,75.58V53.67H54.3V67.83L64.45,53.67h4.79V75.58H64.58V60.9L54.13,75.58Z"/><path class="b" d="M73.58,75.58V53.67h4.66V67.83L88.39,53.67h4.8V75.58H88.52V60.9L78.08,75.58Z"/><path class="b" d="M96.47,64.64c0-6.74,5.09-11.33,11.66-11.33a10,10,0,0,1,9.17,5.35l-4,2a6,6,0,0,0-5.16-3.19c-4,0-6.86,3.06-6.86,7.2s2.89,7.19,6.86,7.19a5.88,5.88,0,0,0,5.16-3.18l4,1.94A10.11,10.11,0,0,1,108.13,76C101.56,76,96.47,71.37,96.47,64.64Z"/></svg>