<svg xmlns="http://www.w3.org/2000/svg" viewBox="0 0 79.54 46.79"><defs><style>.a{fill:#66a8ff;fill-rule:evenodd;}</style></defs><path class="a" d="M0,.31C6.07,5.09,7.71,4.5,14.8,12.13c7.45,8,10.39,16.5,20.25,24-4.07-.9-5.36-3.26-7.85-4.73C25.4,37,19.69,44.49,16,46.19c3.49,2.46,18-3.23,22-5.95,4.38-2.93,8.87-1.16,14-4.82,9.4-6.75,4.09-13.38,14.18-14.23-4.83-4.42-6.28-3.78-8-5.18C64.46,7.61,72.38,5.17,79.54.35,67.21-.64,53.9,2,46.77,8.54c-8.46,7.77-2.21,12.53-.21,12.89,4.74.86,7.68-7.4,15.4-1.57-4.81,4.26-2.87,2.8-5.45,8.06-6.66,13.59-13.22-5.63-18.1-12.44C30,3.72,15.16-1.36,0,.31Z"/></svg>