<svg xmlns="http://www.w3.org/2000/svg" viewBox="0 0 188.05 64.97"><defs><style>.cls-1{fill:#3a5081;}.cls-1,.cls-2{fill-rule:evenodd;}</style></defs><g id="Layer_2" data-name="Layer 2"><g id="Layer_1-2" data-name="Layer 1"><path class="cls-1" d="M65,32.49A32.49,32.49,0,1,1,32.49,0,32.48,32.48,0,0,1,65,32.49ZM54.71,10.26a31.45,31.45,0,1,0,9.2,22.23A31.37,31.37,0,0,0,54.71,10.26Z"/><path class="cls-1" d="M7.57,18c3.81,3,4.83,2.63,9.27,7.41,4.67,5,6.52,10.34,12.69,15-2.55-.57-3.36-2-4.91-3-1.13,3.51-4.72,8.19-7,9.26,2.18,1.54,11.25-2,13.8-3.73,2.75-1.83,5.56-.73,8.75-3C46,35.79,42.71,31.64,49,31.11c-3-2.77-3.94-2.37-5-3.25,4-5.27,8.91-6.79,13.39-9.81-7.72-.62-16.06,1-20.53,5.13-5.3,4.87-1.38,7.85-.13,8.08,3,.53,4.82-4.64,9.65-1-3,2.67-1.8,1.76-3.41,5.05-4.18,8.51-8.29-3.53-11.35-7.79C26.36,20.16,17.07,17,7.57,18Z"/><path class="cls-2" d="M88.17,21.86a7.09,7.09,0,0,1,2.84.56,7.58,7.58,0,0,1,2.32,1.52,7,7,0,0,1,1.56,7.79A7,7,0,0,1,93.33,34,7.58,7.58,0,0,1,91,35.52a7.27,7.27,0,0,1-2.84.56h-3.9v7.11H80.21V21.86Zm0,10.32a2.78,2.78,0,0,0,1.21-.27,3.34,3.34,0,0,0,1-.71,3.61,3.61,0,0,0,.71-1A2.86,2.86,0,0,0,91.38,29a2.82,2.82,0,0,0-.27-1.22,3.66,3.66,0,0,0-.71-1,3.52,3.52,0,0,0-1-.71,2.78,2.78,0,0,0-1.21-.27h-3.9v6.43Zm14.55,11H98.66V21.86h4.06V43.19ZM110,32.52a7.46,7.46,0,0,0,.51,2.8,7.22,7.22,0,0,0,1.36,2.2,5.87,5.87,0,0,0,2,1.44,6,6,0,0,0,2.42.5,5.26,5.26,0,0,0,2.64-.59,5.7,5.7,0,0,0,1.66-1.34,7.29,7.29,0,0,0,1.12-2H116.1V32h10V43.19h-2.88l-.85-2a8,8,0,0,1-1.66,1.11,11.61,11.61,0,0,1-1.89.75,9,9,0,0,1-2.54.34,9.79,9.79,0,0,1-4-.83,10.24,10.24,0,0,1-3.28-2.3,11.29,11.29,0,0,1-2.24-3.44,11.35,11.35,0,0,1,0-8.52A11.1,11.1,0,0,1,109,24.82a10.08,10.08,0,0,1,3.28-2.3,9.63,9.63,0,0,1,4-.83,9.25,9.25,0,0,1,3.4.62A10,10,0,0,1,122.46,24a9.8,9.8,0,0,1,2.07,2.42,10.47,10.47,0,0,1,1.22,2.92h-4.23a4.82,4.82,0,0,0-.65-1.38,5.1,5.1,0,0,0-1.1-1.18,5.57,5.57,0,0,0-1.54-.85,6.07,6.07,0,0,0-4.38.19,5.87,5.87,0,0,0-2,1.44,7.1,7.1,0,0,0-1.36,2.2,7.45,7.45,0,0,0-.51,2.79Zm35.22,6.77v3.9H130.15V21.86h14.73v3.89H134.21v4.57H144v3.9h-9.82v5.07Zm5.92-6.77a7.37,7.37,0,0,0,1.86,5A6,6,0,0,0,159.81,39a6,6,0,0,0,2-1.44,7.73,7.73,0,0,0,1.35-7.79,7.27,7.27,0,0,0-1.35-2.2,6,6,0,0,0-2-1.44,6,6,0,0,0-4.83,0,6.07,6.07,0,0,0-2,1.44,7.27,7.27,0,0,0-1.35,2.2,7.45,7.45,0,0,0-.51,2.79Zm16.59,0a10.73,10.73,0,0,1-.83,4.27,11.46,11.46,0,0,1-2.23,3.44,10.28,10.28,0,0,1-3.29,2.3,9.93,9.93,0,0,1-7.95,0,10.28,10.28,0,0,1-3.29-2.3,11.46,11.46,0,0,1-2.23-3.44,11.35,11.35,0,0,1,0-8.52,11.26,11.26,0,0,1,2.23-3.45,10.13,10.13,0,0,1,3.29-2.3,9.93,9.93,0,0,1,7.95,0,10.13,10.13,0,0,1,3.29,2.3,11.26,11.26,0,0,1,2.23,3.45,10.77,10.77,0,0,1,.83,4.25Zm20.32-10.66V43.19h-3.56L175,29.31V43.19H171V21.86h3.55L184,35.74V21.86Z"/><path d="M115.57,52.45v.4h-3.52V47.17h3.43v.4h-3v2.12h2.75v.41H112.5v2.35Z"/><path d="M118.36,48.84A1.61,1.61,0,0,1,119,49a1.35,1.35,0,0,1,.5.34,1.59,1.59,0,0,1,.33.53,1.65,1.65,0,0,1,.13.68v2.34h-.41V50.51a1.35,1.35,0,0,0-.09-.5,1.46,1.46,0,0,0-.27-.41,1.22,1.22,0,0,0-.38-.26,1.12,1.12,0,0,0-.48-.1,1.18,1.18,0,0,0-.5.1,1.11,1.11,0,0,0-.4.26,1.27,1.27,0,0,0-.27.41,1.35,1.35,0,0,0-.09.5v2.34h-.41v-4h.27l.14.59h0a1.45,1.45,0,0,1,.29-.32,1.75,1.75,0,0,1,.39-.22A1.64,1.64,0,0,1,118.36,48.84Z"/><path d="M121.57,49.29h-.77v-.41h.36a.41.41,0,0,0,.46-.45v-.72H122v1.17h1v.41h-1v2.43a.78.78,0,0,0,.2.59.77.77,0,0,0,.52.18.65.65,0,0,0,.2,0l.07,0v.36l-.1,0a.71.71,0,0,1-.26,0,1,1,0,0,1-.74-.32,1.18,1.18,0,0,1-.3-.86Z"/><path d="M127.21,51.86a1.49,1.49,0,0,1-.22.38,1.84,1.84,0,0,1-.35.33,1.67,1.67,0,0,1-.46.24,1.87,1.87,0,0,1-.59.09,1.79,1.79,0,0,1-.76-.16,1.81,1.81,0,0,1-1-1.06,2.29,2.29,0,0,1,0-1.63,1.9,1.9,0,0,1,.39-.64,1.67,1.67,0,0,1,.59-.42,1.72,1.72,0,0,1,.72-.15,1.82,1.82,0,0,1,.7.14,1.78,1.78,0,0,1,.57.4,1.73,1.73,0,0,1,.39.6,1.86,1.86,0,0,1,.15.75c0,.05,0,.09,0,.13s0,.07,0,.1l0,.09h-3.2a1.67,1.67,0,0,0,.16.59,1.34,1.34,0,0,0,.31.45,1.37,1.37,0,0,0,.45.3,1.48,1.48,0,0,0,.57.1,1.23,1.23,0,0,0,.39-.06,1.66,1.66,0,0,0,.33-.15,1.64,1.64,0,0,0,.24-.21l.17-.21Zm-1.67-2.62a1.26,1.26,0,0,0-.51.11,1.36,1.36,0,0,0-.43.29,1.85,1.85,0,0,0-.32.44,1.75,1.75,0,0,0-.18.56h2.84a1.66,1.66,0,0,0-.16-.56,1.55,1.55,0,0,0-.3-.44,1.36,1.36,0,0,0-.43-.29A1.26,1.26,0,0,0,125.54,49.24Z"/><path d="M130.23,48.84v.4H130a1.24,1.24,0,0,0-.92.35,1.3,1.3,0,0,0-.34,1v2.3h-.41v-4h.27l.14.59h0a1.24,1.24,0,0,1,.29-.32,1.75,1.75,0,0,1,.39-.22,1.68,1.68,0,0,1,.58-.09Z"/><path d="M134.71,50.86a2.39,2.39,0,0,1-.14.82,2,2,0,0,1-.4.64,1.73,1.73,0,0,1-.58.42,1.66,1.66,0,0,1-.73.16,1.4,1.4,0,0,1-.6-.12,1.52,1.52,0,0,1-.75-.61h0V54.3h-.41V48.88h.28l.13.68h0a1.42,1.42,0,0,1,.33-.36,2.12,2.12,0,0,1,.42-.25,1.4,1.4,0,0,1,.6-.11,1.8,1.8,0,0,1,.73.15,1.73,1.73,0,0,1,.58.42,2.1,2.1,0,0,1,.4.64A2.38,2.38,0,0,1,134.71,50.86Zm-1.85,1.63a1.3,1.3,0,0,0,.55-.12,1.38,1.38,0,0,0,.46-.34,1.68,1.68,0,0,0,.44-1.17,1.75,1.75,0,0,0-.12-.65,1.91,1.91,0,0,0-.32-.51,1.72,1.72,0,0,0-.46-.34,1.33,1.33,0,0,0-.55-.12,1.3,1.3,0,0,0-.55.12,1.72,1.72,0,0,0-.46.34,1.82,1.82,0,0,0-.32.52,1.69,1.69,0,0,0-.12.64,1.68,1.68,0,0,0,.44,1.17,1.38,1.38,0,0,0,.46.34A1.3,1.3,0,0,0,132.86,52.49Z"/><path d="M137.59,48.84v.4h-.22a1.24,1.24,0,0,0-.92.35,1.3,1.3,0,0,0-.34,1v2.3h-.41v-4H136l.14.59h0a1.45,1.45,0,0,1,.29-.32,1.75,1.75,0,0,1,.39-.22,1.68,1.68,0,0,1,.58-.09Z"/><path d="M138.37,47.62a.31.31,0,0,1,.32-.32.29.29,0,0,1,.22.09.32.32,0,0,1,.09.23.31.31,0,0,1-.31.31.32.32,0,0,1-.23-.09A.29.29,0,0,1,138.37,47.62Zm.5,5.23h-.41v-4h.41Z"/><path d="M142.79,51.72a1,1,0,0,1-.1.45,1.29,1.29,0,0,1-.28.38,1.23,1.23,0,0,1-.42.25,1.42,1.42,0,0,1-.55.1,1.55,1.55,0,0,1-.59-.1,1.28,1.28,0,0,1-.44-.26,1.24,1.24,0,0,1-.29-.39,1.06,1.06,0,0,1-.13-.47h.41a1,1,0,0,0,.31.6,1.1,1.1,0,0,0,.73.21,1,1,0,0,0,.69-.23.69.69,0,0,0,.25-.54.5.5,0,0,0-.17-.41,1.05,1.05,0,0,0-.42-.22c-.17-.05-.36-.1-.56-.14a3,3,0,0,1-.55-.16,1.35,1.35,0,0,1-.43-.31.87.87,0,0,1-.17-.56,1,1,0,0,1,.09-.42,1.06,1.06,0,0,1,.26-.34,1.27,1.27,0,0,1,.41-.24,1.87,1.87,0,0,1,.55-.08,1.47,1.47,0,0,1,.53.09,1.73,1.73,0,0,1,.42.25,1,1,0,0,1,.28.36,1.33,1.33,0,0,1,.13.43h-.41a1,1,0,0,0-.31-.52.91.91,0,0,0-.64-.21,1,1,0,0,0-.67.21.61.61,0,0,0-.23.47.48.48,0,0,0,.17.39,1.17,1.17,0,0,0,.42.2l.56.14a2.21,2.21,0,0,1,.55.17,1.13,1.13,0,0,1,.43.32A.91.91,0,0,1,142.79,51.72Z"/><path d="M147,51.86a1.54,1.54,0,0,1-.23.38,1.78,1.78,0,0,1-.34.33,1.73,1.73,0,0,1-.47.24,1.78,1.78,0,0,1-.59.09,1.71,1.71,0,0,1-.75-.16,1.81,1.81,0,0,1-.6-.42,2,2,0,0,1-.4-.64,2.44,2.44,0,0,1,0-1.63,2.29,2.29,0,0,1,.39-.64,1.87,1.87,0,0,1,.59-.42,1.8,1.8,0,0,1,.73-.15,1.82,1.82,0,0,1,.7.14,1.78,1.78,0,0,1,.57.4,2.07,2.07,0,0,1,.39.6,2,2,0,0,1,.14.75.53.53,0,0,1,0,.13s0,.07,0,.1l0,.09h-3.21a2.23,2.23,0,0,0,.16.59,1.51,1.51,0,0,0,.77.75,1.47,1.47,0,0,0,.56.1,1.25,1.25,0,0,0,.4-.06,1.35,1.35,0,0,0,.32-.15,1,1,0,0,0,.24-.21,1.57,1.57,0,0,0,.17-.21Zm-1.67-2.62a1.26,1.26,0,0,0-.51.11,1.36,1.36,0,0,0-.43.29,1.61,1.61,0,0,0-.32.44,2.06,2.06,0,0,0-.19.56h2.85a1.92,1.92,0,0,0-.16-.56,1.4,1.4,0,0,0-.31-.44,1.22,1.22,0,0,0-.42-.29A1.26,1.26,0,0,0,145.36,49.24Z"/><path d="M155,47.17h.4v5.68H155V48.34l-2,4.51h-.27l-2-4.51v4.51h-.44V47.17h.4l2.21,4.92Z"/><path d="M160.07,51.86a1.86,1.86,0,0,1-.22.38,2.2,2.2,0,0,1-.35.33,1.73,1.73,0,0,1-.47.24,1.78,1.78,0,0,1-.59.09,1.71,1.71,0,0,1-.75-.16,1.81,1.81,0,0,1-.6-.42,2,2,0,0,1-.4-.64,2.44,2.44,0,0,1,0-1.63,2.1,2.1,0,0,1,.4-.64,1.73,1.73,0,0,1,.58-.42,1.8,1.8,0,0,1,.73-.15,1.82,1.82,0,0,1,.7.14,1.78,1.78,0,0,1,.57.4,1.88,1.88,0,0,1,.39.6,1.86,1.86,0,0,1,.14.75.53.53,0,0,1,0,.13s0,.07,0,.1l0,.09H157a1.9,1.9,0,0,0,.15.59,1.52,1.52,0,0,0,.32.45,1.37,1.37,0,0,0,.45.3,1.47,1.47,0,0,0,.56.1,1.25,1.25,0,0,0,.4-.06,1.35,1.35,0,0,0,.32-.15,1,1,0,0,0,.24-.21,1,1,0,0,0,.17-.21Zm-1.67-2.62a1.26,1.26,0,0,0-.51.11,1.36,1.36,0,0,0-.43.29,1.85,1.85,0,0,0-.32.44,1.75,1.75,0,0,0-.18.56h2.84a1.92,1.92,0,0,0-.16-.56,1.55,1.55,0,0,0-.3-.44,1.36,1.36,0,0,0-.43-.29A1.26,1.26,0,0,0,158.4,49.24Z"/><path d="M163.77,51.72a1,1,0,0,1-.1.45,1.29,1.29,0,0,1-.28.38,1.34,1.34,0,0,1-.42.25,1.42,1.42,0,0,1-.55.1,1.55,1.55,0,0,1-.59-.1,1.28,1.28,0,0,1-.44-.26,1.24,1.24,0,0,1-.29-.39,1.06,1.06,0,0,1-.13-.47h.41a1,1,0,0,0,.31.6,1.1,1.1,0,0,0,.73.21,1,1,0,0,0,.69-.23.69.69,0,0,0,.25-.54.5.5,0,0,0-.17-.41,1.05,1.05,0,0,0-.42-.22l-.56-.14a2.74,2.74,0,0,1-.55-.16,1.35,1.35,0,0,1-.43-.31.87.87,0,0,1-.17-.56,1,1,0,0,1,.09-.42,1.06,1.06,0,0,1,.26-.34,1.27,1.27,0,0,1,.41-.24,1.87,1.87,0,0,1,.55-.08,1.47,1.47,0,0,1,.53.09,1.73,1.73,0,0,1,.42.25,1.09,1.09,0,0,1,.28.36,1.11,1.11,0,0,1,.12.43h-.4a1,1,0,0,0-.31-.52.91.91,0,0,0-.64-.21,1,1,0,0,0-.67.21.61.61,0,0,0-.23.47.48.48,0,0,0,.17.39,1.09,1.09,0,0,0,.42.2c.17.05.36.1.56.14a2.21,2.21,0,0,1,.55.17,1.13,1.13,0,0,1,.43.32A.91.91,0,0,1,163.77,51.72Z"/><path d="M167.33,51.72a1,1,0,0,1-.1.45,1.46,1.46,0,0,1-.27.38,1.39,1.39,0,0,1-.43.25,1.42,1.42,0,0,1-.55.1,1.55,1.55,0,0,1-.59-.1,1.28,1.28,0,0,1-.44-.26,1.24,1.24,0,0,1-.29-.39,1.22,1.22,0,0,1-.13-.47h.41a1,1,0,0,0,.31.6,1.11,1.11,0,0,0,.73.21,1,1,0,0,0,.69-.23.69.69,0,0,0,.25-.54.5.5,0,0,0-.17-.41,1.05,1.05,0,0,0-.42-.22l-.56-.14a3,3,0,0,1-.55-.16,1.35,1.35,0,0,1-.43-.31.87.87,0,0,1-.17-.56,1,1,0,0,1,.09-.42,1.06,1.06,0,0,1,.26-.34,1.27,1.27,0,0,1,.41-.24,1.87,1.87,0,0,1,.55-.08,1.47,1.47,0,0,1,.53.09,1.73,1.73,0,0,1,.42.25,1,1,0,0,1,.28.36,1.33,1.33,0,0,1,.13.43h-.41a1,1,0,0,0-.31-.52.91.91,0,0,0-.64-.21,1,1,0,0,0-.67.21.61.61,0,0,0-.23.47.48.48,0,0,0,.17.39,1.17,1.17,0,0,0,.42.2c.17.05.36.1.56.14a2.44,2.44,0,0,1,.56.17,1.18,1.18,0,0,1,.42.32A.91.91,0,0,1,167.33,51.72Z"/><path d="M171.57,51.86a1.86,1.86,0,0,1-.22.38,2.2,2.2,0,0,1-.35.33,1.73,1.73,0,0,1-.47.24,1.78,1.78,0,0,1-.59.09,1.71,1.71,0,0,1-.75-.16,1.81,1.81,0,0,1-.6-.42,2,2,0,0,1-.4-.64,2.44,2.44,0,0,1,0-1.63,2.29,2.29,0,0,1,.39-.64,1.87,1.87,0,0,1,.59-.42,1.8,1.8,0,0,1,.73-.15,1.82,1.82,0,0,1,.7.14,1.78,1.78,0,0,1,.57.4,2.07,2.07,0,0,1,.39.6,2,2,0,0,1,.14.75.53.53,0,0,1,0,.13s0,.07,0,.1l0,.09h-3.21a2.23,2.23,0,0,0,.16.59,1.51,1.51,0,0,0,.77.75,1.47,1.47,0,0,0,.56.1,1.25,1.25,0,0,0,.4-.06,1.35,1.35,0,0,0,.32-.15,1,1,0,0,0,.24-.21,1,1,0,0,0,.17-.21Zm-1.67-2.62a1.26,1.26,0,0,0-.51.11,1.36,1.36,0,0,0-.43.29,1.61,1.61,0,0,0-.32.44,2.06,2.06,0,0,0-.19.56h2.85a1.92,1.92,0,0,0-.16-.56,1.4,1.4,0,0,0-.31-.44,1.22,1.22,0,0,0-.42-.29A1.26,1.26,0,0,0,169.9,49.24Z"/><path d="M174.41,48.84A1.68,1.68,0,0,1,175,49a1.43,1.43,0,0,1,.5.34,1.59,1.59,0,0,1,.33.53,1.83,1.83,0,0,1,.12.68v2.34h-.4V50.51a1.35,1.35,0,0,0-.1-.5,1.25,1.25,0,0,0-.26-.41,1.16,1.16,0,0,0-.39-.26,1.12,1.12,0,0,0-.48-.1,1.24,1.24,0,0,0-.5.1,1.31,1.31,0,0,0-.4.26,1.25,1.25,0,0,0-.26.41,1.35,1.35,0,0,0-.1.5v2.34h-.41v-4H173l.13.59h.05a1.4,1.4,0,0,1,.28-.32,2.11,2.11,0,0,1,.4-.22A1.64,1.64,0,0,1,174.41,48.84Z"/><path d="M177.57,53.17a1.36,1.36,0,0,0,.43.58,1.32,1.32,0,0,0,.83.23,1.35,1.35,0,0,0,.5-.09,1.46,1.46,0,0,0,.41-.27,1.2,1.2,0,0,0,.26-.4,1.18,1.18,0,0,0,.1-.5V52h0a1.91,1.91,0,0,1-.33.36,1.5,1.5,0,0,1-.41.25,1.31,1.31,0,0,1-.56.12,1.69,1.69,0,0,1-1.28-.57,2,2,0,0,1-.53-1.37,2.1,2.1,0,0,1,.14-.76,2.18,2.18,0,0,1,.39-.62A1.54,1.54,0,0,1,178,49a1.71,1.71,0,0,1,.71-.15,1.25,1.25,0,0,1,.56.11,1.79,1.79,0,0,1,.41.25,1.86,1.86,0,0,1,.33.36h0l.13-.68h.27v3.84a1.75,1.75,0,0,1-.12.65,1.68,1.68,0,0,1-.35.54,1.62,1.62,0,0,1-.54.35,1.76,1.76,0,0,1-.66.13,2.28,2.28,0,0,1-.66-.1,1.7,1.7,0,0,1-.5-.26,1.58,1.58,0,0,1-.55-.86Zm-.23-2.39a1.5,1.5,0,0,0,.12.6,1.64,1.64,0,0,0,.31.49,1.28,1.28,0,0,0,.45.32,1.21,1.21,0,0,0,.53.12,1.23,1.23,0,0,0,.52-.12,1.28,1.28,0,0,0,.45-.32,1.86,1.86,0,0,0,.31-.49,1.68,1.68,0,0,0,.11-.6,1.74,1.74,0,0,0-.11-.61,1.86,1.86,0,0,0-.31-.49,1.6,1.6,0,0,0-.45-.32,1.21,1.21,0,0,0-1.05,0,1.6,1.6,0,0,0-.45.32,1.64,1.64,0,0,0-.31.49A1.54,1.54,0,0,0,177.34,50.78Z"/><path d="M185,51.86a1.93,1.93,0,0,1-.23.38,1.59,1.59,0,0,1-.35.33,1.67,1.67,0,0,1-.46.24,1.83,1.83,0,0,1-.59.09,1.88,1.88,0,0,1-1.35-.58,1.83,1.83,0,0,1-.4-.64,2.44,2.44,0,0,1,0-1.63,2.07,2.07,0,0,1,.39-.64,1.77,1.77,0,0,1,.59-.42,1.8,1.8,0,0,1,.73-.15,1.86,1.86,0,0,1,.7.14,1.9,1.9,0,0,1,.57.4,2.07,2.07,0,0,1,.39.6,2,2,0,0,1,.14.75.53.53,0,0,1,0,.13s0,.07,0,.1v.09H181.9a1.91,1.91,0,0,0,.16.59,1.51,1.51,0,0,0,.77.75,1.47,1.47,0,0,0,.56.1,1.29,1.29,0,0,0,.4-.06,1.35,1.35,0,0,0,.32-.15,1.64,1.64,0,0,0,.24-.21,1.57,1.57,0,0,0,.17-.21Zm-1.67-2.62a1.37,1.37,0,0,0-.94.4,1.43,1.43,0,0,0-.32.44,2.06,2.06,0,0,0-.19.56h2.84a1.65,1.65,0,0,0-.15-.56,1.58,1.58,0,0,0-.31-.44,1.22,1.22,0,0,0-.42-.29A1.26,1.26,0,0,0,183.35,49.24Z"/><path d="M188,48.84v.4h-.23a1.25,1.25,0,0,0-.92.35,1.3,1.3,0,0,0-.34,1v2.3h-.41v-4h.27l.14.59h0a1.19,1.19,0,0,1,.28-.32,1.84,1.84,0,0,1,.4-.22,1.64,1.64,0,0,1,.58-.09Z"/></g></g></svg>