<svg xmlns="http://www.w3.org/2000/svg" viewBox="0 0 78 45.89"><defs><style>.a{fill-rule:evenodd;}</style></defs><path class="a" d="M0,.3C6,5,7.56,4.41,14.51,11.89c7.31,7.87,10.2,16.19,19.87,23.56-4-.89-5.27-3.21-7.7-4.65-1.77,5.51-7.37,12.83-11,14.5,3.42,2.41,17.61-3.17,21.61-5.84C41.6,36.59,46,38.32,51,34.74c9.22-6.63,4-13.13,13.9-14-4.73-4.33-6.16-3.71-7.85-5.08C63.22,7.46,71,5.07,78,.34c-12.09-1-25.14,1.62-32.13,8C37.57,16,43.7,20.67,45.66,21c4.65.84,7.54-7.26,15.1-1.54-4.71,4.17-2.81,2.74-5.34,7.9-6.53,13.33-13-5.52-17.75-12.2C29.4,3.65,14.87-1.33,0,.3Z"/></svg>