<svg xmlns="http://www.w3.org/2000/svg" viewBox="0 0 242.09 79.21"><defs><style>.a{fill:#5271b6;}</style></defs><path class="a" d="M68,13.68c-.32-3.74-1.07-9.25-4.49-11.48-6.74-4.38-15.79,3.91-19.05,9.18a60.22,60.22,0,0,0-5.5,11.83,42,42,0,0,0-4.85-13.13C29.61,2.68,21.85-2.36,13.25,1.13,4.38,4.72-.5,12.56,0,22.07S5,40.18,10.45,47.7c6.44,8.9,14.45,16.51,21.19,25.17l-.11.14c-.62.82.08.88.81.78l.73,1c1,1.34,7.23-2.72,6.48-3.74l-1.08-1.43C49.15,55.83,62.89,43.29,67,25.74A38,38,0,0,0,68,13.68Zm-6.68,11C59.07,41.69,47,54.2,36.38,67c-9.64-11.8-21.52-22.24-27.15-36.7C6.34,22.86,4.4,12.35,10,5.67c2.52-3,7.21-1.52,10.14.25A23.16,23.16,0,0,1,28,14.62c4.43,7.9,5.39,17.2,6.28,26.06.09,1,6.19-2.1,6.49-3.45C43,27.59,45.24,17.55,50.51,9,51.83,6.91,53,4.65,55.86,5.52c2.38.71,3.43,2.81,4.19,5A31.16,31.16,0,0,1,61.27,24.66Z"/><path d="M86.1,30.33h4.56a3.66,3.66,0,0,0-.43-1,3.42,3.42,0,0,0-.75-.86,4.09,4.09,0,0,0-1-.6,3.41,3.41,0,0,0-1.24-.23,2.84,2.84,0,0,0-1.87.57,3.49,3.49,0,0,0-1,1.32L81,29.33a6.81,6.81,0,0,1,.78-1.82A6.26,6.26,0,0,1,83.1,26a6.75,6.75,0,0,1,1.84-1,6.42,6.42,0,0,1,2.28-.39,6.66,6.66,0,0,1,4.86,2.06,7.18,7.18,0,0,1,2,5.05,7.17,7.17,0,0,1-.54,2.8,7.38,7.38,0,0,1-1.48,2.26,6.86,6.86,0,0,1-2.19,1.51,6.67,6.67,0,0,1-2.67.54,6.78,6.78,0,0,1-2.35-.39,6.5,6.5,0,0,1-1.85-1,6.15,6.15,0,0,1-1.35-1.49,6.44,6.44,0,0,1-.79-1.76l3.34-.22a3.58,3.58,0,0,0,1,1.22,3.11,3.11,0,0,0,2,.56,3.39,3.39,0,0,0,2.22-.79,3.54,3.54,0,0,0,.74-.85,5.07,5.07,0,0,0,.48-1H86.1Z"/><path d="M107.55,24.66v14h-3.23V27.77h-3.77L100,34.44a5.12,5.12,0,0,1-1.26,3.21,3.8,3.8,0,0,1-2.85,1.12h-.51l-.42,0-.4-.07V35.88H95a1.68,1.68,0,0,0,1.28-.55,2.52,2.52,0,0,0,.61-1.56l.78-9.11Z"/><path d="M110.21,24.66h10v3.11h-6.78V30h6.23V33.1h-6.23v2.45h7v3.11H110.21Z"/><path d="M130.43,38.66l-4.55-6.22v6.22h-3.22v-14h3.22v6l4.22-6h3.67l-4.94,6.89,5.27,7.11Z"/><path d="M141.32,38.66H138.1V27.77h-4V24.66h11.22v3.11h-4Z"/><path d="M152.32,24.66a5.23,5.23,0,0,1,2,.37,4.67,4.67,0,0,1,1.58,1,4.84,4.84,0,0,1,1,1.52,4.66,4.66,0,0,1,.38,1.87,4.62,4.62,0,0,1-.38,1.86,4.88,4.88,0,0,1-1,1.53,5,5,0,0,1-1.58,1,5.43,5.43,0,0,1-2,.37H150.1v4.44h-3.22v-14Zm0,6.44a1.73,1.73,0,0,0,1.27-.5,1.59,1.59,0,0,0,0-2.33,1.77,1.77,0,0,0-1.27-.5H150.1V31.1Z"/><path d="M172.43,31.66a7,7,0,0,1-.55,2.8,7.35,7.35,0,0,1-1.47,2.26,7.09,7.09,0,0,1-2.19,1.51,6.92,6.92,0,0,1-5.36,0,7.09,7.09,0,0,1-2.19-1.51,7.35,7.35,0,0,1-1.47-2.26,7.38,7.38,0,0,1,0-5.59,7.23,7.23,0,0,1,1.47-2.26,7,7,0,0,1,2.19-1.52,6.92,6.92,0,0,1,5.36,0,7,7,0,0,1,2.19,1.52,7.23,7.23,0,0,1,1.47,2.26A7.05,7.05,0,0,1,172.43,31.66Zm-3.22,0a4.38,4.38,0,0,0-.29-1.6,4.2,4.2,0,0,0-.79-1.27A3.61,3.61,0,0,0,167,28a3.51,3.51,0,0,0-2.84,0,3.72,3.72,0,0,0-1.17.83,4.2,4.2,0,0,0-.79,1.27,4.56,4.56,0,0,0,0,3.2,4.2,4.2,0,0,0,.79,1.27,3.72,3.72,0,0,0,1.17.83,3.51,3.51,0,0,0,2.84,0,3.61,3.61,0,0,0,1.17-.83,4.2,4.2,0,0,0,.79-1.27A4.38,4.38,0,0,0,169.21,31.66Z"/><path d="M186.2,24.66v14H183V33.1h-5.33v5.56h-3.22v-14h3.22V30H183V24.66Z"/><path d="M200.65,24.66v14h-3.22V33.1h-5.34v5.56h-3.22v-14h3.22V30h5.34V24.66Z"/><path d="M216.42,31.66a7.17,7.17,0,0,1-.54,2.8,7.38,7.38,0,0,1-1.48,2.26,6.86,6.86,0,0,1-2.19,1.51,6.9,6.9,0,0,1-5.35,0,6.86,6.86,0,0,1-2.19-1.51,7.38,7.38,0,0,1-1.48-2.26,7.5,7.5,0,0,1,0-5.59,7.26,7.26,0,0,1,1.48-2.26,6.74,6.74,0,0,1,9.73,0,7.18,7.18,0,0,1,2,5.05Zm-3.22,0a4.18,4.18,0,0,0-.29-1.6,3.84,3.84,0,0,0-.79-1.27A3.68,3.68,0,0,0,211,28a3.53,3.53,0,0,0-2.85,0,3.68,3.68,0,0,0-1.16.83,3.84,3.84,0,0,0-.79,1.27,4.56,4.56,0,0,0,0,3.2,3.84,3.84,0,0,0,.79,1.27,3.68,3.68,0,0,0,1.16.83,3.53,3.53,0,0,0,2.85,0,3.68,3.68,0,0,0,1.16-.83,3.84,3.84,0,0,0,.79-1.27A4.18,4.18,0,0,0,213.2,31.66Z"/><path d="M218.42,24.66h10v3.11h-6.77V30h6.22V33.1h-6.22v2.45h7v3.11H218.42Z"/><path d="M90.44,53.83a4.17,4.17,0,0,1,1.11.75,4.53,4.53,0,0,1,.77,1,3.26,3.26,0,0,1,.34,1.55,3.82,3.82,0,0,1-1.28,2.89,4.78,4.78,0,0,1-1.44.89,5,5,0,0,1-1.84.33H81.77v-14h6a5,5,0,0,1,1.76.31,4.08,4.08,0,0,1,1.36.85,3.73,3.73,0,0,1,.89,1.23,3.49,3.49,0,0,1,.32,1.5,2.56,2.56,0,0,1-.26,1.22,3.45,3.45,0,0,1-.58.83A3.69,3.69,0,0,1,90.44,53.83Zm-5.45-1h2.45a1.54,1.54,0,0,0,1.11-.44,1.36,1.36,0,0,0,.44-1,1.4,1.4,0,0,0-.44-1,1.53,1.53,0,0,0-1.11-.43H85Zm2.78,5.78a1.77,1.77,0,0,0,1.27-.5,1.61,1.61,0,0,0,.51-1.17A1.59,1.59,0,0,0,89,55.77a1.77,1.77,0,0,0-1.27-.5H85v3.34Z"/><path d="M107.77,54.27a7,7,0,0,1-.55,2.8,7.35,7.35,0,0,1-1.47,2.26,6.85,6.85,0,0,1-7.55,1.51A6.92,6.92,0,0,1,96,59.33a7.35,7.35,0,0,1-1.47-2.26,7.38,7.38,0,0,1,0-5.59A7.23,7.23,0,0,1,96,49.22a6.76,6.76,0,0,1,2.19-1.51,6.78,6.78,0,0,1,7.55,1.51,7.23,7.23,0,0,1,1.47,2.26A7.05,7.05,0,0,1,107.77,54.27Zm-3.22,0a4.38,4.38,0,0,0-.29-1.6,3.85,3.85,0,0,0-.79-1.26,3.5,3.5,0,0,0-1.17-.84,3.51,3.51,0,0,0-2.84,0,3.6,3.6,0,0,0-1.17.84,4,4,0,0,0-.79,1.26,4.56,4.56,0,0,0,0,3.2,4.2,4.2,0,0,0,.79,1.27,3.72,3.72,0,0,0,1.17.83,3.51,3.51,0,0,0,2.84,0,3.61,3.61,0,0,0,1.17-.83,4,4,0,0,0,.79-1.27A4.38,4.38,0,0,0,104.55,54.27Z"/><path d="M121.21,47.27v14H118V50.38h-3.78l-.55,6.67a5.07,5.07,0,0,1-1.27,3.21,3.77,3.77,0,0,1-2.84,1.12H109l-.43,0-.4-.07V58.49h.45a1.66,1.66,0,0,0,1.27-.55,2.53,2.53,0,0,0,.62-1.56l.77-9.11Z"/><path d="M137,54.27a7,7,0,0,1-.55,2.8A7.35,7.35,0,0,1,135,59.33a6.92,6.92,0,0,1-2.19,1.51,6.92,6.92,0,0,1-5.36,0,6.81,6.81,0,0,1-2.19-1.51,7.35,7.35,0,0,1-1.47-2.26,7.38,7.38,0,0,1,0-5.59,7.23,7.23,0,0,1,1.47-2.26,6.66,6.66,0,0,1,2.19-1.51,6.8,6.8,0,0,1,5.36,0A6.76,6.76,0,0,1,135,49.22a7.23,7.23,0,0,1,1.47,2.26A7.05,7.05,0,0,1,137,54.27Zm-3.22,0a4.38,4.38,0,0,0-.29-1.6,4,4,0,0,0-.79-1.26,3.5,3.5,0,0,0-1.17-.84,3.51,3.51,0,0,0-2.84,0,3.5,3.5,0,0,0-1.17.84,4,4,0,0,0-.79,1.26,4.56,4.56,0,0,0,0,3.2,4.2,4.2,0,0,0,.79,1.27,3.61,3.61,0,0,0,1.17.83,3.51,3.51,0,0,0,2.84,0,3.61,3.61,0,0,0,1.17-.83,4.2,4.2,0,0,0,.79-1.27A4.38,4.38,0,0,0,133.77,54.27Z"/><path d="M150.76,47.27v14h-3.22V55.72h-5.33v5.55H139v-14h3.22v5.34h5.33V47.27Z"/><path d="M159.54,61.27h-3.22V50.38h-4V47.27h11.22v3.11h-4Z"/><path d="M165.1,47.27h10v3.11h-6.77v2.23h6.22v3.11h-6.22v2.44h7v3.11H165.1Zm4.62-2.75a1.52,1.52,0,0,1-1.56,1.55,1.54,1.54,0,0,1-1.11-.44,1.5,1.5,0,0,1-.44-1.11,1.47,1.47,0,0,1,.44-1.11,1.51,1.51,0,0,1,1.11-.45,1.54,1.54,0,0,1,1.56,1.56Zm4.11,0a1.52,1.52,0,0,1-1.56,1.55,1.5,1.5,0,0,1-1.55-1.55A1.52,1.52,0,0,1,172.27,43a1.54,1.54,0,0,1,1.56,1.56Z"/><path d="M183,47.27a5.35,5.35,0,0,1,2,.37,4.58,4.58,0,0,1,1.58,1,5,5,0,0,1,1,1.52,4.79,4.79,0,0,1,0,3.74,5,5,0,0,1-1,1.52,4.58,4.58,0,0,1-1.58,1,5.16,5.16,0,0,1-2,.37h-2.22v4.44h-3.22v-14Zm0,6.45a1.75,1.75,0,0,0,1.27-.5,1.6,1.6,0,0,0,0-2.34,1.75,1.75,0,0,0-1.27-.5h-2.22v3.34Z"/><path d="M196.2,58.27a3.21,3.21,0,0,0,2.1-.63,3,3,0,0,0,1-1.48l3.33.22a6.52,6.52,0,0,1-.8,1.91,6.18,6.18,0,0,1-1.38,1.59,6.61,6.61,0,0,1-4.27,1.5,6.71,6.71,0,0,1-4.86-2.05,7.38,7.38,0,0,1-1.48-2.26,7.5,7.5,0,0,1,0-5.59,7.26,7.26,0,0,1,1.48-2.26,6.77,6.77,0,0,1,4.86-2.06,6.35,6.35,0,0,1,2.3.41,6.76,6.76,0,0,1,1.87,1.09,6.34,6.34,0,0,1,1.37,1.59,6.92,6.92,0,0,1,.8,1.91l-3.34.22a3.21,3.21,0,0,0-.37-.8,2.62,2.62,0,0,0-.63-.66,3,3,0,0,0-.87-.47,3.35,3.35,0,0,0-1.13-.18,3.45,3.45,0,0,0-1.42.3,3.56,3.56,0,0,0-1.16.84,3.7,3.7,0,0,0-.79,1.26,4.56,4.56,0,0,0,0,3.2,3.84,3.84,0,0,0,.79,1.27,3.68,3.68,0,0,0,1.16.83A3.45,3.45,0,0,0,196.2,58.27Z"/><path d="M210.54,61.27h-3.23V50.38h-4V47.27h11.23v3.11h-4Z"/><path d="M224.76,53.83a4.17,4.17,0,0,1,1.11.75,4.24,4.24,0,0,1,.76,1,3.15,3.15,0,0,1,.35,1.55,3.82,3.82,0,0,1-1.28,2.89,4.78,4.78,0,0,1-1.44.89,5,5,0,0,1-1.84.33h-6.33v-14h6a5,5,0,0,1,1.76.31,4.18,4.18,0,0,1,1.36.85,3.73,3.73,0,0,1,.89,1.23,3.49,3.49,0,0,1,.32,1.5,2.68,2.68,0,0,1-.26,1.22,3.45,3.45,0,0,1-.58.83A3.69,3.69,0,0,1,224.76,53.83Zm-5.45-1h2.45a1.54,1.54,0,0,0,1.11-.44,1.36,1.36,0,0,0,.44-1,1.4,1.4,0,0,0-.44-1,1.53,1.53,0,0,0-1.11-.43h-2.45Zm2.78,5.78a1.77,1.77,0,0,0,1.27-.5,1.61,1.61,0,0,0,.51-1.17,1.59,1.59,0,0,0-.51-1.17,1.77,1.77,0,0,0-1.27-.5h-2.78v3.34Z"/><path d="M242.09,54.27a7,7,0,0,1-.55,2.8,7.35,7.35,0,0,1-1.47,2.26,6.92,6.92,0,0,1-2.19,1.51,6.92,6.92,0,0,1-5.36,0,6.81,6.81,0,0,1-2.19-1.51,7.35,7.35,0,0,1-1.47-2.26,7.38,7.38,0,0,1,0-5.59,7.23,7.23,0,0,1,1.47-2.26,6.66,6.66,0,0,1,2.19-1.51,6.8,6.8,0,0,1,5.36,0,6.76,6.76,0,0,1,2.19,1.51,7.23,7.23,0,0,1,1.47,2.26A7.05,7.05,0,0,1,242.09,54.27Zm-3.22,0a4.38,4.38,0,0,0-.29-1.6,4,4,0,0,0-.79-1.26,3.5,3.5,0,0,0-1.17-.84,3.51,3.51,0,0,0-2.84,0,3.5,3.5,0,0,0-1.17.84,3.85,3.85,0,0,0-.79,1.26,4.56,4.56,0,0,0,0,3.2,4,4,0,0,0,.79,1.27,3.61,3.61,0,0,0,1.17.83,3.51,3.51,0,0,0,2.84,0,3.61,3.61,0,0,0,1.17-.83,4.2,4.2,0,0,0,.79-1.27A4.38,4.38,0,0,0,238.87,54.27Z"/><path d="M83.07,77.52H82V69.36h1Z"/><path d="M90.26,70.26H87.8v7.26h-1V70.26H84.3v-.9h6Z"/><path d="M94.47,73.7H90.91v-.84h3.56Z"/><path d="M101.92,69.36v8.16h-1V70.26h-3l-.38,4.86a3,3,0,0,1-.71,1.82,2,2,0,0,1-1.5.65h-.18l-.14,0-.13,0v-.84H95a1.39,1.39,0,0,0,1-.41,1.81,1.81,0,0,0,.46-1.15l.45-5.76Z"/><path d="M109,77.52V71.24l-4.08,6.28H104V69.36h1v6.28l4.09-6.28h.9v8.16Z"/><path d="M118.84,76.62v2.59h-1V77.52H112.1V69.36h1v7.26h3.76V69.36h1v7.26Z"/><path d="M125.45,76.62v.9h-5.32V69.36h5.19v.9h-4.15v2.6H125v.9h-3.82v2.86Z"/><path d="M127.71,77.52h-1.16l2.07-3.44a2.89,2.89,0,0,1-.91-.46,2.75,2.75,0,0,1-.62-.71,2.12,2.12,0,0,1-.28-1.16,2.26,2.26,0,0,1,.19-.92,2.39,2.39,0,0,1,.52-.76,2.64,2.64,0,0,1,.79-.52,2.38,2.38,0,0,1,1-.19h3v8.16h-1V74.15h-1.55Zm3.57-7.26h-2a1.31,1.31,0,0,0-.56.12,1.77,1.77,0,0,0-.46.31,1.57,1.57,0,0,0-.41,1.06,1.44,1.44,0,0,0,.11.59,1.35,1.35,0,0,0,.3.47,1.81,1.81,0,0,0,.46.32,1.47,1.47,0,0,0,.56.11h2Z"/><path d="M138.28,77.52h-1V69.36h1Zm0-4.14,3.17-4h1.23l-3.24,4,3.5,4.14h-1.23Z"/><path d="M143.13,73.31a3.05,3.05,0,0,1,.24-1.22,2.94,2.94,0,0,1,.7-1,3.54,3.54,0,0,1,1.14-.67,5.39,5.39,0,0,1,1.55-.31v-.77h1v.77a5.53,5.53,0,0,1,1.55.31,3.54,3.54,0,0,1,1.14.67,2.81,2.81,0,0,1,.7,1,3.2,3.2,0,0,1,0,2.43,2.75,2.75,0,0,1-.7,1,3.54,3.54,0,0,1-1.14.67,5.2,5.2,0,0,1-1.55.3v1.11h-1V76.48a5.08,5.08,0,0,1-1.55-.3,3.54,3.54,0,0,1-1.14-.67,2.88,2.88,0,0,1-.7-1A3,3,0,0,1,143.13,73.31ZM146.76,71a3.52,3.52,0,0,0-1.08.2,2.55,2.55,0,0,0-.82.49,2,2,0,0,0-.51.71,2.19,2.19,0,0,0,0,1.74,1.91,1.91,0,0,0,.51.7,2.55,2.55,0,0,0,.82.49,3.51,3.51,0,0,0,1.08.21Zm1,4.54a3.58,3.58,0,0,0,1.09-.21,2.67,2.67,0,0,0,.82-.49,2.17,2.17,0,0,0,.51-.7,2.12,2.12,0,0,0,.18-.87,2.05,2.05,0,0,0-.18-.87,2.21,2.21,0,0,0-.51-.71,2.67,2.67,0,0,0-.82-.49,3.59,3.59,0,0,0-1.09-.2Z"/><path d="M158.17,69.36l-2.86,6.48a4.32,4.32,0,0,1-.86,1.37,1.47,1.47,0,0,1-1.08.44,1.86,1.86,0,0,1-.48-.06l-.23-.07v-.84l.13,0,.14,0h.18a1,1,0,0,0,.66-.23,1.78,1.78,0,0,0,.44-.67l.26-.58-2.66-5.9H153L155.05,74l2-4.66Z"/></svg>