<svg xmlns="http://www.w3.org/2000/svg" viewBox="0 0 109.61 17.17"><defs><style>.a{fill:#0a85ed;fill-rule:evenodd;}</style></defs><path class="a" d="M0,.11c2.21,1.74,2.8,1.52,5.38,4.3s3.78,6,7.36,8.73c-1.48-.33-2-1.19-2.85-1.72-.66,2-2.73,4.75-4.07,5.37,1.26.89,6.52-1.17,8-2.16s3.22-.43,5.07-1.75C22.32,10.42,20.39,8,24.05,7.7c-1.75-1.6-2.28-1.37-2.91-1.88,2.29-3.06,5.17-3.94,7.77-5.69-4.48-.36-9.32.6-11.91,3-3.07,2.82-.8,4.55-.08,4.68,1.73.31,2.8-2.69,5.6-.57-1.75,1.55-1,1-2,2.93C18.12,15.09,15.73,8.1,14,5.63,10.9,1.35,5.51-.49,0,.11Z"/><path d="M36.19,16.9V15.38c-4.57-.38-7.28-2.53-7.28-6s2.71-5.6,7.28-6V1.82h3.2V3.36c4.57.41,7.28,2.53,7.28,6S44,15,39.39,15.38V16.9Zm0-4.39V6.23c-2.6.32-4,1.45-4,3.14S33.59,12.2,36.19,12.51Zm3.2-6.28v6.28c2.6-.29,4-1.42,4-3.14S42,6.55,39.39,6.23Z"/><path d="M49,16.9V1.82h7a4.71,4.71,0,0,1,5.07,4.86A4.73,4.73,0,0,1,56,11.54H52.16V16.9ZM57.79,6.68a2,2,0,0,0-2.21-2H52.16V8.72h3.42A2,2,0,0,0,57.79,6.68Z"/><path d="M63.06,16.9V1.82h3.2v9.74l7-9.74h3.3V16.9H73.34V6.8L66.15,16.9Z"/><path d="M79.53,16.9V1.82h3.21v9.74l7-9.74H93V16.9H89.81V6.8L82.63,16.9Z"/><path d="M95.28,9.37a7.65,7.65,0,0,1,8-7.79,6.91,6.91,0,0,1,6.31,3.68l-2.76,1.35a4.08,4.08,0,0,0-3.55-2.19,4.69,4.69,0,0,0-4.72,4.95,4.69,4.69,0,0,0,4.72,5,4,4,0,0,0,3.55-2.19l2.76,1.33a7,7,0,0,1-6.31,3.71A7.66,7.66,0,0,1,95.28,9.37Z"/></svg>