<svg xmlns="http://www.w3.org/2000/svg" viewBox="0 0 282.44 83.55"><defs><style>.a{fill:#0a85ed;fill-rule:evenodd;}</style></defs><path class="a" d="M0,.35C6.84,5.74,8.69,5.07,16.67,13.66c8.41,9.05,11.72,18.6,22.83,27.06-4.59-1-6-3.67-8.84-5.33C28.63,41.72,22.18,50.13,18,52c3.93,2.78,20.24-3.63,24.83-6.7,4.94-3.3,10-1.31,15.73-5.43,10.59-7.61,4.61-15.08,16-16-5.44-5-7.08-4.27-9-5.84C72.64,8.57,81.57,5.82,89.63.4,75.74-.72,60.74,2.25,52.71,9.63c-9.54,8.75-2.5,14.11-.24,14.52,5.34,1,8.66-8.34,17.35-1.77-5.41,4.79-3.23,3.15-6.14,9.08-7.5,15.31-14.9-6.35-20.4-14C33.78,4.19,17.08-1.53,0,.35Z"/><path d="M107.26,52.44V48.83c-10.89-.92-17.35-6-17.35-14.34s6.46-13.37,17.35-14.34V16.48h7.66v3.67c10.89,1,17.36,6,17.36,14.34s-6.47,13.42-17.36,14.34v3.61Zm0-10.46V27c-6.2.75-9.48,3.45-9.48,7.49S101.06,41.23,107.26,42Zm7.66-15V42c6.2-.7,9.54-3.39,9.54-7.49S121.12,27.75,114.92,27Z"/><path d="M137.73,52.44v-36h16.82c7.82,0,12.07,5.29,12.07,11.59s-4.31,11.59-12.07,11.59h-9.17V52.44Zm21.08-24.37c0-3-2.27-4.85-5.29-4.85h-8.14v9.71h8.14C156.54,32.93,158.81,31,158.81,28.07Z"/><path d="M171.37,52.44v-36H179V39.72l16.66-23.24h7.87v36H195.9V28.34l-17.14,24.1Z"/><path d="M210.68,52.44v-36h7.65V39.72L235,16.48h7.87v36h-7.65V28.34l-17.15,24.1Z"/><path d="M248.26,34.49c0-11,8.35-18.6,19.13-18.6a16.47,16.47,0,0,1,15.05,8.79l-6.58,3.23a9.76,9.76,0,0,0-8.47-5.23c-6.52,0-11.26,5-11.26,11.81s4.74,11.8,11.26,11.8a9.65,9.65,0,0,0,8.47-5.22l6.58,3.18c-2.59,4.47-7.12,8.84-15.05,8.84C256.61,53.09,248.26,45.54,248.26,34.49Z"/><path d="M93.65,68.92v-.68c-2-.14-3.25-1.23-3.25-2.81s1.22-2.67,3.25-2.8v-.71h.87v.71c2,.13,3.26,1.23,3.26,2.8s-1.25,2.67-3.26,2.81v.68Zm0-1.47V63.4c-1.49.13-2.35.91-2.35,2S92.16,67.32,93.65,67.45Zm.87-4.05v4.05c1.47-.13,2.35-.91,2.35-2S96,63.53,94.52,63.4Z"/><path d="M98.8,66.38A2.51,2.51,0,1,1,101.31,69,2.49,2.49,0,0,1,98.8,66.38Zm4.19,0a1.7,1.7,0,1,0-1.68,2A1.76,1.76,0,0,0,103,66.38Z"/><path d="M105.09,68.92V63.85h.79V66h2.64V63.85h.79v5.07h-.79V66.65h-2.64v2.27Z"/><path d="M110.28,68.27c.48-.09.77-.42,1-1.92l.32-2.5h3.53v4.37h.58v2h-.78V68.92h-3.83v1.29h-.79ZM112,66.44a2.53,2.53,0,0,1-.73,1.78h3V64.55h-2Z"/><path d="M120.25,68.15v2.7h-.78v-7h.78v.76a2.11,2.11,0,0,1,1.71-.88c1.33,0,2.26,1,2.26,2.65S123.29,69,122,69A2.07,2.07,0,0,1,120.25,68.15Zm3.14-1.77c0-1.12-.61-1.95-1.63-1.95a1.88,1.88,0,0,0-1.51.81v2.28a1.89,1.89,0,0,0,1.51.82C122.78,68.34,123.39,67.5,123.39,66.38Z"/><path d="M128.63,68.92v-.58A2.2,2.2,0,0,1,127,69a1.68,1.68,0,0,1-1.77-1.67A1.65,1.65,0,0,1,127,65.7a2.13,2.13,0,0,1,1.68.69v-.91c0-.68-.55-1.07-1.28-1.07a2,2,0,0,0-1.55.7l-.37-.54a2.65,2.65,0,0,1,2-.84c1.07,0,2,.48,2,1.71v3.48Zm0-1.07v-1a1.69,1.69,0,0,0-1.4-.63,1.12,1.12,0,1,0,0,2.22A1.69,1.69,0,0,0,128.63,67.85Z"/><path d="M130.5,68.21l.38-.5a2.73,2.73,0,0,0,1.9.68c.9,0,1.49-.34,1.49-.88s-.7-.84-1.59-.84h-1.14V66h1.14c.83,0,1.5-.27,1.5-.85s-.64-.8-1.48-.8A2.24,2.24,0,0,0,131,65l-.41-.48a2.76,2.76,0,0,1,2.08-.81c1.36,0,2.32.49,2.32,1.35s-.76,1.16-1.36,1.24c.59,0,1.47.4,1.47,1.23S134.24,69,132.78,69A3.08,3.08,0,0,1,130.5,68.21Z"/><path d="M136.38,68.92V63.85h2.79a1.28,1.28,0,0,1,1.42,1.3,1.19,1.19,0,0,1-.82,1.16,1.28,1.28,0,0,1,.93,1.23,1.34,1.34,0,0,1-1.48,1.38Zm3.4-3.65a.68.68,0,0,0-.75-.72h-1.87V66H139A.68.68,0,0,0,139.78,65.27Zm.1,2.18a.77.77,0,0,0-.82-.79h-1.9v1.56h1.9A.74.74,0,0,0,139.88,67.45Z"/><path d="M142.18,68.92V63.85H143v3.87l2.65-3.87h.78v5.07h-.79V65l-2.67,3.94Z"/><path d="M148.89,68.92V64.55h-1.46v-.7h3.73v.7h-1.48v4.37Z"/><path d="M152.19,68.92V63.85H153v3.87l2.65-3.87h.78v5.07h-.79V65l-2.67,3.94Z"/><path d="M157.81,68.92l1.35-2a1.44,1.44,0,0,1-1.3-1.52,1.49,1.49,0,0,1,1.6-1.55h2.67v5.07h-.78V67H160l-1.23,2Zm3.54-2.66V64.55h-1.8a.86.86,0,1,0,0,1.71Z"/><path d="M166.41,68.92V63.85h.79v3.87l2.65-3.87h.78v5.07h-.79V65l-2.67,3.94Z"/><path d="M172.2,68.92V63.85H173V66h2.64V63.85h.78v5.07h-.78V66.65H173v2.27Z"/><path d="M181,64.62v-2.7h.79v2.69a1.61,1.61,0,0,1,1.37-.88c1.07,0,1.83,1,1.83,2.65S184.22,69,183.15,69a1.6,1.6,0,0,1-1.37-.89v2.7H181V68.16a1.61,1.61,0,0,1-1.38.88c-1.07,0-1.82-1-1.82-2.65s.75-2.66,1.82-2.66A1.6,1.6,0,0,1,181,64.62Zm-2.41,1.77c0,1.12.46,2,1.25,2a1.38,1.38,0,0,0,1.16-.81V65.25a1.39,1.39,0,0,0-1.16-.82C179,64.43,178.58,65.27,178.58,66.39Zm5.6,0c0-1.12-.46-1.95-1.25-1.95a1.39,1.39,0,0,0-1.15.81v2.28a1.4,1.4,0,0,0,1.15.82C183.72,68.34,184.18,67.5,184.18,66.38Z"/><path d="M186.06,66.38a2.51,2.51,0,1,1,2.5,2.66A2.48,2.48,0,0,1,186.06,66.38Zm4.18,0a1.7,1.7,0,1,0-1.68,2A1.76,1.76,0,0,0,190.24,66.38Z"/><path d="M193.13,68.15v2.7h-.78v-7h.78v.76a2.11,2.11,0,0,1,1.71-.88c1.33,0,2.26,1,2.26,2.65S196.17,69,194.84,69A2.07,2.07,0,0,1,193.13,68.15Zm3.14-1.77c0-1.12-.61-1.95-1.63-1.95a1.9,1.9,0,0,0-1.51.81v2.28a1.91,1.91,0,0,0,1.51.82C195.66,68.34,196.27,67.5,196.27,66.38Z"/><path d="M202.73,68.92v-4l-1.65,4h-.29l-1.66-4v4h-.78V63.85h1l1.55,3.76,1.53-3.76h1v5.07Z"/><path d="M208.25,68.92v-.58a2.19,2.19,0,0,1-1.68.7,1.68,1.68,0,0,1-1.77-1.67,1.65,1.65,0,0,1,1.77-1.67,2.12,2.12,0,0,1,1.68.69v-.91c0-.68-.54-1.07-1.28-1.07a2,2,0,0,0-1.55.7l-.37-.54a2.66,2.66,0,0,1,2-.84c1.07,0,2,.48,2,1.71v3.48Zm0-1.07v-1a1.69,1.69,0,0,0-1.39-.63,1.12,1.12,0,1,0,0,2.22A1.69,1.69,0,0,0,208.25,67.85Z"/><path d="M214.63,68.92h-4V63.85h.79v4.37H214V63.85h.79v4.37h.58v2h-.78Z"/><path d="M216.49,68.92V63.85h.79v3.87l2.65-3.87h.78v5.07h-.79V65l-2.67,3.94Z"/><path d="M222,66.38a2.51,2.51,0,1,1,2.5,2.66A2.48,2.48,0,0,1,222,66.38Zm4.18,0a1.7,1.7,0,1,0-1.68,2A1.76,1.76,0,0,0,226.17,66.38Z"/><path d="M228.28,68.92V63.85h.78V66h2.64V63.85h.79v5.07h-.79V66.65h-2.64v2.27Z"/><path d="M234.06,68.92V63.85h.79V66h2.64V63.85h.79v5.07h-.79V66.65h-2.64v2.27Z"/><path d="M240.64,63.85v2h1.89a1.56,1.56,0,1,1,0,3.11h-2.68V63.85Zm0,2.66v1.71h1.81a.86.86,0,1,0,0-1.71ZM245,68.92V63.85h.79v5.07Z"/><path d="M250.6,68.92l-1.52-2.08-1.52,2.08h-.91l1.94-2.6-1.83-2.47h.91l1.41,1.93,1.4-1.93h.91l-1.83,2.47,1.95,2.6Z"/><path d="M90.65,81.5V76.43h.78V80.3l2.66-3.87h.77V81.5h-.78v-4l-2.68,4Z"/><path d="M99.14,81.5V76.43h.79V80.3l2.65-3.87h.77V81.5h-.78v-4l-2.68,4Z"/><path d="M104.93,81.5V76.43h.78v2.11h2.64V76.43h.79V81.5h-.79V79.23h-2.64V81.5Z"/><path d="M111.64,81.5V77.12h-1.47v-.69h3.73v.69h-1.48V81.5Z"/><path d="M114.63,79a2.53,2.53,0,0,1,2.5-2.65A2.45,2.45,0,0,1,119.56,79v.2h-4.1A1.8,1.8,0,0,0,117.29,81a2.22,2.22,0,0,0,1.56-.64l.38.52a2.78,2.78,0,0,1-2,.77A2.51,2.51,0,0,1,114.63,79Zm2.49-2a1.69,1.69,0,0,0-1.66,1.68h3.33A1.65,1.65,0,0,0,117.12,77Z"/><path d="M120.23,81c.47,0,.77-.54,1-2l.32-2.5H125V81.5h-.78V77.12h-2.05L122,79c-.23,1.89-.77,2.6-1.75,2.6Z"/><path d="M126,81c.47,0,.77-.54,1-2l.33-2.5h3.52V81.5H130V77.12h-2l-.23,1.9c-.23,1.89-.78,2.6-1.75,2.6Z"/><path d="M132.11,79a2.53,2.53,0,0,1,2.5-2.65A2.45,2.45,0,0,1,137,79v.2h-4.1A1.78,1.78,0,0,0,134.76,81a2.18,2.18,0,0,0,1.56-.64l.38.52a2.74,2.74,0,0,1-2,.77A2.51,2.51,0,0,1,132.11,79Zm2.49-2a1.69,1.69,0,0,0-1.66,1.68h3.32A1.63,1.63,0,0,0,134.6,77Z"/><path d="M141.76,81.5l-1.83-2.28-.84.83V81.5h-.78V76.43h.78v2.7l2.67-2.7h1l-2.24,2.3,2.25,2.77Z"/><path d="M144.62,81.5V77.12h-1.47v-.69h3.73v.69H145.4V81.5Z"/><path d="M147.75,82.76a1.11,1.11,0,0,0,.43.09.74.74,0,0,0,.76-.54l.33-.76-2.12-5.12H148l1.69,4.15,1.68-4.15h.86l-2.54,6.09a1.5,1.5,0,0,1-1.49,1,2.62,2.62,0,0,1-.57-.07Z"/><path d="M156.21,81.5v-.58a2.18,2.18,0,0,1-1.67.7,1.7,1.7,0,0,1-1.78-1.68,1.66,1.66,0,0,1,1.78-1.66,2.11,2.11,0,0,1,1.67.69v-.91c0-.68-.54-1.07-1.28-1.07a2,2,0,0,0-1.55.7l-.36-.54a2.62,2.62,0,0,1,2-.84c1.07,0,2,.48,2,1.71V81.5Zm0-1.07v-1a1.69,1.69,0,0,0-1.39-.63,1.12,1.12,0,1,0,0,2.22A1.69,1.69,0,0,0,156.21,80.43Z"/><path d="M158,81c.48,0,.77-.54,1-2l.32-2.5h3.53V81.5H162V77.12H160l-.23,1.9c-.23,1.89-.77,2.6-1.75,2.6Z"/><path d="M165.14,76.43v2H167a1.56,1.56,0,1,1,0,3.11h-2.68V76.43Zm0,2.65V80.8H167a.86.86,0,1,0,0-1.72Z"/><path d="M169.83,81.5V76.43h.79v2.11h2.64V76.43h.79V81.5h-.79V79.23h-2.64V81.5Z"/><path d="M176.4,76.43v2h1.9a1.56,1.56,0,1,1,0,3.11h-2.68V76.43Zm0,2.65V80.8h1.82a.86.86,0,1,0,0-1.72Zm4.32,2.42V76.43h.79V81.5Z"/><path d="M186.36,81.5l-1.52-2.08-1.52,2.08h-.9l1.94-2.6-1.83-2.47h.91l1.4,1.93,1.41-1.93h.91l-1.83,2.47,1.95,2.6Z"/><path d="M190.59,79a2.5,2.5,0,0,1,2.53-2.65,2.15,2.15,0,0,1,1.85.88l-.52.48a1.52,1.52,0,0,0-1.29-.66,2,2,0,0,0,0,3.91,1.54,1.54,0,0,0,1.29-.66l.52.48a2.17,2.17,0,0,1-1.85.88A2.5,2.5,0,0,1,190.59,79Z"/><path d="M196.07,81.5V76.43h.79V80.3l2.65-3.87h.78V81.5h-.79v-4l-2.67,4Z"/><path d="M201.57,79a2.49,2.49,0,0,1,2.52-2.65,2.16,2.16,0,0,1,1.86.88l-.53.48a1.49,1.49,0,0,0-1.29-.66,2,2,0,0,0,0,3.91,1.52,1.52,0,0,0,1.29-.66l.53.48a2.19,2.19,0,0,1-1.86.88A2.5,2.5,0,0,1,201.57,79Z"/><path d="M208,81.5V77.12H206.5v-.69h3.74v.69h-1.48V81.5Z"/><path d="M211,79a2.53,2.53,0,0,1,2.49-2.65A2.46,2.46,0,0,1,215.9,79v.2h-4.1A1.78,1.78,0,0,0,213.62,81a2.18,2.18,0,0,0,1.56-.64l.38.52a2.74,2.74,0,0,1-2,.77A2.51,2.51,0,0,1,211,79Zm2.48-2a1.68,1.68,0,0,0-1.65,1.68h3.32A1.64,1.64,0,0,0,213.45,77Z"/><path d="M221.55,81.5v-4l-1.65,4h-.29l-1.66-4v4h-.79V76.43h1l1.55,3.76,1.53-3.76h1.05V81.5Z"/></svg>