<svg xmlns="http://www.w3.org/2000/svg" viewBox="0 0 276 132.75"><defs><style>.a{fill:#5251a1;}.b{fill:#ea2f49;}</style></defs><path class="a" d="M50.07,132.75,37.69,97.14,0,96.37,30,73.6,19.13,37.51,50.07,59,81,37.51,70.1,73.6l30.05,22.77-37.7.77ZM19.19,90.14l23.25.47,7.63,22,7.64-22L81,90.14l-18.52-14,6.73-22.25L50.07,67.12,31,53.84l6.73,22.25Z"/><path class="b" d="M105.26,92.21,98.47,72.66l-20.7-.42,16.5-12.51-6-19.81,17,11.82,17-11.82-6,19.81,16.5,12.51-20.7.42Zm-17-23.4,12.76.26,4.19,12.06,4.2-12.06,12.76-.26L112.05,61.1l3.69-12.22-10.48,7.29L94.79,48.88,98.48,61.1Z"/><path class="b" d="M50.07,52.3,43.28,32.74l-20.7-.42,16.5-12.51L33.08,0l17,11.82L67.07,0l-6,19.81,16.5,12.51-20.7.42Zm-17-23.4,12.76.26,4.19,12.06,4.2-12.06L67,28.9,56.86,21.18,60.55,9,50.07,16.26,39.6,9l3.69,12.21Z"/><path d="M170.7,66.13h-6.29V49.6H158.3V43.49h18.51V49.6H170.7Z"/><path d="M186.87,49.24a5.31,5.31,0,0,1,.72,0,4.91,4.91,0,0,1,.57.13l.51.18v5.93l-.58-.18c-.19-.05-.4-.09-.64-.13a6.19,6.19,0,0,0-.76,0,2.75,2.75,0,0,0-2.05.86,3.3,3.3,0,0,0-.82,2.37v7.73h-5.75V49.6h4.13l.9,1.62a5.47,5.47,0,0,1,1-1,6.12,6.12,0,0,1,1.19-.7A3.87,3.87,0,0,1,186.87,49.24Z"/><path d="M190.82,45.11a2.76,2.76,0,0,1,.85-2,3.36,3.36,0,0,1,4.42,0,2.91,2.91,0,0,1,0,4.09,3.36,3.36,0,0,1-4.42,0A2.75,2.75,0,0,1,190.82,45.11ZM191,49.6h5.75V66.13H191Z"/><path d="M199.45,49.78a6.07,6.07,0,0,1,.56-2.55,6,6,0,0,1,1.61-2.12,8.18,8.18,0,0,1,2.61-1.44,10.52,10.52,0,0,1,3.49-.54,10.73,10.73,0,0,1,3.64.59,8.68,8.68,0,0,1,2.79,1.62,7,7,0,0,1,1.76,2.41,7.12,7.12,0,0,1,.61,2.93l-6.11.54a2.17,2.17,0,0,0-.7-1.71,2.37,2.37,0,0,0-1.63-.63,1.87,1.87,0,0,0-1.32.45,1.34,1.34,0,0,0-.48,1,1.17,1.17,0,0,0,.79,1.06,15,15,0,0,0,2,.73l2.55.81a9.78,9.78,0,0,1,2.55,1.26,7.06,7.06,0,0,1,2,2.07,6.5,6.5,0,0,1,.18,5.86,6.66,6.66,0,0,1-1.76,2.22,9.17,9.17,0,0,1-2.79,1.57,10.73,10.73,0,0,1-3.64.59,11.32,11.32,0,0,1-3.76-.59,8.19,8.19,0,0,1-2.82-1.66,7.33,7.33,0,0,1-2.41-5.48l6.11-.54a2.46,2.46,0,0,0,2.52,2.52,2.51,2.51,0,0,0,1.78-.54,1.53,1.53,0,0,0,.55-1.08,1.21,1.21,0,0,0-.79-1.08,14.6,14.6,0,0,0-2-.77c-.78-.25-1.63-.54-2.55-.86a10.91,10.91,0,0,1-2.55-1.29,7,7,0,0,1-2-2.09A6,6,0,0,1,199.45,49.78Z"/><path d="M221,54.81h-2.33V50h1.08a1.75,1.75,0,0,0,2-2V45.64h5v4h3.41v5.21h-3.41v3.95a2.45,2.45,0,0,0,.57,1.71,1.82,1.82,0,0,0,1.4.63l.5,0,.4,0a2.47,2.47,0,0,0,.36-.11v5l-.83.29a8.62,8.62,0,0,1-.86.18,6.41,6.41,0,0,1-1,.07,6.24,6.24,0,0,1-4.63-1.67A6.55,6.55,0,0,1,221,60Z"/><path d="M240.42,49.24a8.41,8.41,0,0,1,3,.5,6.28,6.28,0,0,1,3.72,3.6,7,7,0,0,1,.52,2.73V66.13h-4.13a4,4,0,0,1-.36-.61l-.29-.52c-.09-.18-.18-.34-.25-.49a8.16,8.16,0,0,1-1.4,1,7.21,7.21,0,0,1-1.55.68,6.24,6.24,0,0,1-1.9.29,6.45,6.45,0,0,1-2.32-.38,5.2,5.2,0,0,1-1.74-1,4.84,4.84,0,0,1-1.12-1.54,4.63,4.63,0,0,1-.39-1.89,4.45,4.45,0,0,1,2.15-3.92,9.76,9.76,0,0,1,3-1.2,19.62,19.62,0,0,1,4.55-.45,2.13,2.13,0,0,0-.47-1.46,1.5,1.5,0,0,0-1.15-.52,1.8,1.8,0,0,0-.89.2,1.54,1.54,0,0,0-.54.45,1.67,1.67,0,0,0-.36.61l-5.57-.54A6.36,6.36,0,0,1,234.1,52a7,7,0,0,1,1-1,6.07,6.07,0,0,1,1.33-.9,8.26,8.26,0,0,1,1.76-.63A10.33,10.33,0,0,1,240.42,49.24Zm-.89,12.94a2.21,2.21,0,0,0,1.63-.72,2.47,2.47,0,0,0,.7-1.8v-.54a12,12,0,0,0-2,.13,3.71,3.71,0,0,0-1.21.36,1.31,1.31,0,0,0-.59.57,1.7,1.7,0,0,0-.16.74,1.17,1.17,0,0,0,.39.9A1.79,1.79,0,0,0,239.53,62.18Z"/><path d="M259.47,49.24a5.31,5.31,0,0,1,.72,0,5.68,5.68,0,0,1,.58.13l.5.18v5.93l-.58-.18c-.19-.05-.4-.09-.64-.13a6.06,6.06,0,0,0-.76,0,2.75,2.75,0,0,0-2.05.86,3.3,3.3,0,0,0-.82,2.37v7.73h-5.75V49.6h4.13l.9,1.62a5.47,5.47,0,0,1,1-1,6.12,6.12,0,0,1,1.19-.7A3.91,3.91,0,0,1,259.47,49.24Z"/><path d="M159.73,76.49h16.9v5.57H166v2.87h9.7v5.4H166v3.23h11v5.57H159.73Z"/><path d="M184.36,93.56a2.19,2.19,0,0,0,.35.72,1.54,1.54,0,0,0,.54.5,1.67,1.67,0,0,0,.9.22,1.87,1.87,0,0,0,1.22-.34,1,1,0,0,0,.4-.74c0-.24-.21-.44-.63-.59s-.94-.32-1.56-.49-1.3-.37-2-.61a9.21,9.21,0,0,1-2-1A5.38,5.38,0,0,1,180,89.77a4,4,0,0,1-.63-2.32,4.3,4.3,0,0,1,.47-1.94,5.25,5.25,0,0,1,1.33-1.67,6.45,6.45,0,0,1,2.14-1.17,8.91,8.91,0,0,1,2.89-.43,8.08,8.08,0,0,1,5.25,1.45,6.77,6.77,0,0,1,2.3,3.76l-5.39.54a2.63,2.63,0,0,0-.29-.61,1.73,1.73,0,0,0-.48-.45,1.59,1.59,0,0,0-.85-.2q-1.26,0-1.26.9,0,.36.63.57c.42.15.94.3,1.57.47s1.3.36,2,.58a7.79,7.79,0,0,1,2,.93,5.48,5.48,0,0,1,1.56,1.55,4.14,4.14,0,0,1,.63,2.37,4.7,4.7,0,0,1-.47,2.05A5.1,5.1,0,0,1,192,97.87a6.69,6.69,0,0,1-2.25,1.19,9.94,9.94,0,0,1-3.09.43A8.38,8.38,0,0,1,181.28,98,6.86,6.86,0,0,1,179,94.1Z"/><path d="M206.1,82.24a6.36,6.36,0,0,1,2.77.66,8.1,8.1,0,0,1,2.42,1.84A9.28,9.28,0,0,1,213,87.47a9.19,9.19,0,0,1,0,6.79A9.28,9.28,0,0,1,211.29,97a8.1,8.1,0,0,1-2.42,1.84,6.36,6.36,0,0,1-2.77.66,6.57,6.57,0,0,1-1.71-.21,7.17,7.17,0,0,1-1.31-.51,5.06,5.06,0,0,1-1.11-.72v6.83h-5.76V82.6h4.14l.9,1.62a6.84,6.84,0,0,1,1.33-1,8.23,8.23,0,0,1,1.54-.7A6.23,6.23,0,0,1,206.1,82.24Zm-4.31,8.63a3.13,3.13,0,0,0,.91,2.29,2.91,2.91,0,0,0,4.28,0,3.14,3.14,0,0,0,.92-2.29,3.18,3.18,0,0,0-.92-2.31,2.93,2.93,0,0,0-4.28,0A3.18,3.18,0,0,0,201.79,90.87Z"/><path d="M233.05,90.87a8.61,8.61,0,0,1-.66,3.39A8.4,8.4,0,0,1,230.54,97a8.73,8.73,0,0,1-2.81,1.84,9.58,9.58,0,0,1-7,0A8.81,8.81,0,0,1,218,97a8.64,8.64,0,0,1,0-12.25,8.81,8.81,0,0,1,2.78-1.84,9.58,9.58,0,0,1,7,0,8.73,8.73,0,0,1,2.81,1.84,8.4,8.4,0,0,1,1.85,2.73A8.62,8.62,0,0,1,233.05,90.87Zm-11.86,0a3.14,3.14,0,0,0,.92,2.29,2.91,2.91,0,0,0,4.28,0,3.13,3.13,0,0,0,.91-2.29,3.18,3.18,0,0,0-.91-2.31,2.93,2.93,0,0,0-4.28,0A3.18,3.18,0,0,0,221.19,90.87Z"/><path d="M244.38,82.24a5,5,0,0,1,.71.05,5.68,5.68,0,0,1,.58.13l.5.18v5.93l-.57-.18c-.19,0-.41-.09-.65-.13a6,6,0,0,0-.75,0,2.73,2.73,0,0,0-2,.86,3.31,3.31,0,0,0-.83,2.37v7.73h-5.75V82.6h4.13l.9,1.62a5.53,5.53,0,0,1,1-1,6,6,0,0,1,1.18-.7A4,4,0,0,1,244.38,82.24Z"/><path d="M250,87.81h-2.34V83h1.08a1.74,1.74,0,0,0,2-2V78.64h5v4h3.41v5.21H255.7v4a2.45,2.45,0,0,0,.57,1.71,1.82,1.82,0,0,0,1.4.63l.51,0,.39,0a2.47,2.47,0,0,0,.36-.11v5l-.82.29q-.41.11-.87.18a7.26,7.26,0,0,1-5.64-1.6A6.55,6.55,0,0,1,250,93Z"/><path d="M266.48,93.56a2,2,0,0,0,.36.72,1.54,1.54,0,0,0,.54.5,1.67,1.67,0,0,0,.9.22,1.89,1.89,0,0,0,1.22-.34,1,1,0,0,0,.39-.74c0-.24-.21-.44-.62-.59s-.95-.32-1.57-.49-1.3-.37-2-.61a9.21,9.21,0,0,1-2-1,5.47,5.47,0,0,1-1.56-1.51,4,4,0,0,1-.63-2.32,4.17,4.17,0,0,1,.47-1.94,5.36,5.36,0,0,1,1.32-1.67,6.55,6.55,0,0,1,2.14-1.17,9,9,0,0,1,2.9-.43,8.07,8.07,0,0,1,5.24,1.45,6.66,6.66,0,0,1,2.3,3.76l-5.39.54a2.6,2.6,0,0,0-.28-.61,1.78,1.78,0,0,0-.49-.45,1.53,1.53,0,0,0-.84-.2q-1.26,0-1.26.9,0,.36.63.57c.42.15.94.3,1.56.47s1.3.36,2,.58a7.64,7.64,0,0,1,2,.93,5.52,5.52,0,0,1,1.57,1.55A4.22,4.22,0,0,1,276,94.1a4.69,4.69,0,0,1-.46,2.05,5.13,5.13,0,0,1-1.39,1.72,6.73,6.73,0,0,1-2.24,1.19,10,10,0,0,1-3.09.43c-2.42,0-4.23-.49-5.41-1.47a6.81,6.81,0,0,1-2.32-3.92Z"/></svg>