<svg xmlns="http://www.w3.org/2000/svg" viewBox="0 0 276.11 93.84"><defs><style>.ae0724fa-3007-4633-a72a-2f39d1eb7b43{fill:#bf2c19;}.acdf9dda-5308-454e-b27a-dabb7b50a400{fill:#1d1d1b;}</style></defs><g id="b4ab307d-2ca2-4c89-9947-ee3fbb3c34a9" data-name="Слой 2"><g id="a28b3b08-b008-49b9-96b5-d5180178ff45" data-name="Слой 1"><polygon class="ae0724fa-3007-4633-a72a-2f39d1eb7b43" points="0 77.34 10.38 0 195.04 16 198.21 24.01 195.31 25.15 192.85 18.93 13.06 3.36 3.59 73.96 36.5 71.62 36.72 74.73 0 77.34"/><path class="acdf9dda-5308-454e-b27a-dabb7b50a400" d="M74.22,36.92l-.93,6.41H59.92v9.1H71.59v6.3H59.92v9.69h14.3v6.47H50.94v-38Z"/><path class="acdf9dda-5308-454e-b27a-dabb7b50a400" d="M105.72,36.92l-.87,6.91H95.48V74.89h-9V43.83h-9.8V36.92Z"/><path class="acdf9dda-5308-454e-b27a-dabb7b50a400" d="M138.43,62.29a14.38,14.38,0,0,1-1.67,7,11.79,11.79,0,0,1-5,4.82,17.4,17.4,0,0,1-8.17,1.75q-7.23,0-11-3.67a13.11,13.11,0,0,1-3.78-9.86V36.92h9v25q0,3.66,1.39,5.45a5.29,5.29,0,0,0,4.41,1.78,5.35,5.35,0,0,0,4.47-1.78,8.8,8.8,0,0,0,1.4-5.45v-25h9Z"/><path class="ae0724fa-3007-4633-a72a-2f39d1eb7b43" d="M164.32,37.2A16.8,16.8,0,0,1,170,40.87l-4.16,4.87a13,13,0,0,0-8.33-3.17,6.44,6.44,0,0,0-3.72,1,3.17,3.17,0,0,0-1.37,2.77,3.28,3.28,0,0,0,.6,2.05,5.42,5.42,0,0,0,2.14,1.51,41.58,41.58,0,0,0,4.6,1.7q5.8,1.86,8.54,4.57t2.74,7.7a11.09,11.09,0,0,1-1.8,6.28,11.83,11.83,0,0,1-5.21,4.21,19.64,19.64,0,0,1-8,1.51,21.42,21.42,0,0,1-8.25-1.48,19.49,19.49,0,0,1-6.16-3.94l4.55-5a16.59,16.59,0,0,0,4.52,2.8,13.51,13.51,0,0,0,5.06.93,7,7,0,0,0,4.41-1.24,4.05,4.05,0,0,0,1.62-3.42,4.4,4.4,0,0,0-.6-2.38,5.29,5.29,0,0,0-2.08-1.73,28,28,0,0,0-4.28-1.64q-6.3-1.92-9-4.71A9.86,9.86,0,0,1,143.2,47,9.78,9.78,0,0,1,145,41.17a11.23,11.23,0,0,1,4.88-3.84A17.78,17.78,0,0,1,156.89,36,20.63,20.63,0,0,1,164.32,37.2Z"/><path class="ae0724fa-3007-4633-a72a-2f39d1eb7b43" d="M184.51,33.31V74.89h-8.66V34.24Zm18,12.49-8.82,12.76,9.53,16.33h-9.75L184.78,59l8.88-13.2Z"/><path class="ae0724fa-3007-4633-a72a-2f39d1eb7b43" d="M214.06,31.85a5,5,0,0,1,0,7.07,5.13,5.13,0,0,1-3.7,1.4,5,5,0,0,1-3.67-1.4,5.11,5.11,0,0,1,0-7.07,5,5,0,0,1,3.67-1.39A5.12,5.12,0,0,1,214.06,31.85Zm.69,13.95V74.89h-8.66V45.8Z"/><path class="ae0724fa-3007-4633-a72a-2f39d1eb7b43" d="M223.38,73.66a8.47,8.47,0,0,1-2.11-6.17V34.24l8.65-.93V67.16c0,1.21.5,1.81,1.48,1.81a3.75,3.75,0,0,0,1.43-.27l1.7,6.13a13.51,13.51,0,0,1-5.26,1A7.85,7.85,0,0,1,223.38,73.66Z"/><path class="ae0724fa-3007-4633-a72a-2f39d1eb7b43" d="M239.65,73.66a8.47,8.47,0,0,1-2.11-6.17V34.24l8.65-.93V67.16c0,1.21.5,1.81,1.48,1.81a3.72,3.72,0,0,0,1.43-.27l1.7,6.13a13.47,13.47,0,0,1-5.26,1A7.85,7.85,0,0,1,239.65,73.66Z"/><path class="ae0724fa-3007-4633-a72a-2f39d1eb7b43" d="M270.19,45.8A15.38,15.38,0,0,1,275,48.43l-3.17,4.87a13.42,13.42,0,0,0-7.18-2.24,4.89,4.89,0,0,0-2.6.57,1.81,1.81,0,0,0-.91,1.62,2.12,2.12,0,0,0,.41,1.34,4.5,4.5,0,0,0,1.67,1.07A36.86,36.86,0,0,0,267.12,57a16.38,16.38,0,0,1,6.77,3.43,7.65,7.65,0,0,1,2.22,5.83,8.08,8.08,0,0,1-1.7,5.13,10.67,10.67,0,0,1-4.66,3.31,17.91,17.91,0,0,1-6.57,1.15,19.65,19.65,0,0,1-6.82-1.15A15.73,15.73,0,0,1,251,71.49l4.21-4.71A12.44,12.44,0,0,0,263,69.63a5.77,5.77,0,0,0,3.09-.71,2.28,2.28,0,0,0,1.13-2,2.75,2.75,0,0,0-.44-1.64,4,4,0,0,0-1.7-1.13,40.75,40.75,0,0,0-4-1.28,14.22,14.22,0,0,1-6.46-3.51,7.78,7.78,0,0,1-2.14-5.59,7.5,7.5,0,0,1,1.45-4.52A9.92,9.92,0,0,1,258.06,46a15.66,15.66,0,0,1,6.27-1.17A18.13,18.13,0,0,1,270.19,45.8Z"/><path class="acdf9dda-5308-454e-b27a-dabb7b50a400" d="M58.51,90.13A3.89,3.89,0,0,1,55.9,91v.86h-1V91a4,4,0,0,1-2.65-.92,3.65,3.65,0,0,1,0-4.86,3.92,3.92,0,0,1,2.62-.88v-.77h1v.77a4,4,0,0,1,2.64.92,3.65,3.65,0,0,1,0,4.86ZM53,89.57a2.76,2.76,0,0,0,1.88.67V85.11a2.83,2.83,0,0,0-1.89.68,2.58,2.58,0,0,0-.61,1.9A2.52,2.52,0,0,0,53,89.57Zm4.74,0a2.62,2.62,0,0,0,.6-1.9,2.52,2.52,0,0,0-.62-1.88,2.76,2.76,0,0,0-1.88-.67v5.13A2.88,2.88,0,0,0,57.77,89.57Z"/><path class="acdf9dda-5308-454e-b27a-dabb7b50a400" d="M65.27,89H61.59a2.23,2.23,0,0,0,.48,1.41,1.41,1.41,0,0,0,1.08.45,2.33,2.33,0,0,0,.76-.12,3,3,0,0,0,.74-.39l.44.61a3.22,3.22,0,0,1-2,.72,2.32,2.32,0,0,1-1.88-.79,3.24,3.24,0,0,1-.68-2.17,4.23,4.23,0,0,1,.29-1.6A2.58,2.58,0,0,1,61.64,86a2.38,2.38,0,0,1,3,.36,3.26,3.26,0,0,1,.62,2.1A4.36,4.36,0,0,1,65.27,89Zm-1-.81a2.17,2.17,0,0,0-.34-1.3,1.21,1.21,0,0,0-1-.45c-.83,0-1.28.6-1.35,1.82H64.3Z"/><path class="acdf9dda-5308-454e-b27a-dabb7b50a400" d="M70,85.74a2.67,2.67,0,0,1,.82.48l-.48.64a2.59,2.59,0,0,0-.6-.33,1.87,1.87,0,0,0-.64-.1A1.26,1.26,0,0,0,68,87a2.89,2.89,0,0,0-.39,1.66A2.67,2.67,0,0,0,68,90.26a1.28,1.28,0,0,0,1.1.52,1.79,1.79,0,0,0,.62-.1,3.27,3.27,0,0,0,.64-.33l.46.65a2.74,2.74,0,0,1-1.77.64,2.28,2.28,0,0,1-1.84-.79,3.25,3.25,0,0,1-.68-2.18,3.82,3.82,0,0,1,.31-1.61A2.41,2.41,0,0,1,67.67,86,2.29,2.29,0,0,1,69,85.6,3.16,3.16,0,0,1,70,85.74Z"/><path class="acdf9dda-5308-454e-b27a-dabb7b50a400" d="M76.06,85.73l-.12.82H74.08v5h-1v-5H71.16v-.82Z"/><path class="acdf9dda-5308-454e-b27a-dabb7b50a400" d="M81.6,91.51h-1V88.9c0-.44,0-.86,0-1.25s.06-.66.08-.78l-2.43,4.64H77.1V85.73h1v2.61c0,.39,0,.79,0,1.2s0,.68-.06.79l2.39-4.6H81.6Z"/><path class="acdf9dda-5308-454e-b27a-dabb7b50a400" d="M88.2,89.73a1.46,1.46,0,0,1-.67,1.34,3.18,3.18,0,0,1-1.77.44H83.68V85.8a10.16,10.16,0,0,1,1.9-.2,3.12,3.12,0,0,1,1.7.4,1.32,1.32,0,0,1,.62,1.16,1.16,1.16,0,0,1-.29.81,1.54,1.54,0,0,1-.88.4C87.71,88.47,88.2,88.92,88.2,89.73Zm-3.51-3.29v1.63h1.08a1.44,1.44,0,0,0,.82-.19.76.76,0,0,0,.28-.67.69.69,0,0,0-.32-.64,1.86,1.86,0,0,0-1-.2A6.56,6.56,0,0,0,84.69,86.44Zm2.08,4.06a.85.85,0,0,0,.36-.79.76.76,0,0,0-.3-.68,1.93,1.93,0,0,0-1-.21h-1.1v1.9h1.07A1.92,1.92,0,0,0,86.77,90.5Z"/><path class="acdf9dda-5308-454e-b27a-dabb7b50a400" d="M93.77,90.68a.77.77,0,0,0,.36.26l-.23.7a1.57,1.57,0,0,1-.72-.25,1.19,1.19,0,0,1-.41-.62,1.94,1.94,0,0,1-1.72.87,1.86,1.86,0,0,1-1.35-.48,1.86,1.86,0,0,1,.17-2.68A3.09,3.09,0,0,1,91.75,88h.89v-.43a1.13,1.13,0,0,0-.3-.88,1.35,1.35,0,0,0-.91-.26,4.91,4.91,0,0,0-1.55.31L89.62,86a5.94,5.94,0,0,1,2-.39,2.08,2.08,0,0,1,1.53.5,1.92,1.92,0,0,1,.5,1.42v2.64A.91.91,0,0,0,93.77,90.68ZM92.64,90V88.66h-.76c-1.06,0-1.6.39-1.6,1.18a1.14,1.14,0,0,0,.25.78,1,1,0,0,0,.75.26A1.5,1.5,0,0,0,92.64,90Z"/><path class="acdf9dda-5308-454e-b27a-dabb7b50a400" d="M100,85.73v5.78H99v-5H97.16L97,88.48a12.15,12.15,0,0,1-.25,1.76,1.93,1.93,0,0,1-.46.89,2.29,2.29,0,0,1-1,.51l-.25-.8a1,1,0,0,0,.52-.34,1.43,1.43,0,0,0,.23-.64c0-.28.11-.78.17-1.49l.23-2.64Z"/><path class="acdf9dda-5308-454e-b27a-dabb7b50a400" d="M105.69,88.1a1.78,1.78,0,0,1,.59,1.43,1.74,1.74,0,0,1-.66,1.48,2.59,2.59,0,0,1-1.62.5h-2V85.73h1v1.86h.77A2.79,2.79,0,0,1,105.69,88.1Zm-.82,2.34a1.11,1.11,0,0,0,.33-.91,1.12,1.12,0,0,0-.31-.88,1.61,1.61,0,0,0-1.08-.29h-.76v2.36h.87A1.44,1.44,0,0,0,104.87,90.44Z"/><path class="acdf9dda-5308-454e-b27a-dabb7b50a400" d="M114,91.51v-5h-2.37v5h-1V85.73H115v5.78Z"/><path class="acdf9dda-5308-454e-b27a-dabb7b50a400" d="M121.36,86.39a4.05,4.05,0,0,1,.51,2.22,3.69,3.69,0,0,1-.59,2.2,1.94,1.94,0,0,1-1.68.83,1.85,1.85,0,0,1-1.51-.66v2.74l-1,.12V85.73H118l.07.78a2.17,2.17,0,0,1,.77-.68,2,2,0,0,1,.94-.23A1.81,1.81,0,0,1,121.36,86.39Zm-.57,2.22c0-1.47-.44-2.21-1.31-2.21a1.32,1.32,0,0,0-.78.25,2.38,2.38,0,0,0-.61.65v2.82a1.52,1.52,0,0,0,.55.52,1.48,1.48,0,0,0,.72.18C120.31,90.82,120.79,90.08,120.79,88.61Z"/><path class="acdf9dda-5308-454e-b27a-dabb7b50a400" d="M127.66,86.41a3.32,3.32,0,0,1,.67,2.2,4,4,0,0,1-.3,1.59,2.45,2.45,0,0,1-.89,1.06,2.5,2.5,0,0,1-1.38.38,2.33,2.33,0,0,1-1.9-.81,3.3,3.3,0,0,1-.68-2.21,3.91,3.91,0,0,1,.3-1.58,2.33,2.33,0,0,1,2.29-1.44A2.32,2.32,0,0,1,127.66,86.41Zm-3.4,2.21c0,1.47.5,2.21,1.5,2.21s1.49-.74,1.49-2.22-.5-2.2-1.48-2.2S124.26,87.15,124.26,88.62Z"/><path class="acdf9dda-5308-454e-b27a-dabb7b50a400" d="M136.77,86.37a4.43,4.43,0,0,1,.46,2.24,4.08,4.08,0,0,1-.53,2.21,1.63,1.63,0,0,1-1.46.82,1.52,1.52,0,0,1-1.32-.74v2.82l-1,.12V90.9a1.61,1.61,0,0,1-.61.55,1.71,1.71,0,0,1-.8.19,1.56,1.56,0,0,1-1.39-.82,4.18,4.18,0,0,1-.51-2.21,4.66,4.66,0,0,1,.44-2.23,1.57,1.57,0,0,1,1.47-.78,1.71,1.71,0,0,1,1.4.63v-3l1,.12v2.85a1.79,1.79,0,0,1,2.85.12Zm-4.35,4.28a1.91,1.91,0,0,0,.53-.53V87.06a1.46,1.46,0,0,0-1.19-.66A.82.82,0,0,0,131,87a5.18,5.18,0,0,0,0,3.33.85.85,0,0,0,.77.56A1.17,1.17,0,0,0,132.42,90.65Zm3.44-.37a3.81,3.81,0,0,0,.28-1.67c0-1.47-.36-2.21-1.08-2.21a1.32,1.32,0,0,0-1.14.68v3a1.83,1.83,0,0,0,.5.53,1.14,1.14,0,0,0,.64.18A.89.89,0,0,0,135.86,90.28Z"/><path class="acdf9dda-5308-454e-b27a-dabb7b50a400" d="M143.3,89h-3.69a2.23,2.23,0,0,0,.48,1.41,1.41,1.41,0,0,0,1.08.45,2.33,2.33,0,0,0,.76-.12,3,3,0,0,0,.74-.39l.44.61a3.22,3.22,0,0,1-2,.72,2.33,2.33,0,0,1-1.88-.79,3.24,3.24,0,0,1-.68-2.17,4,4,0,0,1,.3-1.6,2.49,2.49,0,0,1,.83-1.09,2.38,2.38,0,0,1,3,.36,3.26,3.26,0,0,1,.62,2.1C143.32,88.62,143.31,88.79,143.3,89Zm-1-.81a2.1,2.1,0,0,0-.34-1.3,1.21,1.21,0,0,0-1-.45c-.83,0-1.28.6-1.35,1.82h2.71Z"/><path class="acdf9dda-5308-454e-b27a-dabb7b50a400" d="M148,85.74a2.67,2.67,0,0,1,.82.48l-.48.64a2.59,2.59,0,0,0-.6-.33,1.87,1.87,0,0,0-.64-.1A1.26,1.26,0,0,0,146,87a2.89,2.89,0,0,0-.39,1.66,2.75,2.75,0,0,0,.38,1.61,1.28,1.28,0,0,0,1.1.52,1.75,1.75,0,0,0,.62-.1,3.27,3.27,0,0,0,.64-.33l.46.65a2.71,2.71,0,0,1-1.76.64,2.29,2.29,0,0,1-1.85-.79,3.25,3.25,0,0,1-.68-2.18,3.82,3.82,0,0,1,.31-1.61,2.41,2.41,0,0,1,.87-1.08A2.33,2.33,0,0,1,147,85.6,3.14,3.14,0,0,1,148,85.74Z"/><path class="acdf9dda-5308-454e-b27a-dabb7b50a400" d="M153,85.74a2.71,2.71,0,0,1,.83.48l-.49.64a2.24,2.24,0,0,0-.6-.33,1.83,1.83,0,0,0-.64-.1A1.26,1.26,0,0,0,151,87a2.89,2.89,0,0,0-.39,1.66,2.67,2.67,0,0,0,.39,1.61,1.26,1.26,0,0,0,1.09.52,1.81,1.81,0,0,0,.63-.1,3.21,3.21,0,0,0,.63-.33l.47.65a2.74,2.74,0,0,1-1.77.64,2.3,2.3,0,0,1-1.85-.79,3.25,3.25,0,0,1-.67-2.18,4,4,0,0,1,.3-1.61,2.49,2.49,0,0,1,.88-1.08,2.27,2.27,0,0,1,1.34-.38A3.09,3.09,0,0,1,153,85.74Z"/><path class="acdf9dda-5308-454e-b27a-dabb7b50a400" d="M159.69,91.51h-1V88.9c0-.44,0-.86,0-1.25a6.67,6.67,0,0,1,.08-.78l-2.43,4.64H155.2V85.73h1v2.61c0,.39,0,.79,0,1.2s-.05.68-.07.79l2.4-4.6h1.21Z"/><path class="acdf9dda-5308-454e-b27a-dabb7b50a400" d="M165.84,86.41a3.33,3.33,0,0,1,.68,2.2,4,4,0,0,1-.31,1.59,2.45,2.45,0,0,1-.89,1.06,2.5,2.5,0,0,1-1.38.38,2.35,2.35,0,0,1-1.9-.81,3.35,3.35,0,0,1-.68-2.21,3.74,3.74,0,0,1,.31-1.58,2.41,2.41,0,0,1,.89-1.07A2.49,2.49,0,0,1,164,85.6,2.32,2.32,0,0,1,165.84,86.41Zm-3.39,2.21c0,1.47.49,2.21,1.49,2.21s1.49-.74,1.49-2.22-.49-2.2-1.48-2.2S162.45,87.15,162.45,88.62Z"/><path class="acdf9dda-5308-454e-b27a-dabb7b50a400" d="M171.59,91.51V89h-2.4v2.55h-1V85.73h1v2.42h2.4V85.73h1v5.78Z"/><path class="acdf9dda-5308-454e-b27a-dabb7b50a400" d="M178.7,90.68a.77.77,0,0,0,.36.26l-.23.7a1.57,1.57,0,0,1-.72-.25,1.19,1.19,0,0,1-.41-.62,1.93,1.93,0,0,1-1.72.87,1.86,1.86,0,0,1-1.35-.48,1.86,1.86,0,0,1,.17-2.68,3.11,3.11,0,0,1,1.88-.49h.89v-.43a1.16,1.16,0,0,0-.29-.88,1.37,1.37,0,0,0-.91-.26,4.92,4.92,0,0,0-1.56.31l-.25-.74a5.84,5.84,0,0,1,2-.39,2.08,2.08,0,0,1,1.53.5,1.92,1.92,0,0,1,.5,1.42v2.64A.91.91,0,0,0,178.7,90.68Zm-1.13-.7V88.66h-.75c-1.07,0-1.61.39-1.61,1.18a1.1,1.1,0,0,0,.26.78.94.94,0,0,0,.74.26A1.5,1.5,0,0,0,177.57,90Z"/><path class="acdf9dda-5308-454e-b27a-dabb7b50a400" d="M184.89,85.73v5.78h-1v-5h-1.79l-.16,1.93a12.15,12.15,0,0,1-.25,1.76,1.93,1.93,0,0,1-.46.89,2.29,2.29,0,0,1-.95.51l-.25-.8a1.13,1.13,0,0,0,.53-.34,1.73,1.73,0,0,0,.23-.64c.05-.28.1-.78.16-1.49l.23-2.64Z"/><path class="acdf9dda-5308-454e-b27a-dabb7b50a400" d="M190.63,88.1a1.8,1.8,0,0,1,.58,1.43,1.74,1.74,0,0,1-.66,1.48,2.58,2.58,0,0,1-1.61.5h-2V85.73h1v1.86h.77A2.84,2.84,0,0,1,190.63,88.1Zm-.83,2.34a1.11,1.11,0,0,0,.33-.91,1.12,1.12,0,0,0-.31-.88,1.61,1.61,0,0,0-1.08-.29H188v2.36h.87A1.44,1.44,0,0,0,189.8,90.44Z"/><path class="acdf9dda-5308-454e-b27a-dabb7b50a400" d="M196,91.51V89h-2.4v2.55h-1V85.73h1v2.42H196V85.73h1v5.78Z"/><path class="acdf9dda-5308-454e-b27a-dabb7b50a400" d="M203.2,86.41a3.33,3.33,0,0,1,.68,2.2,4,4,0,0,1-.31,1.59,2.45,2.45,0,0,1-.89,1.06,2.5,2.5,0,0,1-1.38.38,2.35,2.35,0,0,1-1.9-.81,3.35,3.35,0,0,1-.68-2.21A3.74,3.74,0,0,1,199,87a2.41,2.41,0,0,1,.89-1.07,2.49,2.49,0,0,1,1.39-.37A2.32,2.32,0,0,1,203.2,86.41Zm-3.39,2.21c0,1.47.49,2.21,1.49,2.21s1.49-.74,1.49-2.22-.49-2.2-1.48-2.2S199.81,87.15,199.81,88.62Z"/><path class="acdf9dda-5308-454e-b27a-dabb7b50a400" d="M206.55,91.51h-1V85.73h3.61l-.13.83h-2.47Z"/><path class="acdf9dda-5308-454e-b27a-dabb7b50a400" d="M214,86.41a3.32,3.32,0,0,1,.67,2.2,4,4,0,0,1-.3,1.59,2.45,2.45,0,0,1-.89,1.06,2.5,2.5,0,0,1-1.38.38,2.33,2.33,0,0,1-1.9-.81,3.3,3.3,0,0,1-.68-2.21,3.91,3.91,0,0,1,.3-1.58,2.33,2.33,0,0,1,2.29-1.44A2.32,2.32,0,0,1,214,86.41Zm-3.4,2.21c0,1.47.5,2.21,1.5,2.21s1.49-.74,1.49-2.22-.5-2.2-1.48-2.2S210.64,87.15,210.64,88.62Z"/><path class="acdf9dda-5308-454e-b27a-dabb7b50a400" d="M225,91.51h-1l-.26-2.73c0-.29,0-.6-.06-1s0-.72,0-1.13l-1.32,4.17h-.95l-1.23-4.16c0,1,0,1.65,0,2.06l-.21,2.74h-1l.52-5.78h1.3l1.13,4.13,1.24-4.13h1.33Z"/><path class="acdf9dda-5308-454e-b27a-dabb7b50a400" d="M230.66,90.68a.77.77,0,0,0,.36.26l-.23.7a1.57,1.57,0,0,1-.72-.25,1.19,1.19,0,0,1-.41-.62,1.93,1.93,0,0,1-1.72.87,1.86,1.86,0,0,1-1.35-.48,1.86,1.86,0,0,1,.17-2.68,3.09,3.09,0,0,1,1.88-.49h.89v-.43a1.16,1.16,0,0,0-.29-.88,1.39,1.39,0,0,0-.91-.26,4.92,4.92,0,0,0-1.56.31l-.25-.74a5.84,5.84,0,0,1,2-.39,2.08,2.08,0,0,1,1.53.5,1.92,1.92,0,0,1,.5,1.42v2.64A.91.91,0,0,0,230.66,90.68Zm-1.13-.7V88.66h-.76c-1.06,0-1.6.39-1.6,1.18a1.1,1.1,0,0,0,.26.78.94.94,0,0,0,.74.26A1.5,1.5,0,0,0,229.53,90Z"/><path class="acdf9dda-5308-454e-b27a-dabb7b50a400" d="M235.66,85.74a2.71,2.71,0,0,1,.83.48l-.49.64a2.35,2.35,0,0,0-.59-.33,1.93,1.93,0,0,0-.65-.1,1.27,1.27,0,0,0-1.09.56,2.89,2.89,0,0,0-.39,1.66,2.67,2.67,0,0,0,.39,1.61,1.26,1.26,0,0,0,1.09.52,1.81,1.81,0,0,0,.63-.1,3.57,3.57,0,0,0,.64-.33l.46.65a2.74,2.74,0,0,1-1.77.64,2.3,2.3,0,0,1-1.85-.79,3.25,3.25,0,0,1-.67-2.18,4,4,0,0,1,.3-1.61,2.49,2.49,0,0,1,.88-1.08,2.27,2.27,0,0,1,1.34-.38A3.09,3.09,0,0,1,235.66,85.74Z"/><path class="acdf9dda-5308-454e-b27a-dabb7b50a400" d="M241.76,85.73l-.12.82h-1.85v5h-1v-5h-1.91v-.82Z"/><path class="acdf9dda-5308-454e-b27a-dabb7b50a400" d="M246.87,89h-3.68a2.23,2.23,0,0,0,.48,1.41,1.41,1.41,0,0,0,1.08.45,2.33,2.33,0,0,0,.76-.12,3,3,0,0,0,.74-.39l.44.61a3.22,3.22,0,0,1-2,.72,2.32,2.32,0,0,1-1.88-.79,3.24,3.24,0,0,1-.68-2.17,4.23,4.23,0,0,1,.29-1.6,2.58,2.58,0,0,1,.84-1.09,2.38,2.38,0,0,1,3,.36,3.26,3.26,0,0,1,.62,2.1A4.36,4.36,0,0,1,246.87,89Zm-1-.81a2.17,2.17,0,0,0-.34-1.3,1.21,1.21,0,0,0-1-.45c-.83,0-1.28.6-1.35,1.82h2.71Z"/><path class="acdf9dda-5308-454e-b27a-dabb7b50a400" d="M252.79,86.39a4.05,4.05,0,0,1,.51,2.22,3.77,3.77,0,0,1-.59,2.2,2,2,0,0,1-1.68.83,1.85,1.85,0,0,1-1.51-.66v2.74l-1,.12V85.73h.86l.08.78a2.17,2.17,0,0,1,.77-.68,2,2,0,0,1,.94-.23A1.81,1.81,0,0,1,252.79,86.39Zm-.57,2.22c0-1.47-.44-2.21-1.31-2.21a1.32,1.32,0,0,0-.78.25,2.38,2.38,0,0,0-.61.65v2.82a1.52,1.52,0,0,0,.55.52,1.45,1.45,0,0,0,.72.18C251.74,90.82,252.22,90.08,252.22,88.61Z"/><path class="acdf9dda-5308-454e-b27a-dabb7b50a400" d="M258.07,85.74a2.71,2.71,0,0,1,.83.48l-.49.64a2.35,2.35,0,0,0-.59-.33,1.93,1.93,0,0,0-.65-.1,1.27,1.27,0,0,0-1.09.56,2.89,2.89,0,0,0-.39,1.66,2.67,2.67,0,0,0,.39,1.61,1.26,1.26,0,0,0,1.09.52,1.81,1.81,0,0,0,.63-.1,3.21,3.21,0,0,0,.63-.33l.47.65a2.74,2.74,0,0,1-1.77.64,2.3,2.3,0,0,1-1.85-.79,3.25,3.25,0,0,1-.67-2.18,4,4,0,0,1,.3-1.61,2.49,2.49,0,0,1,.88-1.08,2.27,2.27,0,0,1,1.34-.38A3.09,3.09,0,0,1,258.07,85.74Z"/><path class="acdf9dda-5308-454e-b27a-dabb7b50a400" d="M264.17,85.73l-.12.82H262.2v5h-1v-5h-1.91v-.82Z"/><path class="acdf9dda-5308-454e-b27a-dabb7b50a400" d="M269.73,89.73a1.47,1.47,0,0,1-.66,1.34,3.18,3.18,0,0,1-1.77.44h-2.09V85.8a10.24,10.24,0,0,1,1.9-.2,3.1,3.1,0,0,1,1.7.4,1.3,1.3,0,0,1,.63,1.16,1.13,1.13,0,0,1-.3.81,1.54,1.54,0,0,1-.88.4C269.24,88.47,269.73,88.92,269.73,89.73Zm-3.51-3.29v1.63h1.09a1.43,1.43,0,0,0,.81-.19.76.76,0,0,0,.29-.67.71.71,0,0,0-.32-.64,1.92,1.92,0,0,0-1-.2A6.56,6.56,0,0,0,266.22,86.44Zm2.09,4.06a.85.85,0,0,0,.36-.79.75.75,0,0,0-.31-.68,1.9,1.9,0,0,0-1-.21h-1.1v1.9h1.08A1.92,1.92,0,0,0,268.31,90.5Z"/><path class="acdf9dda-5308-454e-b27a-dabb7b50a400" d="M275.3,90.68a.85.85,0,0,0,.37.26l-.23.7a1.66,1.66,0,0,1-.73-.25,1.12,1.12,0,0,1-.4-.62,2,2,0,0,1-1.73.87,1.82,1.82,0,0,1-1.34-.48,1.68,1.68,0,0,1-.5-1.26,1.65,1.65,0,0,1,.67-1.42,3.07,3.07,0,0,1,1.88-.49h.88v-.43a1.13,1.13,0,0,0-.29-.88,1.37,1.37,0,0,0-.91-.26,5,5,0,0,0-1.56.31l-.25-.74a5.89,5.89,0,0,1,2-.39,2.07,2.07,0,0,1,1.52.5,1.88,1.88,0,0,1,.5,1.42v2.64A.91.91,0,0,0,275.3,90.68Zm-1.13-.7V88.66h-.75c-1.07,0-1.6.39-1.6,1.18a1.09,1.09,0,0,0,.25.78,1,1,0,0,0,.74.26A1.49,1.49,0,0,0,274.17,90Z"/></g></g></svg>