<?xml version="1.0" encoding="UTF-8"?><svg xmlns="http://www.w3.org/2000/svg" viewBox="0 0 633.21 215.56"><defs><style>.d{fill:#bf2c19;}</style></defs><g id="a"/><g id="b"><g id="c"><g><polygon class="d" points="0 177.65 23.83 0 448 36.75 455.28 55.14 448.64 57.77 442.98 43.49 30.01 7.71 8.25 169.89 83.84 164.52 84.34 171.65 0 177.65"/><path d="M162.12,85.44c4.82,1.85,9.21,4.66,13.15,8.43l-9.56,11.2c-5.96-4.86-12.33-7.3-19.13-7.3-3.61,0-6.46,.74-8.56,2.2-2.1,1.47-3.15,3.59-3.15,6.36,0,1.93,.46,3.5,1.38,4.72,.92,1.22,2.56,2.37,4.91,3.46,2.35,1.09,5.87,2.39,10.57,3.9,8.89,2.85,15.44,6.36,19.63,10.51,4.19,4.15,6.29,10.05,6.29,17.68,0,5.45-1.38,10.26-4.15,14.41-2.77,4.15-6.75,7.38-11.96,9.69-5.2,2.31-11.37,3.46-18.5,3.46s-13.45-1.13-18.94-3.4c-5.5-2.27-10.22-5.29-14.16-9.06l10.45-11.45c3.35,2.85,6.82,4.99,10.38,6.42,3.57,1.43,7.44,2.14,11.64,2.14s7.65-.94,10.13-2.83c2.47-1.89,3.71-4.51,3.71-7.87,0-2.18-.46-4.01-1.38-5.47-.92-1.47-2.52-2.79-4.78-3.96-2.27-1.17-5.54-2.43-9.82-3.78-9.65-2.94-16.51-6.54-20.58-10.82-4.07-4.28-6.1-9.69-6.1-16.23,0-5.03,1.34-9.46,4.03-13.28,2.68-3.82,6.42-6.75,11.2-8.81,4.78-2.06,10.19-3.08,16.23-3.08,6.54,0,12.23,.92,17.05,2.77Z"/><path d="M208.49,76.5v95.52h-19.88V78.64l19.88-2.14Zm41.28,28.69l-20.26,29.32,21.9,37.5h-22.4l-19.88-36.5,20.39-30.33h20.26Z"/><path d="M276.39,73.17c2.22,2.14,3.33,4.84,3.33,8.12s-1.11,5.98-3.33,8.12c-2.22,2.14-5.06,3.21-8.49,3.21s-6.25-1.07-8.43-3.21c-2.18-2.14-3.27-4.84-3.27-8.12s1.09-5.98,3.27-8.12c2.18-2.14,4.99-3.21,8.43-3.21s6.27,1.07,8.49,3.21Zm1.57,32.03v66.82h-19.88V105.2h19.88Z"/><path d="M297.78,169.19c-3.23-3.31-4.84-8.03-4.84-14.16V78.64l19.88-2.14v77.77c0,2.77,1.13,4.15,3.4,4.15,1.17,0,2.27-.21,3.27-.63l3.9,14.09c-3.61,1.51-7.64,2.27-12.08,2.27-5.79,0-10.3-1.66-13.53-4.97Z"/><path d="M335.16,169.19c-3.23-3.31-4.84-8.03-4.84-14.16V78.64l19.88-2.14v77.77c0,2.77,1.13,4.15,3.4,4.15,1.17,0,2.27-.21,3.27-.63l3.9,14.09c-3.61,1.51-7.64,2.27-12.08,2.27-5.79,0-10.3-1.66-13.53-4.97Z"/><path class="d" d="M368.69,172.02V84.81h51.97l-2.14,14.72h-29.2v23.16h25.42v14.72h-25.42v34.61h-20.64Z"/><path class="d" d="M483.09,144.46h-41.4c.67,5.62,2.27,9.56,4.78,11.83,2.52,2.27,6,3.4,10.45,3.4,2.68,0,5.29-.48,7.8-1.45,2.52-.96,5.24-2.45,8.18-4.47l8.18,11.07c-7.8,6.21-16.49,9.31-26.05,9.31-10.82,0-19.13-3.19-24.92-9.56-5.79-6.37-8.68-14.93-8.68-25.67,0-6.8,1.22-12.9,3.65-18.31,2.43-5.41,6-9.69,10.7-12.84,4.7-3.15,10.32-4.72,16.86-4.72,9.65,0,17.2,3.02,22.65,9.06,5.45,6.04,8.18,14.43,8.18,25.17,0,2.77-.13,5.16-.38,7.17Zm-19.13-12.84c-.17-10.23-3.78-15.35-10.82-15.35-3.44,0-6.1,1.26-7.99,3.78-1.89,2.52-3.04,6.67-3.46,12.46h22.27v-.88Z"/><path class="d" d="M531.66,105.2c4.19,1.43,7.89,3.44,11.07,6.04l-7.3,11.2c-5.45-3.44-10.95-5.16-16.49-5.16-2.6,0-4.59,.44-5.98,1.32-1.38,.88-2.08,2.12-2.08,3.71,0,1.26,.31,2.29,.94,3.08,.63,.8,1.91,1.62,3.84,2.45,1.93,.84,4.91,1.85,8.94,3.02,6.96,2.01,12.14,4.64,15.54,7.87,3.4,3.23,5.1,7.7,5.1,13.4,0,4.53-1.3,8.45-3.9,11.77-2.6,3.32-6.17,5.85-10.7,7.61-4.53,1.76-9.56,2.64-15.1,2.64s-10.84-.88-15.67-2.64c-4.83-1.76-8.92-4.19-12.27-7.3l9.69-10.82c5.62,4.36,11.53,6.54,17.74,6.54,3.02,0,5.39-.54,7.11-1.64,1.72-1.09,2.58-2.64,2.58-4.66,0-1.59-.34-2.85-1.01-3.78-.67-.92-1.97-1.78-3.9-2.58-1.93-.8-4.99-1.78-9.19-2.96-6.63-1.93-11.58-4.61-14.85-8.05-3.27-3.44-4.91-7.72-4.91-12.84,0-3.86,1.11-7.32,3.34-10.38,2.22-3.06,5.41-5.49,9.56-7.3,4.15-1.8,8.95-2.71,14.41-2.71,4.78,0,9.27,.71,13.47,2.14Z"/><path class="d" d="M597.35,168.88c-2.43,1.68-5.27,2.98-8.49,3.9-3.23,.92-6.44,1.38-9.63,1.38-14.6-.08-21.9-8.14-21.9-24.16v-30.96h-9.44v-13.84h9.44v-14.47l19.88-2.27v16.74h15.35l-2.14,13.84h-13.21v30.71c0,3.1,.5,5.33,1.51,6.67,1.01,1.34,2.6,2.01,4.78,2.01s4.66-.71,7.17-2.14l6.67,12.58Z"/><g><path d="M134.4,207.03c-1.44,1.28-3.44,1.96-6.01,2.03v1.97h-2.32v-1.97c-2.67-.12-4.7-.83-6.08-2.13-1.39-1.3-2.08-3.14-2.08-5.51,0-2.49,.72-4.37,2.15-5.66,1.44-1.28,3.44-1.96,6.01-2.03v-1.76h2.32v1.76c2.67,.12,4.7,.83,6.08,2.13,1.39,1.3,2.08,3.14,2.08,5.51,0,2.49-.72,4.37-2.15,5.66Zm-12.6-1.3c.95,.94,2.39,1.45,4.32,1.54v-11.77c-1.97,.12-3.41,.64-4.35,1.56-.93,.92-1.4,2.38-1.4,4.36s.47,3.37,1.42,4.31Zm10.88,0c.93-.92,1.4-2.38,1.4-4.36s-.47-3.37-1.42-4.31c-.95-.94-2.39-1.45-4.32-1.54v11.77c1.97-.12,3.41-.64,4.35-1.56Z"/><path d="M149.93,204.35h-8.47c.1,1.46,.47,2.54,1.11,3.23,.64,.69,1.46,1.03,2.47,1.03,.64,0,1.23-.09,1.76-.28,.54-.18,1.1-.48,1.69-.88l1.01,1.39c-1.41,1.11-2.96,1.66-4.64,1.66-1.85,0-3.29-.6-4.32-1.81s-1.55-2.87-1.55-4.99c0-1.38,.22-2.6,.67-3.67,.44-1.07,1.08-1.9,1.91-2.51,.83-.6,1.81-.91,2.94-.91,1.76,0,3.12,.58,4.06,1.74,.94,1.16,1.41,2.76,1.41,4.81,0,.39-.02,.78-.05,1.18Zm-2.24-1.86c0-1.31-.26-2.31-.78-3-.52-.69-1.3-1.03-2.34-1.03-1.9,0-2.93,1.39-3.1,4.18h6.22v-.15Z"/><path d="M160.69,196.95c.66,.23,1.29,.59,1.89,1.1l-1.11,1.46c-.47-.34-.93-.58-1.37-.74-.45-.16-.94-.24-1.47-.24-1.08,0-1.91,.43-2.51,1.29-.6,.86-.89,2.13-.89,3.8s.29,2.92,.88,3.72c.59,.8,1.43,1.2,2.52,1.2,.52,0,1-.08,1.44-.24,.44-.16,.92-.42,1.46-.77l1.06,1.51c-1.21,.97-2.56,1.46-4.06,1.46-1.8,0-3.21-.6-4.25-1.81s-1.55-2.88-1.55-5.01c0-1.41,.23-2.65,.71-3.7,.47-1.06,1.14-1.88,2-2.47,.87-.59,1.89-.88,3.09-.88,.79,0,1.51,.11,2.17,.34Z"/><path d="M174.7,196.92l-.28,1.89h-4.26v11.39h-2.32v-11.39h-4.38v-1.89h11.24Z"/><path d="M187.42,210.2h-2.29v-6c0-1.01,.03-1.97,.1-2.87s.13-1.5,.18-1.79l-5.57,10.66h-2.75v-13.28h2.29v6c0,.89-.03,1.81-.1,2.76-.07,.95-.12,1.56-.15,1.83l5.49-10.58h2.8v13.28Z"/><path d="M202.59,206.11c0,1.39-.51,2.42-1.52,3.09-1.02,.66-2.37,1-4.07,1h-4.79v-13.1c1.56-.32,3.02-.48,4.36-.48,1.65,0,2.95,.31,3.91,.93,.96,.62,1.44,1.51,1.44,2.67,0,.76-.23,1.37-.68,1.84-.45,.47-1.13,.78-2.02,.93,2.25,.22,3.38,1.26,3.38,3.12Zm-8.06-7.56v3.75h2.49c.81,0,1.43-.15,1.86-.45,.44-.3,.66-.81,.66-1.54,0-.67-.24-1.16-.73-1.46-.49-.3-1.23-.45-2.22-.45-.71,0-1.39,.05-2.07,.15Zm4.79,9.32c.55-.34,.83-.94,.83-1.81,0-.72-.24-1.24-.71-1.56-.47-.32-1.27-.48-2.39-.48h-2.52v4.36h2.47c.99,0,1.76-.17,2.32-.5Z"/><path d="M215.39,208.29c.18,.26,.46,.46,.83,.59l-.53,1.61c-.69-.08-1.24-.28-1.66-.58-.42-.3-.73-.77-.93-1.41-.89,1.33-2.21,1.99-3.96,1.99-1.31,0-2.34-.37-3.1-1.11s-1.13-1.7-1.13-2.9c0-1.41,.51-2.49,1.52-3.25,1.02-.76,2.46-1.13,4.32-1.13h2.04v-.98c0-.94-.23-1.61-.68-2.02s-1.15-.6-2.09-.6-2.17,.24-3.58,.71l-.58-1.69c1.65-.6,3.17-.91,4.59-.91,1.56,0,2.73,.38,3.5,1.15,.77,.76,1.16,1.85,1.16,3.26v6.07c0,.54,.09,.94,.28,1.2Zm-2.6-1.6v-3.05h-1.74c-2.45,0-3.68,.91-3.68,2.72,0,.79,.19,1.39,.58,1.79,.39,.4,.96,.6,1.71,.6,1.33,0,2.37-.69,3.12-2.07Z"/><path d="M229.6,196.92v13.28h-2.32v-11.39h-4.11l-.38,4.43c-.15,1.8-.34,3.14-.57,4.03s-.58,1.57-1.06,2.05c-.48,.48-1.21,.87-2.18,1.17l-.58-1.84c.57-.2,.97-.46,1.21-.78,.24-.32,.41-.81,.53-1.46,.12-.66,.24-1.8,.38-3.43l.53-6.07h8.54Z"/><path d="M242.78,202.36c.89,.77,1.34,1.87,1.34,3.3s-.5,2.62-1.5,3.39c-1,.76-2.24,1.15-3.72,1.15h-4.51v-13.28h2.32v4.28h1.76c1.98,0,3.42,.39,4.31,1.16Zm-1.9,5.39c.51-.42,.77-1.12,.77-2.09,0-.92-.24-1.6-.72-2.04-.48-.44-1.31-.66-2.48-.66h-1.74v5.42h1.99c.94,0,1.67-.21,2.18-.63Z"/><path d="M261.83,210.2v-11.39h-5.44v11.39h-2.32v-13.28h10.08v13.28h-2.32Z"/><path d="M278.76,198.43c.79,1.21,1.18,2.91,1.18,5.11,0,2.08-.45,3.76-1.36,5.04-.91,1.28-2.19,1.91-3.85,1.91-1.48,0-2.64-.5-3.48-1.51v6.3l-2.32,.28v-18.65h1.99l.18,1.79c.49-.67,1.07-1.19,1.76-1.55,.69-.36,1.41-.54,2.17-.54,1.7,0,2.94,.6,3.73,1.81Zm-1.31,5.11c0-3.39-1-5.09-3-5.09-.66,0-1.25,.19-1.79,.58-.54,.39-1.01,.88-1.41,1.49v6.48c.34,.52,.76,.92,1.26,1.2s1.06,.42,1.66,.42c2.18,0,3.28-1.69,3.28-5.06Z"/><path d="M293.23,198.48c1.03,1.24,1.55,2.93,1.55,5.06,0,1.38-.24,2.59-.71,3.64-.47,1.05-1.15,1.86-2.04,2.44-.89,.58-1.95,.87-3.17,.87-1.86,0-3.32-.62-4.36-1.86-1.04-1.24-1.56-2.93-1.56-5.06,0-1.38,.23-2.59,.71-3.64,.47-1.05,1.15-1.86,2.04-2.44,.89-.58,1.96-.87,3.2-.87,1.86,0,3.31,.62,4.35,1.86Zm-7.8,5.09c0,3.38,1.14,5.06,3.43,5.06s3.43-1.7,3.43-5.09-1.13-5.06-3.4-5.06-3.45,1.7-3.45,5.09Z"/><path d="M314.17,198.4c.7,1.19,1.05,2.91,1.05,5.14,0,2.12-.4,3.8-1.21,5.06-.81,1.26-1.92,1.89-3.35,1.89-1.26,0-2.28-.56-3.05-1.69v6.48l-2.22,.28v-6.75c-.37,.54-.84,.95-1.41,1.25-.57,.29-1.18,.44-1.84,.44-1.34,0-2.41-.63-3.19-1.89s-1.17-2.95-1.17-5.06,.34-3.93,1.02-5.13c.68-1.2,1.8-1.8,3.36-1.8,1.36,0,2.44,.49,3.23,1.46v-6.78l2.22,.28v6.55c.77-1.01,1.81-1.51,3.1-1.51,1.61,0,2.77,.6,3.46,1.79Zm-10,9.81c.46-.29,.87-.7,1.22-1.22v-7.03c-.76-1.01-1.67-1.51-2.75-1.51-.77,0-1.36,.42-1.76,1.27-.4,.85-.6,2.12-.6,3.82s.21,2.97,.63,3.83c.42,.86,1.01,1.29,1.76,1.29,.54,0,1.04-.15,1.5-.44Zm7.9-.84c.44-.86,.66-2.13,.66-3.83,0-3.39-.83-5.09-2.49-5.09-1.06,0-1.93,.52-2.62,1.56v7c.35,.54,.74,.94,1.16,1.22,.42,.28,.91,.42,1.46,.42,.79,0,1.4-.43,1.84-1.29Z"/><path d="M329.15,204.35h-8.47c.1,1.46,.47,2.54,1.11,3.23,.64,.69,1.46,1.03,2.47,1.03,.64,0,1.23-.09,1.76-.28,.54-.18,1.1-.48,1.69-.88l1.01,1.39c-1.41,1.11-2.96,1.66-4.64,1.66-1.85,0-3.29-.6-4.32-1.81-1.03-1.21-1.55-2.87-1.55-4.99,0-1.38,.22-2.6,.67-3.67,.44-1.07,1.08-1.9,1.91-2.51,.83-.6,1.81-.91,2.94-.91,1.76,0,3.12,.58,4.06,1.74,.94,1.16,1.41,2.76,1.41,4.81,0,.39-.02,.78-.05,1.18Zm-2.24-1.86c0-1.31-.26-2.31-.78-3-.52-.69-1.3-1.03-2.34-1.03-1.9,0-2.93,1.39-3.1,4.18h6.22v-.15Z"/><path d="M339.91,196.95c.66,.23,1.29,.59,1.89,1.1l-1.11,1.46c-.47-.34-.93-.58-1.37-.74-.45-.16-.94-.24-1.47-.24-1.08,0-1.91,.43-2.51,1.29-.6,.86-.89,2.13-.89,3.8s.29,2.92,.88,3.72c.59,.8,1.43,1.2,2.52,1.2,.52,0,1-.08,1.44-.24,.44-.16,.92-.42,1.46-.77l1.06,1.51c-1.21,.97-2.56,1.46-4.06,1.46-1.8,0-3.21-.6-4.25-1.81s-1.55-2.88-1.55-5.01c0-1.41,.23-2.65,.71-3.7,.47-1.06,1.14-1.88,2-2.47,.87-.59,1.89-.88,3.09-.88,.79,0,1.51,.11,2.17,.34Z"/><path d="M351.45,196.95c.66,.23,1.29,.59,1.89,1.1l-1.11,1.46c-.47-.34-.93-.58-1.37-.74-.45-.16-.94-.24-1.47-.24-1.08,0-1.91,.43-2.51,1.29-.6,.86-.89,2.13-.89,3.8s.29,2.92,.88,3.72c.59,.8,1.43,1.2,2.52,1.2,.52,0,1-.08,1.44-.24,.44-.16,.92-.42,1.46-.77l1.06,1.51c-1.21,.97-2.56,1.46-4.06,1.46-1.8,0-3.21-.6-4.25-1.81s-1.55-2.88-1.55-5.01c0-1.41,.23-2.65,.71-3.7,.47-1.06,1.14-1.88,2-2.47,.87-.59,1.89-.88,3.09-.88,.79,0,1.51,.11,2.17,.34Z"/><path d="M366.82,210.2h-2.29v-6c0-1.01,.03-1.97,.1-2.87s.13-1.5,.18-1.79l-5.57,10.66h-2.75v-13.28h2.29v6c0,.89-.03,1.81-.1,2.76-.07,.95-.12,1.56-.15,1.83l5.49-10.58h2.8v13.28Z"/><path d="M380.94,198.48c1.03,1.24,1.55,2.93,1.55,5.06,0,1.38-.24,2.59-.71,3.64-.47,1.05-1.15,1.86-2.04,2.44-.89,.58-1.95,.87-3.17,.87-1.86,0-3.32-.62-4.36-1.86-1.04-1.24-1.56-2.93-1.56-5.06,0-1.38,.23-2.59,.71-3.64,.47-1.05,1.15-1.86,2.04-2.44,.89-.58,1.96-.87,3.2-.87,1.86,0,3.31,.62,4.35,1.86Zm-7.8,5.09c0,3.38,1.14,5.06,3.43,5.06s3.43-1.7,3.43-5.09-1.13-5.06-3.4-5.06-3.45,1.7-3.45,5.09Z"/><path d="M394.15,210.2v-5.85h-5.52v5.85h-2.32v-13.28h2.32v5.57h5.52v-5.57h2.32v13.28h-2.32Z"/><path d="M410.48,208.29c.18,.26,.46,.46,.83,.59l-.53,1.61c-.69-.08-1.24-.28-1.66-.58-.42-.3-.73-.77-.93-1.41-.89,1.33-2.21,1.99-3.96,1.99-1.31,0-2.34-.37-3.1-1.11s-1.13-1.7-1.13-2.9c0-1.41,.51-2.49,1.52-3.25,1.02-.76,2.46-1.13,4.32-1.13h2.04v-.98c0-.94-.23-1.61-.68-2.02s-1.15-.6-2.09-.6-2.17,.24-3.58,.71l-.58-1.69c1.65-.6,3.17-.91,4.59-.91,1.56,0,2.73,.38,3.5,1.15,.77,.76,1.16,1.85,1.16,3.26v6.07c0,.54,.09,.94,.28,1.2Zm-2.6-1.6v-3.05h-1.74c-2.45,0-3.68,.91-3.68,2.72,0,.79,.19,1.39,.58,1.79,.39,.4,.96,.6,1.71,.6,1.33,0,2.37-.69,3.12-2.07Z"/><path d="M424.69,196.92v13.28h-2.32v-11.39h-4.11l-.38,4.43c-.15,1.8-.34,3.14-.57,4.03s-.58,1.57-1.06,2.05c-.48,.48-1.21,.87-2.18,1.17l-.58-1.84c.57-.2,.97-.46,1.21-.78,.24-.32,.41-.81,.53-1.46,.12-.66,.24-1.8,.38-3.43l.53-6.07h8.54Z"/><path d="M437.87,202.36c.89,.77,1.34,1.87,1.34,3.3s-.5,2.62-1.5,3.39c-1,.76-2.24,1.15-3.72,1.15h-4.51v-13.28h2.32v4.28h1.76c1.98,0,3.42,.39,4.31,1.16Zm-1.9,5.39c.51-.42,.77-1.12,.77-2.09,0-.92-.24-1.6-.72-2.04-.48-.44-1.31-.66-2.48-.66h-1.74v5.42h1.99c.94,0,1.67-.21,2.18-.63Z"/><path d="M450.32,210.2v-5.85h-5.52v5.85h-2.32v-13.28h2.32v5.57h5.52v-5.57h2.32v13.28h-2.32Z"/><path d="M466.76,198.48c1.03,1.24,1.55,2.93,1.55,5.06,0,1.38-.24,2.59-.71,3.64-.47,1.05-1.15,1.86-2.04,2.44-.89,.58-1.95,.87-3.17,.87-1.86,0-3.32-.62-4.36-1.86-1.04-1.24-1.56-2.93-1.56-5.06,0-1.38,.23-2.59,.7-3.64,.47-1.05,1.15-1.86,2.04-2.44,.89-.58,1.96-.87,3.2-.87,1.86,0,3.31,.62,4.35,1.86Zm-7.8,5.09c0,3.38,1.14,5.06,3.43,5.06s3.43-1.7,3.43-5.09-1.13-5.06-3.4-5.06-3.45,1.7-3.45,5.09Z"/><path d="M474.45,210.2h-2.32v-13.28h8.29l-.3,1.91h-5.67v11.36Z"/><path d="M491.65,198.48c1.03,1.24,1.55,2.93,1.55,5.06,0,1.38-.24,2.59-.7,3.64-.47,1.05-1.15,1.86-2.04,2.44-.89,.58-1.95,.87-3.17,.87-1.86,0-3.32-.62-4.36-1.86-1.04-1.24-1.56-2.93-1.56-5.06,0-1.38,.24-2.59,.71-3.64,.47-1.05,1.15-1.86,2.04-2.44,.89-.58,1.96-.87,3.2-.87,1.86,0,3.31,.62,4.35,1.86Zm-7.8,5.09c0,3.38,1.14,5.06,3.43,5.06s3.43-1.7,3.43-5.09-1.13-5.06-3.4-5.06-3.45,1.7-3.45,5.09Z"/><path d="M516.71,210.2h-2.27l-.61-6.27c-.07-.66-.11-1.38-.13-2.18-.02-.8-.03-1.66-.03-2.58l-3.02,9.57h-2.19l-2.82-9.55c0,2.22-.03,3.79-.1,4.71l-.48,6.3h-2.24l1.18-13.28h3l2.59,9.5,2.85-9.5h3.05l1.21,13.28Z"/><path d="M529.83,208.29c.18,.26,.46,.46,.83,.59l-.53,1.61c-.69-.08-1.24-.28-1.66-.58-.42-.3-.73-.77-.93-1.41-.89,1.33-2.21,1.99-3.96,1.99-1.31,0-2.34-.37-3.1-1.11s-1.13-1.7-1.13-2.9c0-1.41,.51-2.49,1.52-3.25s2.46-1.13,4.32-1.13h2.04v-.98c0-.94-.23-1.61-.68-2.02s-1.15-.6-2.09-.6-2.17,.24-3.58,.71l-.58-1.69c1.65-.6,3.17-.91,4.59-.91,1.56,0,2.73,.38,3.5,1.15,.77,.76,1.16,1.85,1.16,3.26v6.07c0,.54,.09,.94,.28,1.2Zm-2.59-1.6v-3.05h-1.74c-2.45,0-3.68,.91-3.68,2.72,0,.79,.19,1.39,.58,1.79,.39,.4,.96,.6,1.71,.6,1.33,0,2.37-.69,3.12-2.07Z"/><path d="M541.32,196.95c.66,.23,1.28,.59,1.89,1.1l-1.11,1.46c-.47-.34-.93-.58-1.37-.74-.45-.16-.94-.24-1.47-.24-1.08,0-1.91,.43-2.51,1.29-.6,.86-.89,2.13-.89,3.8s.29,2.92,.88,3.72c.59,.8,1.43,1.2,2.52,1.2,.52,0,1-.08,1.44-.24,.44-.16,.92-.42,1.46-.77l1.06,1.51c-1.21,.97-2.56,1.46-4.06,1.46-1.8,0-3.21-.6-4.25-1.81s-1.55-2.88-1.55-5.01c0-1.41,.24-2.65,.71-3.7,.47-1.06,1.14-1.88,2-2.47,.86-.59,1.89-.88,3.09-.88,.79,0,1.51,.11,2.17,.34Z"/><path d="M555.33,196.92l-.28,1.89h-4.26v11.39h-2.32v-11.39h-4.38v-1.89h11.24Z"/><path d="M567.07,204.35h-8.47c.1,1.46,.47,2.54,1.11,3.23,.64,.69,1.46,1.03,2.47,1.03,.64,0,1.23-.09,1.76-.28,.54-.18,1.1-.48,1.69-.88l1.01,1.39c-1.41,1.11-2.96,1.66-4.64,1.66-1.85,0-3.29-.6-4.32-1.81-1.03-1.21-1.55-2.87-1.55-4.99,0-1.38,.22-2.6,.67-3.67,.44-1.07,1.08-1.9,1.91-2.51,.83-.6,1.81-.91,2.94-.91,1.76,0,3.12,.58,4.06,1.74,.94,1.16,1.41,2.76,1.41,4.81,0,.39-.02,.78-.05,1.18Zm-2.24-1.86c0-1.31-.26-2.31-.78-3-.52-.69-1.3-1.03-2.34-1.03-1.9,0-2.93,1.39-3.1,4.18h6.22v-.15Z"/><path d="M580.65,198.43c.79,1.21,1.18,2.91,1.18,5.11,0,2.08-.45,3.76-1.36,5.04-.91,1.28-2.19,1.91-3.86,1.91-1.48,0-2.64-.5-3.48-1.51v6.3l-2.32,.28v-18.65h1.99l.18,1.79c.49-.67,1.07-1.19,1.76-1.55,.69-.36,1.41-.54,2.17-.54,1.7,0,2.94,.6,3.73,1.81Zm-1.31,5.11c0-3.39-1-5.09-3-5.09-.66,0-1.25,.19-1.79,.58-.54,.39-1.01,.88-1.41,1.49v6.48c.34,.52,.76,.92,1.26,1.2s1.06,.42,1.66,.42c2.18,0,3.28-1.69,3.28-5.06Z"/><path d="M592.8,196.95c.66,.23,1.28,.59,1.89,1.1l-1.11,1.46c-.47-.34-.93-.58-1.37-.74-.45-.16-.94-.24-1.47-.24-1.08,0-1.91,.43-2.51,1.29-.6,.86-.89,2.13-.89,3.8s.29,2.92,.88,3.72c.59,.8,1.43,1.2,2.52,1.2,.52,0,1-.08,1.44-.24,.44-.16,.92-.42,1.46-.77l1.06,1.51c-1.21,.97-2.56,1.46-4.06,1.46-1.8,0-3.21-.6-4.25-1.81s-1.55-2.88-1.55-5.01c0-1.41,.24-2.65,.71-3.7,.47-1.06,1.14-1.88,2-2.47,.86-.59,1.89-.88,3.09-.88,.79,0,1.51,.11,2.17,.34Z"/><path d="M606.81,196.92l-.28,1.89h-4.26v11.39h-2.32v-11.39h-4.38v-1.89h11.24Z"/><path d="M619.58,206.11c0,1.39-.51,2.42-1.52,3.09-1.02,.66-2.37,1-4.07,1h-4.79v-13.1c1.56-.32,3.02-.48,4.36-.48,1.65,0,2.95,.31,3.91,.93s1.44,1.51,1.44,2.67c0,.76-.23,1.37-.68,1.84-.45,.47-1.13,.78-2.02,.93,2.25,.22,3.38,1.26,3.38,3.12Zm-8.06-7.56v3.75h2.49c.81,0,1.43-.15,1.86-.45,.44-.3,.65-.81,.65-1.54,0-.67-.24-1.16-.73-1.46-.49-.3-1.23-.45-2.22-.45-.7,0-1.39,.05-2.07,.15Zm4.79,9.32c.55-.34,.83-.94,.83-1.81,0-.72-.24-1.24-.71-1.56-.47-.32-1.27-.48-2.39-.48h-2.52v4.36h2.47c.99,0,1.76-.17,2.32-.5Z"/><path d="M632.38,208.29c.18,.26,.46,.46,.83,.59l-.53,1.61c-.69-.08-1.24-.28-1.66-.58-.42-.3-.73-.77-.93-1.41-.89,1.33-2.21,1.99-3.96,1.99-1.31,0-2.34-.37-3.1-1.11s-1.13-1.7-1.13-2.9c0-1.41,.51-2.49,1.52-3.25,1.02-.76,2.46-1.13,4.32-1.13h2.04v-.98c0-.94-.23-1.61-.68-2.02-.45-.4-1.15-.6-2.09-.6s-2.17,.24-3.58,.71l-.58-1.69c1.65-.6,3.17-.91,4.59-.91,1.56,0,2.73,.38,3.5,1.15,.77,.76,1.16,1.85,1.16,3.26v6.07c0,.54,.09,.94,.28,1.2Zm-2.6-1.6v-3.05h-1.74c-2.45,0-3.68,.91-3.68,2.72,0,.79,.19,1.39,.58,1.79,.39,.4,.96,.6,1.71,.6,1.33,0,2.37-.69,3.12-2.07Z"/></g></g></g></g></svg>
