<svg xmlns="http://www.w3.org/2000/svg" viewBox="0 0 200.8 65.17"><defs><style>.ac976882-dd24-4cdb-a4fd-394aa4842812{fill:#2787f5;}</style></defs><g id="fa49cdc6-773b-43df-8947-5c583a471e25" data-name="Слой 2"><g id="b65c9308-5ee9-4fea-9d54-472e96e98b6d" data-name="Слой 1"><path d="M17.59,18.33l2.72,2.93a8.64,8.64,0,0,1-3.77,3.15,12.08,12.08,0,0,1-5,1.11,10.18,10.18,0,0,1-7.71-3A10.64,10.64,0,0,1,.89,14.8,10.31,10.31,0,0,1,4,7.14a10.4,10.4,0,0,1,7.64-3,12.2,12.2,0,0,1,4.84,1A7.45,7.45,0,0,1,20,8l-3.11,2.85a6.22,6.22,0,0,0-2.21-1.71,6.41,6.41,0,0,0-2.74-.63A5.94,5.94,0,0,0,5.66,14.8,6.19,6.19,0,0,0,7.4,19.31a6,6,0,0,0,4.47,1.77A7,7,0,0,0,17.59,18.33Z" transform="translate(-0.89 -4.09)"/><path d="M40.89,25.17H36.3V8.73H27.12V25.17H22.53V4.44H40.89Z" transform="translate(-0.89 -4.09)"/><path d="M49.33,25.17H44.74V4.44h4.59v8.08l8-8.08h6l-9,9.18,9.59,11.55h-6l-7-8.47-1.48,1.51Z" transform="translate(-0.89 -4.09)"/><path d="M70.09,18.65v6.52H65.5V4.44h8.58a13.76,13.76,0,0,1,4.42.65,6.57,6.57,0,0,1,3.14,2.3,6.79,6.79,0,0,1,1.24,4.19,6.45,6.45,0,0,1-1.3,4.1A7,7,0,0,1,78.36,18a13,13,0,0,1-4.28.66ZM74.2,8.73H70.09v5.63H74q4.08,0,4.08-2.81T74.2,8.73Z" transform="translate(-0.89 -4.09)"/><path class="ac976882-dd24-4cdb-a4fd-394aa4842812" d="M97.12,25.17H92.53V4.44h15.55V8.73h-11Z" transform="translate(-0.89 -4.09)"/><path class="ac976882-dd24-4cdb-a4fd-394aa4842812" d="M123.86,12.52l-10.1,12.65H110V4.44h4.59v12.7l10-12.7h3.82V25.17h-4.59Z" transform="translate(-0.89 -4.09)"/><path class="ac976882-dd24-4cdb-a4fd-394aa4842812" d="M135,25.17h-4.74l9.1-20.73h3.4l9.09,20.73H147l-1.68-3.85h-8.68Zm8.68-7.73L141,11.25l-2.72,6.19Z" transform="translate(-0.89 -4.09)"/><path d="M8.12,41.31H7.36V34.52H2.61v6.79H1.85V33.82H8.12Z" transform="translate(-0.89 -4.09)"/><path d="M9.32,38.52a2.82,2.82,0,0,1,.83-2.1,2.91,2.91,0,0,1,2.1-.82,2.86,2.86,0,0,1,2.11.83,2.83,2.83,0,0,1,.83,2.09,2.78,2.78,0,0,1-.84,2.09,2.89,2.89,0,0,1-2.1.81,2.86,2.86,0,0,1-2.11-.82A2.81,2.81,0,0,1,9.32,38.52Zm.74,0a2.19,2.19,0,0,0,.62,1.6,2.11,2.11,0,0,0,1.57.63,2.12,2.12,0,0,0,1.59-.63,2.23,2.23,0,0,0,.61-1.6,2.26,2.26,0,0,0-.62-1.62,2.1,2.1,0,0,0-1.58-.63,2.07,2.07,0,0,0-1.58.64A2.23,2.23,0,0,0,10.06,38.52Z" transform="translate(-0.89 -4.09)"/><path d="M20.83,41.31h-.7v-4.9H17.36v1c0,.24,0,.47,0,.7s0,.51-.08.83a3.89,3.89,0,0,1-.18.89,5,5,0,0,1-.31.76,1.4,1.4,0,0,1-.5.57,1.18,1.18,0,0,1-.7.2h-.18l-.06-.69c.42.05.75-.19,1-.73a6.66,6.66,0,0,0,.35-2.54V35.74h4.17Z" transform="translate(-0.89 -4.09)"/><path d="M22.51,43.48l.19-.67a1.11,1.11,0,0,0,.27.06,1,1,0,0,0,.45-.11,1.1,1.1,0,0,0,.35-.36A3.82,3.82,0,0,0,24,42l.19-.45.15-.37-2.85-5.45h.84l2.38,4.58,1.81-4.58h.77L25,41.29a5.22,5.22,0,0,1-1.17,2,1.34,1.34,0,0,1-.89.29A1.32,1.32,0,0,1,22.51,43.48Z" transform="translate(-0.89 -4.09)"/><path d="M28.28,36.92l-.37-.53a2.68,2.68,0,0,1,1-.58,3.43,3.43,0,0,1,1.16-.21,2.31,2.31,0,0,1,1.7.58,2.24,2.24,0,0,1,.59,1.67v3.46h-.7v-.92a2.12,2.12,0,0,1-.9.74,2.9,2.9,0,0,1-1.19.26A2.4,2.4,0,0,1,28.13,41a1.45,1.45,0,0,1-.59-1.23c0-1.13.91-1.7,2.71-1.7a4.81,4.81,0,0,1,1.4.18,2.31,2.31,0,0,0-.38-1.46,1.55,1.55,0,0,0-1.3-.48A2.74,2.74,0,0,0,28.28,36.92Zm.44,3.56a2,2,0,0,0,1,.26,2,2,0,0,0,1.13-.35,1.93,1.93,0,0,0,.77-.89v-.66a3.94,3.94,0,0,0-1.3-.17c-1.39,0-2.08.34-2.08,1A.86.86,0,0,0,28.72,40.48Z" transform="translate(-0.89 -4.09)"/><path d="M36,41.31H33.67V35.74H36a5.83,5.83,0,0,1,.79,0,2.88,2.88,0,0,1,.69.17,1,1,0,0,1,.55.42,1.36,1.36,0,0,1,.2.76,1.31,1.31,0,0,1-.79,1.24,1.28,1.28,0,0,1,1,1.38,1.38,1.38,0,0,1-.21.78,1.27,1.27,0,0,1-.57.48,3.5,3.5,0,0,1-.74.23A5.17,5.17,0,0,1,36,41.31Zm-.12-4.91H34.36v1.75h1.86a1.58,1.58,0,0,0,.85-.22.77.77,0,0,0,.37-.69.71.71,0,0,0-.15-.46.72.72,0,0,0-.4-.27,2.48,2.48,0,0,0-.48-.09A3.62,3.62,0,0,0,35.92,36.4Zm.21,2.39H34.36v1.87H36c1.11,0,1.67-.32,1.67-.95S37.14,38.79,36.13,38.79Z" transform="translate(-0.89 -4.09)"/><path d="M41,36.41H38.79v-.67h5.1v.67H41.68v4.9H41Z" transform="translate(-0.89 -4.09)"/><path d="M44.06,38.52a2.79,2.79,0,0,1,.84-2.1A2.91,2.91,0,0,1,47,35.6a2.87,2.87,0,0,1,2.11.83,3.06,3.06,0,0,1,0,4.18,2.91,2.91,0,0,1-2.1.81,2.85,2.85,0,0,1-2.11-.82A2.82,2.82,0,0,1,44.06,38.52Zm.74,0a2.19,2.19,0,0,0,.62,1.6,2.13,2.13,0,0,0,1.58.63,2.09,2.09,0,0,0,1.58-.63,2.19,2.19,0,0,0,.61-1.6,2.25,2.25,0,0,0-.61-1.62A2.12,2.12,0,0,0,47,36.27a2.09,2.09,0,0,0-1.59.64A2.27,2.27,0,0,0,44.8,38.52Z" transform="translate(-0.89 -4.09)"/><path d="M51.7,41.31H51V35.74h.66l2.28,2.95,2.23-2.95h.62v5.57h-.7V36.94l-2.15,2.82L51.7,36.94Z" transform="translate(-0.89 -4.09)"/><path d="M58.52,36.92l-.37-.53a2.68,2.68,0,0,1,1-.58,3.43,3.43,0,0,1,1.16-.21,2.31,2.31,0,0,1,1.7.58,2.24,2.24,0,0,1,.59,1.67v3.46h-.7v-.92a2.12,2.12,0,0,1-.9.74,2.91,2.91,0,0,1-1.2.26A2.39,2.39,0,0,1,58.37,41a1.45,1.45,0,0,1-.59-1.23c0-1.13.9-1.7,2.71-1.7a4.81,4.81,0,0,1,1.4.18,2.31,2.31,0,0,0-.38-1.46,1.55,1.55,0,0,0-1.3-.48A2.72,2.72,0,0,0,58.52,36.92ZM59,40.48a2,2,0,0,0,1,.26,2,2,0,0,0,1.13-.35,2,2,0,0,0,.77-.89v-.66a3.94,3.94,0,0,0-1.3-.17c-1.39,0-2.08.34-2.08,1A.86.86,0,0,0,59,40.48Z" transform="translate(-0.89 -4.09)"/><path d="M65.4,36.41H63.21v-.67h5.11v.67H66.1v4.9h-.7Z" transform="translate(-0.89 -4.09)"/><path d="M73.38,36.78l-3.67,4.53H69V35.74h.7v4.54l3.67-4.54h.68v5.57h-.7Z" transform="translate(-0.89 -4.09)"/><path d="M79.17,35.74h.7v5.57h-.7V38.86a2.48,2.48,0,0,1-1.84.67A2.16,2.16,0,0,1,75.72,39a2.31,2.31,0,0,1-.54-1.65V35.74h.7v1.45q0,1.68,1.56,1.68a2.24,2.24,0,0,0,1-.24,1.74,1.74,0,0,0,.75-.62Z" transform="translate(-0.89 -4.09)"/><path d="M85.64,39.83l.47.42a2.46,2.46,0,0,1-1,.86,2.61,2.61,0,0,1-1.26.31,3,3,0,0,1-2.15-.8,2.84,2.84,0,0,1-.81-2.1,2.93,2.93,0,0,1,.77-2.11,2.71,2.71,0,0,1,2.05-.81,4,4,0,0,1,.59.06,2.33,2.33,0,0,1,1.44.86,2.55,2.55,0,0,1,.53,1.61,4.83,4.83,0,0,1,0,.6H81.68a1.93,1.93,0,0,0,.66,1.49,2.35,2.35,0,0,0,1.59.53,2,2,0,0,0,1-.25A2,2,0,0,0,85.64,39.83ZM83.7,36.26a2,2,0,0,0-1.39.5,2,2,0,0,0-.64,1.33h3.9a1.72,1.72,0,0,0-1.87-1.83Z" transform="translate(-0.89 -4.09)"/><path d="M91.64,39.87l.48.38a2.09,2.09,0,0,1-.93.85,2.86,2.86,0,0,1-1.29.32,2.94,2.94,0,0,1-2.14-.8,2.81,2.81,0,0,1-.82-2.1,2.78,2.78,0,0,1,.83-2.1,2.87,2.87,0,0,1,2.09-.82,3.06,3.06,0,0,1,1.24.28,2,2,0,0,1,.92.78l-.54.39a1.94,1.94,0,0,0-1.62-.78,2.07,2.07,0,0,0-1.57.65,2.25,2.25,0,0,0-.61,1.6,2.16,2.16,0,0,0,.63,1.62,2.26,2.26,0,0,0,1.65.61,2.12,2.12,0,0,0,1.68-.88Z" transform="translate(-0.89 -4.09)"/><path d="M93.63,41.31h-.7V35.74h.7v2.69l3.08-2.69h1l-3,2.58,3.16,3h-1l-2.74-2.56-.5.45Z" transform="translate(-0.89 -4.09)"/><path d="M98.88,36.92l-.38-.53a2.68,2.68,0,0,1,1-.58,3.47,3.47,0,0,1,1.16-.21,2.29,2.29,0,0,1,1.7.58,2.2,2.2,0,0,1,.59,1.67v3.46h-.69v-.92a2.09,2.09,0,0,1-.91.74,2.9,2.9,0,0,1-1.19.26A2.37,2.37,0,0,1,98.73,41a1.42,1.42,0,0,1-.59-1.23c0-1.13.9-1.7,2.71-1.7a4.81,4.81,0,0,1,1.4.18,2.38,2.38,0,0,0-.38-1.46,1.58,1.58,0,0,0-1.3-.48A2.7,2.7,0,0,0,98.88,36.92Zm.43,3.56a2,2,0,0,0,1,.26,2,2,0,0,0,1.13-.35,2,2,0,0,0,.78-.89v-.66a4,4,0,0,0-1.31-.17c-1.38,0-2.08.34-2.08,1A.86.86,0,0,0,99.31,40.48Z" transform="translate(-0.89 -4.09)"/><path d="M106.39,35.74h2.21v5.57h-.7V39.24h-1.55l-1.81,2.07h-.88l1.9-2.16a1.87,1.87,0,0,1-1.09-.55,1.54,1.54,0,0,1-.43-1.1,1.57,1.57,0,0,1,.36-1.07,1.85,1.85,0,0,1,.86-.55A4.31,4.31,0,0,1,106.39,35.74Zm-1.62,1.77a1,1,0,0,0,.7.92,2.22,2.22,0,0,0,.8.15h1.63V36.41h-1.62a2.09,2.09,0,0,0-1.07.25A.91.91,0,0,0,104.77,37.51Z" transform="translate(-0.89 -4.09)"/><path d="M117.58,39.87l.48.38a2.09,2.09,0,0,1-.93.85,2.85,2.85,0,0,1-1.28.32,3,3,0,0,1-2.15-.8,3.09,3.09,0,0,1,0-4.2,2.87,2.87,0,0,1,2.09-.82,3.11,3.11,0,0,1,1.25.28,2.15,2.15,0,0,1,.92.78l-.55.39a1.91,1.91,0,0,0-1.62-.78,2.1,2.1,0,0,0-1.57.65,2.25,2.25,0,0,0-.61,1.6,2.16,2.16,0,0,0,.63,1.62,2.26,2.26,0,0,0,1.65.61,2,2,0,0,0,.95-.24A2,2,0,0,0,117.58,39.87Z" transform="translate(-0.89 -4.09)"/><path d="M123.22,36.78l-3.67,4.53h-.67V35.74h.69v4.54l3.67-4.54h.68v5.57h-.7Z" transform="translate(-0.89 -4.09)"/><path d="M129.69,39.87l.48.38a2.09,2.09,0,0,1-.93.85,2.85,2.85,0,0,1-1.28.32,3,3,0,0,1-2.15-.8,3.09,3.09,0,0,1,0-4.2,2.87,2.87,0,0,1,2.09-.82,3.11,3.11,0,0,1,1.25.28,2.15,2.15,0,0,1,.92.78l-.55.39a1.91,1.91,0,0,0-1.62-.78,2.09,2.09,0,0,0-1.57.65,2.25,2.25,0,0,0-.61,1.6,2.16,2.16,0,0,0,.63,1.62,2.26,2.26,0,0,0,1.65.61,2,2,0,0,0,1-.24A2.05,2.05,0,0,0,129.69,39.87Z" transform="translate(-0.89 -4.09)"/><path d="M132.45,36.41h-2.19v-.67h5.11v.67h-2.22v4.9h-.7Z" transform="translate(-0.89 -4.09)"/><path d="M140.24,39.83l.47.42a2.46,2.46,0,0,1-1,.86,2.68,2.68,0,0,1-1.27.31,2.94,2.94,0,0,1-2.14-.8,2.84,2.84,0,0,1-.81-2.1,2.89,2.89,0,0,1,.77-2.11,2.67,2.67,0,0,1,2-.81,3.89,3.89,0,0,1,.59.06,2.32,2.32,0,0,1,1.45.86,2.55,2.55,0,0,1,.52,1.61,4.62,4.62,0,0,1,0,.6h-4.59a2,2,0,0,0,.65,1.49,2.35,2.35,0,0,0,1.59.53,2,2,0,0,0,1-.25A2.21,2.21,0,0,0,140.24,39.83Zm-1.94-3.57a2,2,0,0,0-1.39.5,2,2,0,0,0-.64,1.33h3.89a1.81,1.81,0,0,0-.52-1.35A1.85,1.85,0,0,0,138.3,36.26Z" transform="translate(-0.89 -4.09)"/><path d="M142.68,41.31H142V35.74h.66l2.28,2.95,2.23-2.95h.62v5.57h-.7V36.94l-2.15,2.82-2.24-2.82Z" transform="translate(-0.89 -4.09)"/><path d="M149.5,36.92l-.38-.53a2.8,2.8,0,0,1,1-.58,3.43,3.43,0,0,1,1.16-.21,2.31,2.31,0,0,1,1.7.58,2.24,2.24,0,0,1,.59,1.67v3.46h-.7v-.92a2.12,2.12,0,0,1-.9.74,2.91,2.91,0,0,1-1.2.26,2.39,2.39,0,0,1-1.42-.43,1.45,1.45,0,0,1-.59-1.23c0-1.13.9-1.7,2.71-1.7a4.81,4.81,0,0,1,1.4.18,2.31,2.31,0,0,0-.38-1.46,1.55,1.55,0,0,0-1.3-.48A2.72,2.72,0,0,0,149.5,36.92Zm.44,3.56a2,2,0,0,0,1,.26,2,2,0,0,0,1.13-.35,2,2,0,0,0,.77-.89v-.66a3.94,3.94,0,0,0-1.3-.17c-1.39,0-2.08.34-2.08,1A.86.86,0,0,0,149.94,40.48Z" transform="translate(-0.89 -4.09)"/><path d="M6.6,54.16H5.9v-4.9H2.42v4.9H1.73V48.59H6.6Z" transform="translate(-0.89 -4.09)"/><path d="M8.71,56.3H8V48.59h.7v.83a1.79,1.79,0,0,1,.83-.72,2.94,2.94,0,0,1,1.15-.25,2.45,2.45,0,0,1,1.93.8,2.94,2.94,0,0,1,.7,2,3,3,0,0,1-.77,2.13,2.54,2.54,0,0,1-2,.87,2.46,2.46,0,0,1-1.84-.67Zm1.92-7.18a2,2,0,0,0-1.17.37,1.89,1.89,0,0,0-.75.95v2.17a2,2,0,0,0,1.82,1A1.83,1.83,0,0,0,12,52.93a2.65,2.65,0,0,0,.05-3.19A1.77,1.77,0,0,0,10.63,49.12Z" transform="translate(-0.89 -4.09)"/><path d="M14.06,51.37a2.79,2.79,0,0,1,.84-2.1,2.84,2.84,0,0,1,2.1-.82,2.87,2.87,0,0,1,2.11.83,2.82,2.82,0,0,1,.82,2.09,2.78,2.78,0,0,1-.84,2.09,2.87,2.87,0,0,1-2.09.81,2.89,2.89,0,0,1-2.11-.82A2.82,2.82,0,0,1,14.06,51.37Zm.74,0a2.21,2.21,0,0,0,.62,1.6A2.13,2.13,0,0,0,17,53.6,2.1,2.1,0,0,0,18.58,53a2.2,2.2,0,0,0,.61-1.6,2.25,2.25,0,0,0-.61-1.62A2.12,2.12,0,0,0,17,49.12a2.09,2.09,0,0,0-1.59.64A2.23,2.23,0,0,0,14.8,51.37Z" transform="translate(-0.89 -4.09)"/><path d="M23.38,54.16H21V48.59h2.28c.31,0,.57,0,.79,0a3.2,3.2,0,0,1,.69.18,1,1,0,0,1,.56.42,1.44,1.44,0,0,1,.19.75,1.32,1.32,0,0,1-.78,1.25,1.26,1.26,0,0,1,1,1.38,1.42,1.42,0,0,1-.21.78,1.34,1.34,0,0,1-.57.48,3.33,3.33,0,0,1-.74.23A5.13,5.13,0,0,1,23.38,54.16Zm-.13-4.91H21.7V51h1.85a1.62,1.62,0,0,0,.86-.22.78.78,0,0,0-.19-1.42,2.4,2.4,0,0,0-.47-.09A3.78,3.78,0,0,0,23.25,49.25Zm.21,2.39H21.7v1.87h1.6c1.12,0,1.67-.32,1.67-1S24.47,51.64,23.46,51.64Z" transform="translate(-0.89 -4.09)"/><path d="M31.17,52.68l.47.42a2.46,2.46,0,0,1-.95.86,2.73,2.73,0,0,1-1.26.31,2.89,2.89,0,0,1-2.14-.81,2.77,2.77,0,0,1-.82-2.09,2.91,2.91,0,0,1,.77-2.11,2.71,2.71,0,0,1,2.05-.81,4,4,0,0,1,.59.06,2.33,2.33,0,0,1,1.44.86A2.55,2.55,0,0,1,31.85,51a4.83,4.83,0,0,1-.05.6H27.21a2,2,0,0,0,.66,1.49,2.4,2.4,0,0,0,1.59.53,2,2,0,0,0,1-.25A2.13,2.13,0,0,0,31.17,52.68Zm-1.94-3.57a2,2,0,0,0-1.39.5,2,2,0,0,0-.64,1.33h3.9a1.89,1.89,0,0,0-.52-1.35A1.86,1.86,0,0,0,29.23,49.11Z" transform="translate(-0.89 -4.09)"/><path d="M33.61,56.3h-.69V48.59h.69v.83a1.87,1.87,0,0,1,.84-.72,2.87,2.87,0,0,1,1.15-.25,2.45,2.45,0,0,1,1.93.8,2.94,2.94,0,0,1,.7,2,3.08,3.08,0,0,1-.77,2.13,2.56,2.56,0,0,1-2,.87,2.49,2.49,0,0,1-1.85-.67Zm1.92-7.18a2.07,2.07,0,0,0-1.92,1.32v2.17a2,2,0,0,0,1.82,1,1.85,1.85,0,0,0,1.5-.67,2.43,2.43,0,0,0,.56-1.61A2.35,2.35,0,0,0,37,49.74,1.77,1.77,0,0,0,35.53,49.12Z" transform="translate(-0.89 -4.09)"/><path d="M40,54.16h-.7V48.59H40v2.69l3.08-2.69H44l-3,2.58,3.15,3h-1L40.51,51.6l-.5.45Z" transform="translate(-0.89 -4.09)"/><path d="M49.28,49.63l-3.67,4.53h-.68V48.59h.7v4.54l3.67-4.54H50v5.57h-.7Z" transform="translate(-0.89 -4.09)"/><path d="M59,49.63l-3.68,4.53H54.6V48.59h.7v4.54L59,48.59h.67v5.57H59Z" transform="translate(-0.89 -4.09)"/><path d="M65,54.16h-.69V48.59H65v2.69l3.09-2.69h1l-3,2.58,3.16,3h-1L65.47,51.6l-.51.45Z" transform="translate(-0.89 -4.09)"/><path d="M69.25,51.37a2.82,2.82,0,0,1,.83-2.1,3.1,3.1,0,0,1,4.21,0,2.83,2.83,0,0,1,.83,2.09,2.78,2.78,0,0,1-.84,2.09,3.13,3.13,0,0,1-4.21,0A2.81,2.81,0,0,1,69.25,51.37Zm.74,0a2.17,2.17,0,0,0,.62,1.6,2.3,2.3,0,0,0,3.16,0,2.41,2.41,0,0,0,0-3.22,2.12,2.12,0,0,0-1.58-.63,2.06,2.06,0,0,0-1.58.64A2.23,2.23,0,0,0,70,51.37Z" transform="translate(-0.89 -4.09)"/><path d="M81.12,54.16h-.69V51.65H76.88v2.51h-.69V48.59h.69V51h3.55v-2.4h.69Z" transform="translate(-0.89 -4.09)"/><path d="M84,49.26H81.84v-.67H87v.67H84.73v4.9H84Z" transform="translate(-0.89 -4.09)"/><path d="M88.36,56.3h-.7V48.59h.7v.83a1.82,1.82,0,0,1,.84-.72,2.86,2.86,0,0,1,1.14-.25,2.43,2.43,0,0,1,1.93.8,3,3,0,0,1,.71,2,3,3,0,0,1-.78,2.13,2.54,2.54,0,0,1-2,.87,2.46,2.46,0,0,1-1.84-.67Zm1.92-7.18a2,2,0,0,0-1.17.37,1.89,1.89,0,0,0-.75.95v2.17a2,2,0,0,0,1.82,1,1.83,1.83,0,0,0,1.49-.67,2.61,2.61,0,0,0,0-3.19A1.77,1.77,0,0,0,90.28,49.12Z" transform="translate(-0.89 -4.09)"/><path d="M93.71,51.37a2.79,2.79,0,0,1,.84-2.1,3.1,3.1,0,0,1,4.21,0,3.06,3.06,0,0,1,0,4.18,3.13,3.13,0,0,1-4.21,0A2.82,2.82,0,0,1,93.71,51.37Zm.74,0a2.21,2.21,0,0,0,.62,1.6,2.13,2.13,0,0,0,1.58.63A2.09,2.09,0,0,0,98.23,53a2.2,2.2,0,0,0,.61-1.6,2.25,2.25,0,0,0-.61-1.62,2.12,2.12,0,0,0-1.58-.63,2.09,2.09,0,0,0-1.59.64A2.27,2.27,0,0,0,94.45,51.37Z" transform="translate(-0.89 -4.09)"/><path d="M105.22,54.16h-.69v-4.9h-2.78v1c0,.24,0,.47,0,.7s0,.51-.07.83a5.6,5.6,0,0,1-.18.89,5.09,5.09,0,0,1-.32.76,1.52,1.52,0,0,1-.49.57,1.3,1.3,0,0,1-.7.2h-.19l-.06-.69c.42,0,.75-.19,1-.73a6.87,6.87,0,0,0,.35-2.54V48.59h4.16Z" transform="translate(-0.89 -4.09)"/><path d="M108.76,48.59H111v5.57h-.69V52.09h-1.56l-1.8,2.07H106L107.92,52a1.84,1.84,0,0,1-1.08-.55,1.55,1.55,0,0,1-.44-1.1,1.53,1.53,0,0,1,.37-1.07,1.77,1.77,0,0,1,.86-.55A4.31,4.31,0,0,1,108.76,48.59Zm-1.62,1.77a.94.94,0,0,0,.14.46.92.92,0,0,0,.55.46,2.32,2.32,0,0,0,.81.15h1.63V49.26h-1.62a2.11,2.11,0,0,0-1.08.25A.92.92,0,0,0,107.14,50.36Z" transform="translate(-0.89 -4.09)"/><path d="M116.28,56.3h-.69V48.59h.69v.83a1.87,1.87,0,0,1,.84-.72,2.87,2.87,0,0,1,1.15-.25,2.45,2.45,0,0,1,1.93.8,2.94,2.94,0,0,1,.7,2,3.08,3.08,0,0,1-.77,2.13,2.56,2.56,0,0,1-2,.87,2.49,2.49,0,0,1-1.85-.67Zm1.92-7.18a2.07,2.07,0,0,0-1.92,1.32v2.17a2,2,0,0,0,1.82,1,1.85,1.85,0,0,0,1.5-.67,2.43,2.43,0,0,0,.56-1.61,2.35,2.35,0,0,0-.52-1.58A1.77,1.77,0,0,0,118.2,49.12Z" transform="translate(-0.89 -4.09)"/><path d="M126.34,52.68l.47.42a2.46,2.46,0,0,1-1,.86,2.8,2.8,0,0,1-1.27.31,2.9,2.9,0,0,1-2.14-.81,2.8,2.8,0,0,1-.81-2.09,2.91,2.91,0,0,1,.77-2.11,2.67,2.67,0,0,1,2-.81,3.89,3.89,0,0,1,.59.06,2.32,2.32,0,0,1,1.45.86A2.55,2.55,0,0,1,127,51a4.62,4.62,0,0,1,0,.6h-4.59a2,2,0,0,0,.66,1.49,2.37,2.37,0,0,0,1.59.53,2,2,0,0,0,1-.25A2.32,2.32,0,0,0,126.34,52.68Zm-1.94-3.57a1.95,1.95,0,0,0-2,1.83h3.89a1.81,1.81,0,0,0-.52-1.35A1.85,1.85,0,0,0,124.4,49.11Z" transform="translate(-0.89 -4.09)"/><path d="M130.14,54.27A2.81,2.81,0,0,1,127.58,53l.56-.4a1.67,1.67,0,0,0,.8.72,2.57,2.57,0,0,0,1.11.25,3.2,3.2,0,0,0,.75-.09,1.82,1.82,0,0,0,.67-.36.81.81,0,0,0,.31-.65c0-.58-.43-.87-1.28-.87h-1.35V51h1.29a1.22,1.22,0,0,0,.78-.26.8.8,0,0,0,.34-.68.75.75,0,0,0-.15-.47.85.85,0,0,0-.4-.3,2.34,2.34,0,0,0-.5-.14,2.74,2.74,0,0,0-.5,0,2.14,2.14,0,0,0-1.71.81l-.53-.34a2.1,2.1,0,0,1,1-.83,3.23,3.23,0,0,1,1.35-.3,4,4,0,0,1,1,.12,1.78,1.78,0,0,1,.83.47,1.16,1.16,0,0,1,.37.89,1.34,1.34,0,0,1-.75,1.25,1.34,1.34,0,0,1,1,1.3,1.47,1.47,0,0,1-.73,1.33A3.05,3.05,0,0,1,130.14,54.27Z" transform="translate(-0.89 -4.09)"/><path d="M133.9,56.33l.19-.67a1.11,1.11,0,0,0,.27.06.83.83,0,0,0,.44-.12,1,1,0,0,0,.36-.35,3.82,3.82,0,0,0,.23-.39l.19-.45.15-.37-2.85-5.45h.84l2.37,4.57,1.81-4.57h.77l-2.24,5.55a5.31,5.31,0,0,1-1.17,2,1.36,1.36,0,0,1-.89.29A1.28,1.28,0,0,1,133.9,56.33Z" transform="translate(-0.89 -4.09)"/><path d="M143.81,54.16h-.69v-4.9h-2.78v1c0,.24,0,.47,0,.7s0,.51-.07.83a5.6,5.6,0,0,1-.18.89,6.41,6.41,0,0,1-.32.76,1.61,1.61,0,0,1-.49.57,1.3,1.3,0,0,1-.7.2h-.19l-.06-.69c.42,0,.75-.19,1-.73a6.63,6.63,0,0,0,.36-2.54V48.59h4.16Z" transform="translate(-0.89 -4.09)"/><path d="M147.42,54.16h-2.2V48.59h.69v1.82h1.6c1.49,0,2.23.62,2.23,1.86a1.61,1.61,0,0,1-.65,1.44A2.86,2.86,0,0,1,147.42,54.16Zm0-3.08h-1.48V53.5h1.47c1.08,0,1.63-.41,1.63-1.21S148.47,51.08,147.39,51.08Z" transform="translate(-0.89 -4.09)"/><path d="M151.76,49.26h-2.2v-.67h5.11v.67h-2.22v4.9h-.69Z" transform="translate(-0.89 -4.09)"/><path d="M155.71,49.77l-.38-.54a3,3,0,0,1,1-.57,3.53,3.53,0,0,1,1.17-.21,2.31,2.31,0,0,1,1.7.58,2.24,2.24,0,0,1,.59,1.67v3.46h-.7v-.92a2.12,2.12,0,0,1-.9.74,2.9,2.9,0,0,1-1.2.25,2.38,2.38,0,0,1-1.42-.42,1.45,1.45,0,0,1-.59-1.24c0-1.12.9-1.69,2.71-1.69a5.21,5.21,0,0,1,1.4.17,2.3,2.3,0,0,0-.38-1.45,1.57,1.57,0,0,0-1.3-.48A2.67,2.67,0,0,0,155.71,49.77Zm.44,3.56a2,2,0,0,0,1,.26,2.13,2.13,0,0,0,1.13-.35,2,2,0,0,0,.77-.89v-.66a3.94,3.94,0,0,0-1.3-.17c-1.39,0-2.08.33-2.08,1A.87.87,0,0,0,156.15,53.33Z" transform="translate(-0.89 -4.09)"/><path d="M162.59,49.26H160.4v-.67h5.11v.67h-2.22v4.9h-.7Z" transform="translate(-0.89 -4.09)"/><path d="M165.68,51.37a2.82,2.82,0,0,1,.83-2.1,3.1,3.1,0,0,1,4.21,0,2.83,2.83,0,0,1,.83,2.09,2.78,2.78,0,0,1-.84,2.09,3.13,3.13,0,0,1-4.21,0A2.81,2.81,0,0,1,165.68,51.37Zm.74,0A2.17,2.17,0,0,0,167,53a2.3,2.3,0,0,0,3.16,0,2.41,2.41,0,0,0,0-3.22,2.12,2.12,0,0,0-1.58-.63,2.06,2.06,0,0,0-1.58.64A2.23,2.23,0,0,0,166.42,51.37Z" transform="translate(-0.89 -4.09)"/><path d="M175,54.16h-2.37V48.59h2.28c.3,0,.57,0,.78,0a3.2,3.2,0,0,1,.69.18,1,1,0,0,1,.56.42,1.35,1.35,0,0,1,.19.75,1.32,1.32,0,0,1-.78,1.25,1.26,1.26,0,0,1,1,1.38,1.42,1.42,0,0,1-.21.78,1.34,1.34,0,0,1-.57.48,3.5,3.5,0,0,1-.74.23A5.17,5.17,0,0,1,175,54.16Zm-.13-4.91h-1.55V51h1.85a1.6,1.6,0,0,0,.86-.22.76.76,0,0,0,.36-.69.75.75,0,0,0-.14-.47.79.79,0,0,0-.41-.26,2.27,2.27,0,0,0-.47-.09A3.7,3.7,0,0,0,174.86,49.25Zm.22,2.39h-1.77v1.87h1.61c1.11,0,1.67-.32,1.67-1S176.08,51.64,175.08,51.64Z" transform="translate(-0.89 -4.09)"/><path d="M2.42,67H1.73V61.44h4v.66H2.42Z" transform="translate(-0.89 -4.09)"/><path d="M5.87,64.21a2.78,2.78,0,0,1,.84-2.09,2.84,2.84,0,0,1,2.1-.82,2.85,2.85,0,0,1,2.1.83,2.82,2.82,0,0,1,.83,2.08,2.79,2.79,0,0,1-.84,2.1,2.87,2.87,0,0,1-2.09.81A2.89,2.89,0,0,1,6.7,66.3,2.83,2.83,0,0,1,5.87,64.21Zm.74,0a2.22,2.22,0,0,0,.62,1.61,2.13,2.13,0,0,0,1.58.63,2.12,2.12,0,0,0,1.58-.63A2.21,2.21,0,0,0,11,64.21a2.23,2.23,0,0,0-.62-1.61A2.09,2.09,0,0,0,8.81,62a2.09,2.09,0,0,0-1.59.64A2.22,2.22,0,0,0,6.61,64.21Z" transform="translate(-0.89 -4.09)"/><path d="M17.17,65.56l.48.39a2.09,2.09,0,0,1-.93.85,2.86,2.86,0,0,1-1.29.32,2.9,2.9,0,0,1-2.14-.81,3.07,3.07,0,0,1,0-4.19,2.83,2.83,0,0,1,2.09-.82,3,3,0,0,1,1.24.28,2,2,0,0,1,.92.78l-.54.39A1.92,1.92,0,0,0,15.39,62a2,2,0,0,0-1.57.65,2.25,2.25,0,0,0-.61,1.59,2.17,2.17,0,0,0,.63,1.63,2.26,2.26,0,0,0,1.65.61,2,2,0,0,0,.94-.24A1.94,1.94,0,0,0,17.17,65.56Z" transform="translate(-0.89 -4.09)"/><path d="M18.68,69.18l.19-.67a1.11,1.11,0,0,0,.27.06.83.83,0,0,0,.44-.12,1.08,1.08,0,0,0,.36-.35c.1-.16.18-.29.23-.39l.19-.45.15-.37-2.85-5.45h.84L20.87,66l1.81-4.57h.77L21.2,67A5.18,5.18,0,0,1,20,69a1.36,1.36,0,0,1-.89.29A1.28,1.28,0,0,1,18.68,69.18Z" transform="translate(-0.89 -4.09)"/><path d="M23.81,68.4h-.67V66.35h.6a6.74,6.74,0,0,0,.77-3.72V61.44h4.08v4.91h.83V68.4h-.67V67H23.81Zm4.09-6.3H25.19v.66a7.46,7.46,0,0,1-.68,3.59H27.9Z" transform="translate(-0.89 -4.09)"/><path d="M30.49,62.62l-.38-.54a3,3,0,0,1,1-.57,3.52,3.52,0,0,1,1.16-.21,2.33,2.33,0,0,1,1.71.58,2.24,2.24,0,0,1,.59,1.67V67h-.7v-.92a2.12,2.12,0,0,1-.9.74,2.93,2.93,0,0,1-1.2.25,2.36,2.36,0,0,1-1.42-.42,1.43,1.43,0,0,1-.59-1.24c0-1.12.9-1.69,2.71-1.69a5.21,5.21,0,0,1,1.4.17,2.37,2.37,0,0,0-.38-1.45,1.57,1.57,0,0,0-1.3-.48A2.67,2.67,0,0,0,30.49,62.62Zm.44,3.56a2,2,0,0,0,1,.26,2.08,2.08,0,0,0,1.13-.35,2,2,0,0,0,.78-.89v-.66a4,4,0,0,0-1.31-.18q-2.07,0-2.07,1A.87.87,0,0,0,30.93,66.18Z" transform="translate(-0.89 -4.09)"/><path d="M36.57,69.15h-.7V61.44h.7v.83a1.79,1.79,0,0,1,.83-.72,2.94,2.94,0,0,1,1.15-.25,2.43,2.43,0,0,1,1.93.8,2.92,2.92,0,0,1,.7,2,3,3,0,0,1-.77,2.13,2.54,2.54,0,0,1-2,.87,2.46,2.46,0,0,1-1.84-.67ZM38.49,62a2,2,0,0,0-1.17.37,1.89,1.89,0,0,0-.75.95v2.17a2,2,0,0,0,1.82,1,1.83,1.83,0,0,0,1.49-.67,2.61,2.61,0,0,0,0-3.19A1.77,1.77,0,0,0,38.49,62Z" transform="translate(-0.89 -4.09)"/><path d="M46.62,65.56l.48.39a2,2,0,0,1-.93.85,2.85,2.85,0,0,1-1.28.32,2.93,2.93,0,0,1-2.15-.81,3.07,3.07,0,0,1,0-4.19,2.86,2.86,0,0,1,2.1-.82,3.06,3.06,0,0,1,1.24.28,2.15,2.15,0,0,1,.92.78l-.55.39A1.91,1.91,0,0,0,44.85,62a2,2,0,0,0-1.57.65,2.25,2.25,0,0,0-.62,1.59,2.17,2.17,0,0,0,.63,1.63,2.26,2.26,0,0,0,1.65.61,2,2,0,0,0,1-.24A1.91,1.91,0,0,0,46.62,65.56Z" transform="translate(-0.89 -4.09)"/><path d="M49.39,62.1h-2.2v-.66H52.3v.66H50.08V67h-.69Z" transform="translate(-0.89 -4.09)"/><path d="M55.39,67H53V61.44H55.3c.3,0,.57,0,.78,0a3.2,3.2,0,0,1,.69.18,1,1,0,0,1,.56.42,1.45,1.45,0,0,1-.59,2,1.26,1.26,0,0,1,1,1.38,1.42,1.42,0,0,1-.21.78,1.34,1.34,0,0,1-.57.48,3,3,0,0,1-.74.22A4.18,4.18,0,0,1,55.39,67Zm-.13-4.92H53.71v1.76h1.85a1.6,1.6,0,0,0,.86-.22.76.76,0,0,0,.36-.69.7.7,0,0,0-.14-.46.74.74,0,0,0-.41-.27,2.27,2.27,0,0,0-.47-.09A3.53,3.53,0,0,0,55.26,62.09Zm.22,2.4H53.71v1.87h1.61c1.11,0,1.67-.32,1.67-1S56.48,64.49,55.48,64.49Z" transform="translate(-0.89 -4.09)"/><path d="M63.19,65.53l.47.42a2.46,2.46,0,0,1-.95.86,2.8,2.8,0,0,1-1.27.31,2.9,2.9,0,0,1-2.14-.81,2.81,2.81,0,0,1-.81-2.1,2.9,2.9,0,0,1,.77-2.11,2.7,2.7,0,0,1,2-.8,3.89,3.89,0,0,1,.59.06,2.28,2.28,0,0,1,1.45.86,2.55,2.55,0,0,1,.52,1.61,4.62,4.62,0,0,1,0,.6H59.23a2,2,0,0,0,.65,1.49,2.4,2.4,0,0,0,1.59.53,2,2,0,0,0,1-.25A2.32,2.32,0,0,0,63.19,65.53ZM61.25,62a1.95,1.95,0,0,0-2,1.83h3.89a1.81,1.81,0,0,0-.52-1.35A1.85,1.85,0,0,0,61.25,62Z" transform="translate(-0.89 -4.09)"/><path d="M69.87,67h-.7V64.5H65.63V67h-.7V61.44h.7v2.4h3.54v-2.4h.7Z" transform="translate(-0.89 -4.09)"/><path d="M76.22,67h-.7V64.5H72V67h-.7V61.44H72v2.4h3.54v-2.4h.7Z" transform="translate(-0.89 -4.09)"/><path d="M77.29,64.21a2.81,2.81,0,0,1,.83-2.09,3.1,3.1,0,0,1,4.21,0,2.82,2.82,0,0,1,.83,2.08,2.79,2.79,0,0,1-.84,2.1,2.87,2.87,0,0,1-2.1.81,2.9,2.9,0,0,1-2.11-.82A2.82,2.82,0,0,1,77.29,64.21Zm.74,0a2.22,2.22,0,0,0,.62,1.61,2.3,2.3,0,0,0,3.16,0,2.41,2.41,0,0,0,0-3.22A2.1,2.1,0,0,0,80.22,62a2.07,2.07,0,0,0-1.58.64A2.22,2.22,0,0,0,78,64.21Z" transform="translate(-0.89 -4.09)"/><path d="M88.57,62.48,84.9,67h-.67V61.44h.69V66l3.68-4.54h.67V67h-.7ZM85.08,59h.68a.93.93,0,0,0,.31.71,1.13,1.13,0,0,0,.77.27,1.37,1.37,0,0,0,.47-.1.78.78,0,0,0,.41-.33,1.18,1.18,0,0,0,.17-.55h.65A1.47,1.47,0,0,1,88,60.15a1.78,1.78,0,0,1-1.19.42,1.91,1.91,0,0,1-1.25-.4A1.45,1.45,0,0,1,85.08,59Z" transform="translate(-0.89 -4.09)"/><path d="M98.24,62.48,94.57,67H93.9V61.44h.69V66l3.67-4.54h.68V67h-.7Z" transform="translate(-0.89 -4.09)"/><path d="M101.85,62.1H99.66v-.66h5.1v.66h-2.21V67h-.7Z" transform="translate(-0.89 -4.09)"/><path d="M104.94,64.21a2.77,2.77,0,0,1,.83-2.09,3.1,3.1,0,0,1,4.21,0,3.06,3.06,0,0,1,0,4.18,3.13,3.13,0,0,1-4.21,0A2.82,2.82,0,0,1,104.94,64.21Zm.73,0a2.19,2.19,0,0,0,.63,1.61,2.28,2.28,0,0,0,3.15,0,2.43,2.43,0,0,0,0-3.22,2.12,2.12,0,0,0-1.58-.63,2.09,2.09,0,0,0-1.59.64A2.26,2.26,0,0,0,105.67,64.21Z" transform="translate(-0.89 -4.09)"/><path d="M112.57,67h-.7V61.44h4v.66h-3.28Z" transform="translate(-0.89 -4.09)"/><path d="M116,64.21a2.81,2.81,0,0,1,.83-2.09,3.1,3.1,0,0,1,4.21,0,2.82,2.82,0,0,1,.83,2.08,2.79,2.79,0,0,1-.84,2.1,3.13,3.13,0,0,1-4.21,0A2.82,2.82,0,0,1,116,64.21Zm.74,0a2.18,2.18,0,0,0,.62,1.61,2.3,2.3,0,0,0,3.16,0,2.41,2.41,0,0,0,0-3.22A2.12,2.12,0,0,0,119,62a2.06,2.06,0,0,0-1.58.64A2.22,2.22,0,0,0,116.76,64.21Z" transform="translate(-0.89 -4.09)"/><path d="M125.33,67H123V61.44h2.28c.3,0,.57,0,.78,0a3.2,3.2,0,0,1,.69.18,1,1,0,0,1,.56.42,1.45,1.45,0,0,1-.59,2,1.26,1.26,0,0,1,1,1.38,1.42,1.42,0,0,1-.21.78,1.34,1.34,0,0,1-.57.48,3,3,0,0,1-.74.22A4.18,4.18,0,0,1,125.33,67Zm-.13-4.92h-1.55v1.76h1.85a1.6,1.6,0,0,0,.86-.22.76.76,0,0,0,.36-.69.7.7,0,0,0-.14-.46.74.74,0,0,0-.41-.27,2.27,2.27,0,0,0-.47-.09A3.53,3.53,0,0,0,125.2,62.09Zm.22,2.4h-1.77v1.87h1.61c1.11,0,1.67-.32,1.67-1S126.42,64.49,125.42,64.49Z" transform="translate(-0.89 -4.09)"/><path d="M128.43,64.21a2.81,2.81,0,0,1,.83-2.09,3.1,3.1,0,0,1,4.21,0,2.82,2.82,0,0,1,.83,2.08,2.79,2.79,0,0,1-.84,2.1,3.13,3.13,0,0,1-4.21,0A2.82,2.82,0,0,1,128.43,64.21Zm.74,0a2.18,2.18,0,0,0,.62,1.61,2.3,2.3,0,0,0,3.16,0,2.41,2.41,0,0,0,0-3.22,2.12,2.12,0,0,0-1.58-.63,2.06,2.06,0,0,0-1.58.64A2.22,2.22,0,0,0,129.17,64.21Z" transform="translate(-0.89 -4.09)"/><path d="M139.71,62.48,136,67h-.67V61.44h.69V66l3.67-4.54h.68V67h-.7ZM136.22,59h.68a.89.89,0,0,0,.31.71A1.13,1.13,0,0,0,138,60a1.37,1.37,0,0,0,.47-.1.78.78,0,0,0,.41-.33A1.31,1.31,0,0,0,139,59h.65a1.47,1.47,0,0,1-.51,1.13,1.78,1.78,0,0,1-1.19.42,1.91,1.91,0,0,1-1.25-.4A1.45,1.45,0,0,1,136.22,59Z" transform="translate(-0.89 -4.09)"/><path d="M145.36,62.62l-.38-.54a2.89,2.89,0,0,1,1-.57,3.47,3.47,0,0,1,1.16-.21,2.33,2.33,0,0,1,1.71.58,2.23,2.23,0,0,1,.58,1.67V67h-.69v-.92a2.09,2.09,0,0,1-.91.74,2.89,2.89,0,0,1-1.19.25,2.36,2.36,0,0,1-1.42-.42,1.43,1.43,0,0,1-.59-1.24c0-1.12.9-1.69,2.71-1.69a5.21,5.21,0,0,1,1.4.17,2.37,2.37,0,0,0-.38-1.45,1.58,1.58,0,0,0-1.3-.48A2.67,2.67,0,0,0,145.36,62.62Zm.43,3.56a2.07,2.07,0,0,0,1,.26,2.11,2.11,0,0,0,1.13-.35,2,2,0,0,0,.78-.89v-.66a4,4,0,0,0-1.31-.18c-1.38,0-2.08.34-2.08,1A.87.87,0,0,0,145.79,66.18Z" transform="translate(-0.89 -4.09)"/><path d="M152.24,62.1h-2.19v-.66h5.1v.66h-2.21V67h-.7Z" transform="translate(-0.89 -4.09)"/><path d="M157.85,62.1h-2.19v-.66h5.1v.66h-2.21V67h-.7Z" transform="translate(-0.89 -4.09)"/><path d="M165.63,65.53l.48.42a2.48,2.48,0,0,1-1,.86,2.73,2.73,0,0,1-1.26.31,2.89,2.89,0,0,1-2.14-.81,2.82,2.82,0,0,1-.82-2.1,2.91,2.91,0,0,1,.78-2.11,2.7,2.7,0,0,1,2-.8,4,4,0,0,1,.59.06,2.26,2.26,0,0,1,1.44.86,2.55,2.55,0,0,1,.53,1.61c0,.17,0,.37,0,.6h-4.6a2,2,0,0,0,.66,1.49,2.4,2.4,0,0,0,1.59.53,2,2,0,0,0,1-.25A2.18,2.18,0,0,0,165.63,65.53ZM163.7,62a1.95,1.95,0,0,0-2,1.83h3.9A1.72,1.72,0,0,0,163.7,62Z" transform="translate(-0.89 -4.09)"/><path d="M171.63,65.56l.48.39a2.09,2.09,0,0,1-.93.85,2.85,2.85,0,0,1-1.28.32,2.93,2.93,0,0,1-2.15-.81,2.78,2.78,0,0,1-.82-2.1,2.82,2.82,0,0,1,2.92-2.91,3.07,3.07,0,0,1,1.25.28,2.15,2.15,0,0,1,.92.78l-.55.39a1.91,1.91,0,0,0-1.62-.78,2,2,0,0,0-1.56.65,2.25,2.25,0,0,0-.62,1.59,2.17,2.17,0,0,0,.63,1.63,2.26,2.26,0,0,0,1.65.61,2,2,0,0,0,1-.24A1.91,1.91,0,0,0,171.63,65.56Z" transform="translate(-0.89 -4.09)"/><path d="M174.39,62.1H172.2v-.66h5.11v.66h-2.22V67h-.7Z" transform="translate(-0.89 -4.09)"/><path d="M178.34,62.62l-.37-.54a2.8,2.8,0,0,1,1-.57,3.47,3.47,0,0,1,1.16-.21,2.31,2.31,0,0,1,1.7.58,2.2,2.2,0,0,1,.59,1.67V67h-.69v-.92a2.15,2.15,0,0,1-.91.74,2.89,2.89,0,0,1-1.19.25,2.42,2.42,0,0,1-1.43-.42,1.45,1.45,0,0,1-.58-1.24c0-1.12.9-1.69,2.7-1.69a5.23,5.23,0,0,1,1.41.17,2.37,2.37,0,0,0-.38-1.45A1.58,1.58,0,0,0,180,62,2.69,2.69,0,0,0,178.34,62.62Zm.44,3.56a2.07,2.07,0,0,0,1,.26,2.11,2.11,0,0,0,1.13-.35,2,2,0,0,0,.78-.89v-.66a4,4,0,0,0-1.31-.18c-1.38,0-2.08.34-2.08,1A.87.87,0,0,0,178.78,66.18Z" transform="translate(-0.89 -4.09)"/><path d="M188.72,67h-5V61.44h.7v4.91h3.44V61.44h.7v4.91h.81V68.4h-.66Z" transform="translate(-0.89 -4.09)"/><path d="M194.53,62.48,190.86,67h-.67V61.44h.69V66l3.68-4.54h.67V67h-.7Z" transform="translate(-0.89 -4.09)"/><path d="M201,62.48,197.32,67h-.68V61.44h.7V66L201,61.44h.68V67H201Z" transform="translate(-0.89 -4.09)"/></g></g></svg>